SplineFontDB: 3.2
FontName: Nunito-Italic
FullName: Nunito Italic
FamilyName: Nunito
Weight: Book
Copyright: Copyright 2014 The Nunito Project Authors (https://github.com/googlefonts/nunito)
Version: 3.602-ef
ItalicAngle: -9
UnderlinePosition: -94
UnderlineWidth: 28
Ascent: 800
Descent: 200
InvalidEm: 0
sfntRevision: 0x00039a1d
LayerCount: 2
Layer: 0 1 "Back" 1
Layer: 1 1 "Fore" 0
XUID: [1021 965 1680887925 7943075]
StyleMap: 0x0001
FSType: 0
OS2Version: 4
OS2_WeightWidthSlopeOnly: 0
OS2_UseTypoMetrics: 1
CreationTime: 1592915285
ModificationTime: 1719074417
PfmFamily: 81
TTFWeight: 400
TTFWidth: 5
LineGap: 0
VLineGap: 0
Panose: 0 0 0 0 0 0 0 0 0 0
OS2TypoAscent: 1011
OS2TypoAOffset: 0
OS2TypoDescent: -353
OS2TypoDOffset: 0
OS2TypoLinegap: 0
OS2WinAscent: 1077
OS2WinAOffset: 0
OS2WinDescent: 300
OS2WinDOffset: 0
HheadAscent: 1011
HheadAOffset: 0
HheadDescent: -353
HheadDOffset: 0
OS2SubXSize: 650
OS2SubYSize: 600
OS2SubXOff: 0
OS2SubYOff: 75
OS2SupXSize: 650
OS2SupYSize: 600
OS2SupXOff: 0
OS2SupYOff: 350
OS2StrikeYSize: 28
OS2StrikeYPos: 290
OS2CapHeight: 705
OS2XHeight: 484
OS2Vendor: 'NONE'
OS2CodePages: 20000197.00000000
OS2UnicodeRanges: a00002ff.5000204b.00000000.00000000
Lookup: 1 0 0 "'aalt' Access All Alternates lookup 0" { "'aalt' Access All Alternates lookup 0 subtable"  } ['aalt' ('DFLT' <'dflt' > 'cyrl' <'BSH ' 'CHU ' 'dflt' > 'latn' <'AZE ' 'CAT ' 'CRT ' 'KAZ ' 'MOL ' 'NLD ' 'ROM ' 'TAT ' 'TRK ' 'dflt' > ) ]
Lookup: 3 0 0 "'aalt' Access All Alternates lookup 1" { "'aalt' Access All Alternates lookup 1 subtable"  } ['aalt' ('DFLT' <'dflt' > 'cyrl' <'BSH ' 'CHU ' 'dflt' > 'latn' <'AZE ' 'CAT ' 'CRT ' 'KAZ ' 'MOL ' 'NLD ' 'ROM ' 'TAT ' 'TRK ' 'dflt' > ) ]

StartChar: .notdef
Encoding: 65536 -1 0
Width: 500
GlyphClass: 1
Flags: W
LayerCount: 2
Fore
SplineSet
50 -180 m 1,0,-1
 50 705 l 1,1,-1
 450 705 l 1,2,-1
 450 -180 l 1,3,-1
 50 -180 l 1,0,-1
100 -130 m 1,4,-1
 400 -130 l 1,5,-1
 400 655 l 1,6,-1
 100 655 l 1,7,-1
 100 -130 l 1,4,-1
EndSplineSet
EndChar

StartChar: A
Encoding: 65 65 1
Width: 729
GlyphClass: 2
Flags: W
AnchorPoint: "Anchor-3" 654 0 basechar 0
AnchorPoint: "Anchor-2" 345 0 basechar 0
AnchorPoint: "Anchor-0" 439 705 basechar 0
LayerCount: 2
Fore
SplineSet
40 -7 m 0,0,1
 25 -7 25 -7 15 0.5 c 128,-1,2
 5 8 5 8 2.5 20 c 128,-1,3
 0 32 0 32 9 47 c 2,4,-1
 391 683 l 2,5,6
 400 698 400 698 411.5 705 c 128,-1,7
 423 712 423 712 439 712 c 0,8,9
 456 712 456 712 466.5 703.5 c 128,-1,10
 477 695 477 695 482 679 c 2,11,-1
 658 49 l 2,12,13
 664 30 664 30 661 17.5 c 128,-1,14
 658 5 658 5 649 -1 c 128,-1,15
 640 -7 640 -7 627 -7 c 0,16,17
 609 -7 609 -7 598.5 3 c 128,-1,18
 588 13 588 13 583 32 c 2,19,-1
 539 197 l 1,20,-1
 571 180 l 1,21,-1
 145 180 l 1,22,-1
 186 196 l 1,23,-1
 82 19 l 2,24,25
 75 6 75 6 64.5 -0.5 c 128,-1,26
 54 -7 54 -7 40 -7 c 0,0,1
427 609 m 1,27,-1
 208 235 l 1,28,-1
 186 249 l 1,29,-1
 552 249 l 1,30,-1
 529 234 l 1,31,-1
 429 609 l 1,32,-1
 427 609 l 1,27,-1
EndSplineSet
Substitution2: "Single Substitution lookup 29 subtable" ordfeminine
Substitution2: "'aalt' Access All Alternates lookup 0 subtable" ordfeminine
EndChar

StartChar: Aogonek
Encoding: 260 260 24
Width: 729
GlyphClass: 1
Flags: W
LayerCount: 2
Fore
SplineSet
620 -192 m 0,0,1
 572 -192 572 -192 547 -166.5 c 128,-1,2
 522 -141 522 -141 522 -103 c 0,3,4
 522 -63 522 -63 543 -32 c 128,-1,5
 564 -1 564 -1 598 20 c 1,6,-1
 595 7 l 1,7,8
 591 11 591 11 588 17.5 c 128,-1,9
 585 24 585 24 583 32 c 2,10,-1
 539 197 l 1,11,-1
 571 180 l 1,12,-1
 145 180 l 1,13,-1
 186 196 l 1,14,-1
 82 19 l 2,15,16
 75 6 75 6 64.5 -0.5 c 128,-1,17
 54 -7 54 -7 40 -7 c 0,18,19
 25 -7 25 -7 15 0.5 c 128,-1,20
 5 8 5 8 2.5 20 c 128,-1,21
 0 32 0 32 9 47 c 2,22,-1
 391 683 l 2,23,24
 400 698 400 698 411.5 705 c 128,-1,25
 423 712 423 712 439 712 c 0,26,27
 456 712 456 712 466.5 703.5 c 128,-1,28
 477 695 477 695 482 679 c 2,29,-1
 658 49 l 2,30,31
 664 28 664 28 660 15.5 c 128,-1,32
 656 3 656 3 644 -3 c 0,33,34
 623 -15 623 -15 608.5 -29 c 128,-1,35
 594 -43 594 -43 587 -58 c 128,-1,36
 580 -73 580 -73 580 -91 c 0,37,38
 580 -114 580 -114 594 -128 c 128,-1,39
 608 -142 608 -142 633 -142 c 0,40,41
 642 -142 642 -142 650.5 -140.5 c 128,-1,42
 659 -139 659 -139 670 -136 c 0,43,44
 682 -132 682 -132 688.5 -137 c 128,-1,45
 695 -142 695 -142 696.5 -151.5 c 128,-1,46
 698 -161 698 -161 694.5 -169.5 c 128,-1,47
 691 -178 691 -178 682 -182 c 0,48,49
 668 -187 668 -187 651 -189.5 c 128,-1,50
 634 -192 634 -192 620 -192 c 0,0,1
427 609 m 1,51,-1
 208 235 l 1,52,-1
 186 249 l 1,53,-1
 552 249 l 1,54,-1
 529 234 l 1,55,-1
 429 609 l 1,56,-1
 427 609 l 1,51,-1
EndSplineSet
EndChar

StartChar: AE
Encoding: 198 198 28
Width: 981
GlyphClass: 2
Flags: W
AnchorPoint: "Anchor-2" 448 0 basechar 0
AnchorPoint: "Anchor-0" 546 705 basechar 0
LayerCount: 2
Fore
SplineSet
7 -7 m 0,0,1
 -10 -7 -10 -7 -19 1.5 c 128,-1,2
 -28 10 -28 10 -28 22.5 c 128,-1,3
 -28 35 -28 35 -18 47 c 2,4,-1
 468 683 l 2,5,6
 477 695 477 695 488.5 700 c 128,-1,7
 500 705 500 705 515 705 c 2,8,-1
 970 705 l 2,9,10
 987 705 987 705 996.5 698 c 128,-1,11
 1006 691 1006 691 1006 678 c 0,12,13
 1006 657 1006 657 995 646.5 c 128,-1,14
 984 636 984 636 966 636 c 2,15,-1
 542 636 l 1,16,-1
 566 665 l 1,17,-1
 582 370 l 1,18,-1
 554 392 l 1,19,-1
 899 392 l 2,20,21
 917 392 917 392 926.5 385 c 128,-1,22
 936 378 936 378 936 365 c 0,23,24
 936 344 936 344 924.5 333.5 c 128,-1,25
 913 323 913 323 895 323 c 2,26,-1
 558 323 l 1,27,-1
 583 345 l 1,28,-1
 599 41 l 1,29,-1
 570 69 l 1,30,-1
 870 69 l 2,31,32
 887 69 887 69 896.5 62 c 128,-1,33
 906 55 906 55 906 41 c 0,34,35
 906 22 906 22 895 11 c 128,-1,36
 884 0 884 0 865 0 c 2,37,-1
 566 0 l 2,38,39
 529 0 529 0 526 37 c 2,40,-1
 518 204 l 1,41,-1
 544 180 l 1,42,-1
 154 180 l 1,43,-1
 190 202 l 1,44,-1
 51 18 l 2,45,46
 41 4 41 4 30.5 -1.5 c 128,-1,47
 20 -7 20 -7 7 -7 c 0,0,1
494 608 m 1,48,-1
 209 229 l 1,49,-1
 203 249 l 1,50,-1
 534 249 l 1,51,-1
 516 227 l 1,52,-1
 496 608 l 1,53,-1
 494 608 l 1,48,-1
EndSplineSet
EndChar

StartChar: B
Encoding: 66 66 30
Width: 676
GlyphClass: 2
Flags: W
AnchorPoint: "Anchor-2" 304 0 basechar 0
AnchorPoint: "Anchor-0" 415 705 basechar 0
LayerCount: 2
Fore
SplineSet
98 0 m 2,0,1
 75 0 75 0 64 13 c 128,-1,2
 53 26 53 26 56 49 c 2,3,-1
 154 664 l 2,4,5
 157 685 157 685 169.5 695 c 128,-1,6
 182 705 182 705 202 705 c 2,7,-1
 428 705 l 2,8,9
 501 705 501 705 548.5 684.5 c 128,-1,10
 596 664 596 664 619 627 c 128,-1,11
 642 590 642 590 642 540 c 0,12,13
 642 461 642 461 593.5 411.5 c 128,-1,14
 545 362 545 362 464 350 c 1,15,-1
 464 365 l 1,16,17
 531 354 531 354 569 312 c 128,-1,18
 607 270 607 270 607 208 c 0,19,20
 607 105 607 105 542 52.5 c 128,-1,21
 477 0 477 0 358 0 c 2,22,-1
 98 0 l 2,0,1
139 66 m 1,23,-1
 358 66 l 2,24,25
 441 66 441 66 483 103 c 128,-1,26
 525 140 525 140 525 211 c 0,27,28
 525 267 525 267 488 295.5 c 128,-1,29
 451 324 451 324 382 324 c 2,30,-1
 180 324 l 1,31,-1
 139 66 l 1,23,-1
191 390 m 1,32,-1
 392 390 l 2,33,34
 470 390 470 390 515.5 426.5 c 128,-1,35
 561 463 561 463 561 532 c 0,36,37
 561 584 561 584 526 611.5 c 128,-1,38
 491 639 491 639 417 639 c 2,39,-1
 230 639 l 1,40,-1
 191 390 l 1,32,-1
EndSplineSet
EndChar

StartChar: uni0181
Encoding: 385 385 31
Width: 800
GlyphClass: 1
Flags: W
LayerCount: 2
Fore
SplineSet
223 0 m 2,0,1
 199 0 199 0 188.5 13 c 128,-1,2
 178 26 178 26 181 49 c 2,3,-1
 275 642 l 1,4,-1
 242 642 l 2,5,6
 186 642 186 642 156.5 617.5 c 128,-1,7
 127 593 127 593 117 533 c 2,8,-1
 113 510 l 2,9,10
 111 502 111 502 106.5 495.5 c 128,-1,11
 102 489 102 489 94.5 485.5 c 128,-1,12
 87 482 87 482 76 482 c 0,13,14
 63 482 63 482 55.5 486.5 c 128,-1,15
 48 491 48 491 45.5 500.5 c 128,-1,16
 43 510 43 510 45 522 c 2,17,-1
 48 544 l 2,18,19
 61 625 61 625 107 665 c 128,-1,20
 153 705 153 705 250 705 c 2,21,-1
 552 705 l 2,22,23
 625 705 625 705 672.5 684.5 c 128,-1,24
 720 664 720 664 743 627 c 128,-1,25
 766 590 766 590 766 540 c 0,26,27
 766 461 766 461 717.5 411.5 c 128,-1,28
 669 362 669 362 588 350 c 1,29,-1
 588 365 l 1,30,31
 655 354 655 354 693 312 c 128,-1,32
 731 270 731 270 731 208 c 0,33,34
 731 105 731 105 666 52.5 c 128,-1,35
 601 0 601 0 482 0 c 2,36,-1
 223 0 l 2,0,1
263 66 m 1,37,-1
 482 66 l 2,38,39
 565 66 565 66 607 103 c 128,-1,40
 649 140 649 140 649 211 c 0,41,42
 649 267 649 267 612.5 295.5 c 128,-1,43
 576 324 576 324 506 324 c 2,44,-1
 304 324 l 1,45,-1
 263 66 l 1,37,-1
315 390 m 1,46,-1
 516 390 l 2,47,48
 594 390 594 390 639.5 426.5 c 128,-1,49
 685 463 685 463 685 532 c 0,50,51
 685 584 685 584 650 611.5 c 128,-1,52
 615 639 615 639 541 639 c 2,53,-1
 354 639 l 1,54,-1
 315 390 l 1,46,-1
EndSplineSet
EndChar

StartChar: C
Encoding: 67 67 32
Width: 673
GlyphClass: 2
Flags: W
AnchorPoint: "Anchor-2" 367 0 basechar 0
AnchorPoint: "Anchor-0" 437 705 basechar 0
LayerCount: 2
Fore
SplineSet
382 -9 m 0,0,1
 292 -9 292 -9 223.5 25.5 c 128,-1,2
 155 60 155 60 116 130 c 128,-1,3
 77 200 77 200 77 307 c 0,4,5
 77 394 77 394 102 468 c 128,-1,6
 127 542 127 542 174.5 597 c 128,-1,7
 222 652 222 652 289.5 683 c 128,-1,8
 357 714 357 714 441 714 c 0,9,10
 504 714 504 714 558.5 695.5 c 128,-1,11
 613 677 613 677 653 642 c 0,12,13
 665 632 665 632 668 620 c 128,-1,14
 671 608 671 608 667 597 c 128,-1,15
 663 586 663 586 654.5 578 c 128,-1,16
 646 570 646 570 635 569.5 c 128,-1,17
 624 569 624 569 612 578 c 0,18,19
 573 611 573 611 531 625 c 128,-1,20
 489 639 489 639 438 639 c 0,21,22
 353 639 353 639 292 596 c 128,-1,23
 231 553 231 553 198 478.5 c 128,-1,24
 165 404 165 404 165 309 c 0,25,26
 165 223 165 223 192 169 c 128,-1,27
 219 115 219 115 269 90.5 c 128,-1,28
 319 66 319 66 390 66 c 0,29,30
 436 66 436 66 476 79.5 c 128,-1,31
 516 93 516 93 556 124 c 0,32,33
 569 133 569 133 580.5 132 c 128,-1,34
 592 131 592 131 600 123.5 c 128,-1,35
 608 116 608 116 611 105.5 c 128,-1,36
 614 95 614 95 610 83 c 128,-1,37
 606 71 606 71 594 62 c 0,38,39
 548 26 548 26 494 8.5 c 128,-1,40
 440 -9 440 -9 382 -9 c 0,0,1
EndSplineSet
EndChar

StartChar: D
Encoding: 68 68 39
Width: 742
GlyphClass: 2
Flags: W
AnchorPoint: "Anchor-5" 201 358 basechar 0
AnchorPoint: "Anchor-2" 334 0 basechar 0
AnchorPoint: "Anchor-0" 434 705 basechar 0
LayerCount: 2
Fore
SplineSet
98 0 m 2,0,1
 75 0 75 0 63.5 13 c 128,-1,2
 52 26 52 26 56 49 c 2,3,-1
 154 664 l 2,4,5
 157 685 157 685 169.5 695 c 128,-1,6
 182 705 182 705 202 705 c 2,7,-1
 368 705 l 2,8,9
 528 705 528 705 615 628 c 128,-1,10
 702 551 702 551 702 410 c 0,11,12
 702 325 702 325 678 251 c 128,-1,13
 654 177 654 177 605 120.5 c 128,-1,14
 556 64 556 64 481 32 c 128,-1,15
 406 0 406 0 302 0 c 2,16,-1
 98 0 l 2,0,1
142 70 m 1,17,-1
 304 70 l 2,18,19
 388 70 388 70 447.5 96.5 c 128,-1,20
 507 123 507 123 544 170 c 128,-1,21
 581 217 581 217 598 278.5 c 128,-1,22
 615 340 615 340 615 409 c 0,23,24
 615 519 615 519 552.5 577 c 128,-1,25
 490 635 490 635 367 635 c 2,26,-1
 232 635 l 1,27,-1
 142 70 l 1,17,-1
EndSplineSet
EndChar

StartChar: uni018A
Encoding: 394 394 45
Width: 867
GlyphClass: 1
Flags: W
LayerCount: 2
Fore
SplineSet
222 0 m 2,0,1
 199 0 199 0 188 13 c 128,-1,2
 177 26 177 26 180 49 c 2,3,-1
 275 642 l 1,4,-1
 242 642 l 2,5,6
 188 642 188 642 157 617.5 c 128,-1,7
 126 593 126 593 117 533 c 2,8,-1
 113 510 l 2,9,10
 112 502 112 502 107 495.5 c 128,-1,11
 102 489 102 489 94.5 485.5 c 128,-1,12
 87 482 87 482 76 482 c 0,13,14
 63 482 63 482 55.5 486.5 c 128,-1,15
 48 491 48 491 45.5 500.5 c 128,-1,16
 43 510 43 510 45 522 c 2,17,-1
 48 544 l 2,18,19
 62 625 62 625 108 665 c 128,-1,20
 154 705 154 705 250 705 c 2,21,-1
 492 705 l 2,22,23
 652 705 652 705 739 628 c 128,-1,24
 826 551 826 551 826 410 c 0,25,26
 826 325 826 325 802 251 c 128,-1,27
 778 177 778 177 729 120.5 c 128,-1,28
 680 64 680 64 605 32 c 128,-1,29
 530 0 530 0 426 0 c 2,30,-1
 222 0 l 2,0,1
266 70 m 1,31,-1
 428 70 l 2,32,33
 512 70 512 70 571.5 96.5 c 128,-1,34
 631 123 631 123 668 170 c 128,-1,35
 705 217 705 217 722 278.5 c 128,-1,36
 739 340 739 340 739 409 c 0,37,38
 739 519 739 519 676.5 577 c 128,-1,39
 614 635 614 635 491 635 c 2,40,-1
 355 635 l 1,41,-1
 266 70 l 1,31,-1
EndSplineSet
EndChar

StartChar: E
Encoding: 69 69 48
Width: 583
GlyphClass: 2
Flags: W
AnchorPoint: "Anchor-3" 452 0 basechar 0
AnchorPoint: "Anchor-2" 292 0 basechar 0
AnchorPoint: "Anchor-0" 398 705 basechar 0
LayerCount: 2
Fore
SplineSet
98 0 m 2,0,1
 74 0 74 0 63.5 12.5 c 128,-1,2
 53 25 53 25 56 49 c 2,3,-1
 154 664 l 2,4,5
 157 685 157 685 169.5 695 c 128,-1,6
 182 705 182 705 202 705 c 2,7,-1
 571 705 l 2,8,9
 589 705 589 705 598.5 698 c 128,-1,10
 608 691 608 691 608 678 c 0,11,12
 608 657 608 657 596.5 646.5 c 128,-1,13
 585 636 585 636 567 636 c 2,14,-1
 230 636 l 1,15,-1
 191 392 l 1,16,-1
 501 392 l 2,17,18
 519 392 519 392 528 385 c 128,-1,19
 537 378 537 378 537 365 c 0,20,21
 537 344 537 344 525.5 333.5 c 128,-1,22
 514 323 514 323 497 323 c 2,23,-1
 180 323 l 1,24,-1
 139 69 l 1,25,-1
 470 69 l 2,26,27
 488 69 488 69 497.5 62 c 128,-1,28
 507 55 507 55 507 41 c 0,29,30
 507 21 507 21 495.5 10.5 c 128,-1,31
 484 0 484 0 466 0 c 2,32,-1
 98 0 l 2,0,1
EndSplineSet
EndChar

StartChar: uni018F
Encoding: 399 399 72
Width: 767
GlyphClass: 2
Flags: W
AnchorPoint: "Anchor-2" 342 0 basechar 0
AnchorPoint: "Anchor-0" 454 705 basechar 0
LayerCount: 2
Fore
SplineSet
363 -9 m 0,0,1
 281 -9 281 -9 221.5 21 c 128,-1,2
 162 51 162 51 127 102.5 c 128,-1,3
 92 154 92 154 79.5 220.5 c 128,-1,4
 67 287 67 287 79 360 c 0,5,6
 81 376 81 376 89.5 383 c 128,-1,7
 98 390 98 390 115 390 c 2,8,-1
 664 390 l 1,9,-1
 654 321 l 1,10,-1
 136 321 l 1,11,-1
 162 353 l 1,12,13
 151 271 151 271 167.5 205 c 128,-1,14
 184 139 184 139 234 101 c 128,-1,15
 284 63 284 63 369 63 c 0,16,17
 459 63 459 63 518.5 109 c 128,-1,18
 578 155 578 155 608 234.5 c 128,-1,19
 638 314 638 314 638 411 c 0,20,21
 638 481 638 481 609.5 532.5 c 128,-1,22
 581 584 581 584 528.5 612.5 c 128,-1,23
 476 641 476 641 403 641 c 0,24,25
 337 641 337 641 284.5 626 c 128,-1,26
 232 611 232 611 186 579 c 0,27,28
 172 570 172 570 160 571 c 128,-1,29
 148 572 148 572 140.5 579.5 c 128,-1,30
 133 587 133 587 130.5 598.5 c 128,-1,31
 128 610 128 610 133 621.5 c 128,-1,32
 138 633 138 633 151 641 c 0,33,34
 204 680 204 680 271 697 c 128,-1,35
 338 714 338 714 416 714 c 0,36,37
 508 714 508 714 577.5 675 c 128,-1,38
 647 636 647 636 686 567.5 c 128,-1,39
 725 499 725 499 725 408 c 0,40,41
 725 319 725 319 701.5 243 c 128,-1,42
 678 167 678 167 632 110.5 c 128,-1,43
 586 54 586 54 518.5 22.5 c 128,-1,44
 451 -9 451 -9 363 -9 c 0,0,1
EndSplineSet
EndChar

StartChar: F
Encoding: 70 70 73
Width: 548
GlyphClass: 2
Flags: W
AnchorPoint: "Anchor-2" 258 0 basechar 0
AnchorPoint: "Anchor-0" 371 705 basechar 0
LayerCount: 2
Fore
SplineSet
94 -7 m 0,0,1
 71 -7 71 -7 61.5 6 c 128,-1,2
 52 19 52 19 55 42 c 2,3,-1
 154 664 l 2,4,5
 157 685 157 685 169.5 695 c 128,-1,6
 182 705 182 705 202 705 c 2,7,-1
 557 705 l 2,8,9
 575 705 575 705 584.5 698 c 128,-1,10
 594 691 594 691 594 677 c 0,11,12
 594 658 594 658 583.5 647 c 128,-1,13
 573 636 573 636 553 636 c 2,14,-1
 233 636 l 1,15,-1
 193 390 l 1,16,-1
 487 390 l 2,17,18
 505 390 505 390 514.5 383 c 128,-1,19
 524 376 524 376 524 362 c 0,20,21
 524 343 524 343 513 332 c 128,-1,22
 502 321 502 321 483 321 c 2,23,-1
 183 321 l 1,24,-1
 137 35 l 2,25,26
 130 -7 130 -7 94 -7 c 0,0,1
EndSplineSet
EndChar

StartChar: G
Encoding: 71 71 74
Width: 726
GlyphClass: 2
Flags: W
AnchorPoint: "Anchor-2" 380 0 basechar 0
AnchorPoint: "Anchor-0" 440 705 basechar 0
LayerCount: 2
Fore
SplineSet
391 -9 m 0,0,1
 293 -9 293 -9 222.5 26 c 128,-1,2
 152 61 152 61 114 129 c 128,-1,3
 76 197 76 197 76 296 c 0,4,5
 76 389 76 389 101.5 465.5 c 128,-1,6
 127 542 127 542 175 597.5 c 128,-1,7
 223 653 223 653 291 683.5 c 128,-1,8
 359 714 359 714 446 714 c 0,9,10
 510 714 510 714 566 696.5 c 128,-1,11
 622 679 622 679 660 645 c 0,12,13
 673 635 673 635 676.5 622 c 128,-1,14
 680 609 680 609 676.5 598 c 128,-1,15
 673 587 673 587 665 579 c 128,-1,16
 657 571 657 571 645 570 c 128,-1,17
 633 569 633 569 619 580 c 0,18,19
 584 611 584 611 539 625.5 c 128,-1,20
 494 640 494 640 441 640 c 0,21,22
 354 640 354 640 292 597 c 128,-1,23
 230 554 230 554 196.5 477 c 128,-1,24
 163 400 163 400 163 298 c 0,25,26
 163 179 163 179 223.5 121.5 c 128,-1,27
 284 64 284 64 400 64 c 0,28,29
 449 64 449 64 490.5 73 c 128,-1,30
 532 82 532 82 569 96 c 1,31,-1
 544 53 l 1,32,-1
 584 302 l 1,33,-1
 441 302 l 2,34,35
 423 302 423 302 413 309.5 c 128,-1,36
 403 317 403 317 403 330 c 0,37,38
 403 348 403 348 414.5 357.5 c 128,-1,39
 426 367 426 367 444 367 c 2,40,-1
 624 367 l 2,41,42
 643 367 643 367 653 356 c 128,-1,43
 663 345 663 345 659 325 c 2,44,-1
 618 64 l 2,45,46
 616 48 616 48 609 38.5 c 128,-1,47
 602 29 602 29 588 24 c 0,48,49
 549 9 549 9 496 0 c 128,-1,50
 443 -9 443 -9 391 -9 c 0,0,1
EndSplineSet
EndChar

StartChar: H
Encoding: 72 72 81
Width: 761
GlyphClass: 2
Flags: W
AnchorPoint: "Anchor-5" 430 553 basechar 0
AnchorPoint: "Anchor-2" 348 0 basechar 0
AnchorPoint: "Anchor-0" 453 705 basechar 0
LayerCount: 2
Fore
SplineSet
90 -7 m 256,0,1
 69 -7 69 -7 60 6 c 128,-1,2
 51 19 51 19 55 43 c 2,3,-1
 155 670 l 2,4,5
 158 691 158 691 169.5 701.5 c 128,-1,6
 181 712 181 712 201 712 c 0,7,8
 222 712 222 712 231 699 c 128,-1,9
 240 686 240 686 236 662 c 2,10,-1
 193 393 l 1,11,-1
 615 393 l 1,12,-1
 660 670 l 2,13,14
 663 691 663 691 674 701.5 c 128,-1,15
 685 712 685 712 706 712 c 0,16,17
 726 712 726 712 735 699.5 c 128,-1,18
 744 687 744 687 741 662 c 2,19,-1
 641 35 l 2,20,21
 638 15 638 15 627 4 c 128,-1,22
 616 -7 616 -7 595 -7 c 256,23,24
 574 -7 574 -7 565 6 c 128,-1,25
 556 19 556 19 560 43 c 2,26,-1
 604 322 l 1,27,-1
 182 322 l 1,28,-1
 136 35 l 2,29,30
 133 15 133 15 122 4 c 128,-1,31
 111 -7 111 -7 90 -7 c 256,0,1
EndSplineSet
EndChar

StartChar: Hbar
Encoding: 294 294 82
Width: 798
GlyphClass: 1
Flags: W
LayerCount: 2
Fore
SplineSet
109 -7 m 0,0,1
 89 -7 89 -7 79.5 6 c 128,-1,2
 70 19 70 19 74 43 c 2,3,-1
 151 534 l 1,4,-1
 163 519 l 1,5,-1
 92 519 l 2,6,7
 56 519 56 519 56 546 c 0,8,9
 56 564 56 564 67 574 c 128,-1,10
 78 584 78 584 96 584 c 2,11,-1
 175 584 l 1,12,-1
 156 566 l 1,13,-1
 173 670 l 2,14,15
 176 691 176 691 187.5 701.5 c 128,-1,16
 199 712 199 712 220 712 c 0,17,18
 239 712 239 712 248.5 699.5 c 128,-1,19
 258 687 258 687 254 664 c 2,20,-1
 238 561 l 1,21,-1
 223 584 l 1,22,-1
 679 584 l 1,23,-1
 659 560 l 1,24,-1
 677 671 l 2,25,26
 680 692 680 692 691.5 702 c 128,-1,27
 703 712 703 712 724 712 c 0,28,29
 743 712 743 712 752.5 699.5 c 128,-1,30
 762 687 762 687 758 664 c 2,31,-1
 741 557 l 1,32,-1
 731 584 l 1,33,-1
 803 584 l 2,34,35
 839 584 839 584 839 557 c 0,36,37
 839 540 839 540 828 529.5 c 128,-1,38
 817 519 817 519 799 519 c 2,39,-1
 720 519 l 1,40,-1
 738 540 l 1,41,-1
 658 35 l 2,42,43
 655 15 655 15 644.5 4 c 128,-1,44
 634 -7 634 -7 613 -7 c 0,45,46
 593 -7 593 -7 583.5 6 c 128,-1,47
 574 19 574 19 577 43 c 2,48,-1
 621 317 l 1,49,-1
 199 317 l 1,50,-1
 155 35 l 2,51,52
 152 15 152 15 141 4 c 128,-1,53
 130 -7 130 -7 109 -7 c 0,0,1
211 388 m 1,54,-1
 632 388 l 1,55,-1
 653 519 l 1,56,-1
 231 519 l 1,57,-1
 211 388 l 1,54,-1
EndSplineSet
EndChar

StartChar: I
Encoding: 73 73 86
Width: 257
GlyphClass: 2
Flags: W
AnchorPoint: "Anchor-3" 118 0 basechar 0
AnchorPoint: "Anchor-2" 90 0 basechar 0
AnchorPoint: "Anchor-0" 202 705 basechar 0
LayerCount: 2
Fore
SplineSet
91 -7 m 256,0,1
 70 -7 70 -7 60.5 6 c 128,-1,2
 51 19 51 19 55 43 c 2,3,-1
 155 670 l 2,4,5
 158 691 158 691 169.5 701.5 c 128,-1,6
 181 712 181 712 201 712 c 0,7,8
 222 712 222 712 231 699.5 c 128,-1,9
 240 687 240 687 236 662 c 2,10,-1
 136 35 l 2,11,12
 133 15 133 15 122.5 4 c 128,-1,13
 112 -7 112 -7 91 -7 c 256,0,1
EndSplineSet
EndChar

StartChar: Iogonek
Encoding: 302 302 100
Width: 257
GlyphClass: 1
Flags: W
LayerCount: 2
Fore
SplineSet
84 -192 m 0,0,1
 35 -192 35 -192 10.5 -166.5 c 128,-1,2
 -14 -141 -14 -141 -14 -103 c 0,3,4
 -14 -64 -14 -64 7 -32.5 c 128,-1,5
 28 -1 28 -1 63 21 c 1,6,-1
 63 4 l 1,7,8
 58 10 58 10 55.5 20 c 128,-1,9
 53 30 53 30 55 42 c 2,10,-1
 155 670 l 2,11,12
 158 691 158 691 169.5 701.5 c 128,-1,13
 181 712 181 712 201 712 c 0,14,15
 222 712 222 712 231 699.5 c 128,-1,16
 240 687 240 687 236 662 c 2,17,-1
 136 35 l 2,18,19
 134 20 134 20 127.5 10 c 128,-1,20
 121 0 121 0 110 -5 c 0,21,22
 77 -19 77 -19 60.5 -41.5 c 128,-1,23
 44 -64 44 -64 44 -91 c 0,24,25
 44 -114 44 -114 57.5 -128 c 128,-1,26
 71 -142 71 -142 97 -142 c 0,27,28
 106 -142 106 -142 114.5 -140.5 c 128,-1,29
 123 -139 123 -139 134 -136 c 0,30,31
 146 -132 146 -132 152.5 -137 c 128,-1,32
 159 -142 159 -142 160.5 -151.5 c 128,-1,33
 162 -161 162 -161 158.5 -169.5 c 128,-1,34
 155 -178 155 -178 146 -182 c 0,35,36
 132 -187 132 -187 115 -189.5 c 128,-1,37
 98 -192 98 -192 84 -192 c 0,0,1
EndSplineSet
EndChar

StartChar: J
Encoding: 74 74 102
Width: 324
GlyphClass: 2
Flags: W
AnchorPoint: "Anchor-2" 158 0 basechar 0
AnchorPoint: "Anchor-0" 269 705 basechar 0
LayerCount: 2
Fore
SplineSet
-6 -6 m 2,0,1
 -26 -7 -26 -7 -37 2 c 128,-1,2
 -48 11 -48 11 -47 28 c 0,3,4
 -47 45 -47 45 -38 54 c 128,-1,5
 -29 63 -29 63 -12 64 c 2,6,-1
 20 66 l 2,7,8
 74 70 74 70 105.5 102 c 128,-1,9
 137 134 137 134 147 196 c 2,10,-1
 222 673 l 2,11,12
 226 693 226 693 237 702.5 c 128,-1,13
 248 712 248 712 268 712 c 256,14,15
 288 712 288 712 297.5 700 c 128,-1,16
 307 688 307 688 303 666 c 2,17,-1
 227 186 l 2,18,19
 218 128 218 128 194.5 87.5 c 128,-1,20
 171 47 171 47 129.5 24 c 128,-1,21
 88 1 88 1 25 -4 c 2,22,-1
 -6 -6 l 2,0,1
EndSplineSet
EndChar

StartChar: K
Encoding: 75 75 104
Width: 625
GlyphClass: 2
Flags: W
AnchorPoint: "Anchor-2" 286 0 basechar 0
AnchorPoint: "Anchor-0" 389 705 basechar 0
LayerCount: 2
Fore
SplineSet
91 -7 m 0,0,1
 71 -7 71 -7 61.5 5.5 c 128,-1,2
 52 18 52 18 55 42 c 2,3,-1
 155 671 l 2,4,5
 159 692 159 692 170 702 c 128,-1,6
 181 712 181 712 201 712 c 256,7,8
 221 712 221 712 230.5 699.5 c 128,-1,9
 240 687 240 687 236 664 c 2,10,-1
 192 385 l 1,11,-1
 194 385 l 1,12,-1
 570 693 l 2,13,14
 582 703 582 703 590.5 707.5 c 128,-1,15
 599 712 599 712 612 712 c 0,16,17
 628 712 628 712 637.5 702 c 128,-1,18
 647 692 647 692 646.5 678.5 c 128,-1,19
 646 665 646 665 633 654 c 2,20,-1
 248 337 l 1,21,-1
 248 380 l 1,22,-1
 557 50 l 2,23,24
 568 39 568 39 567.5 25.5 c 128,-1,25
 567 12 567 12 557 2.5 c 128,-1,26
 547 -7 547 -7 530 -7 c 0,27,28
 516 -7 516 -7 506.5 -0.5 c 128,-1,29
 497 6 497 6 485 19 c 2,30,-1
 186 334 l 1,31,-1
 184 334 l 1,32,-1
 137 33 l 2,33,34
 134 13 134 13 123 3 c 128,-1,35
 112 -7 112 -7 91 -7 c 0,0,1
EndSplineSet
EndChar

StartChar: L
Encoding: 76 76 106
Width: 543
GlyphClass: 2
Flags: W
AnchorPoint: "Anchor-5" 194 387 basechar 0
AnchorPoint: "Anchor-2" 270 0 basechar 0
AnchorPoint: "Anchor-1" 358 705 basechar 0
AnchorPoint: "Anchor-0" 201 705 basechar 0
LayerCount: 2
Fore
SplineSet
95 0 m 2,0,1
 73 0 73 0 63 12 c 128,-1,2
 53 24 53 24 56 46 c 2,3,-1
 156 674 l 2,4,5
 159 694 159 694 170 703 c 128,-1,6
 181 712 181 712 200 712 c 0,7,8
 221 712 221 712 230.5 700 c 128,-1,9
 240 688 240 688 237 666 c 2,10,-1
 143 72 l 1,11,-1
 464 72 l 2,12,13
 482 72 482 72 492 64.5 c 128,-1,14
 502 57 502 57 502 43 c 0,15,16
 502 22 502 22 490 11 c 128,-1,17
 478 0 478 0 459 0 c 2,18,-1
 95 0 l 2,0,1
EndSplineSet
EndChar

StartChar: M
Encoding: 77 77 116
Width: 856
GlyphClass: 2
Flags: W
AnchorPoint: "Anchor-2" 396 0 basechar 0
AnchorPoint: "Anchor-0" 502 705 basechar 0
LayerCount: 2
Fore
SplineSet
91 -2 m 0,0,1
 72 -2 72 -2 63.5 9 c 128,-1,2
 55 20 55 20 57 40 c 2,3,-1
 158 675 l 2,4,5
 162 694 162 694 172 703 c 128,-1,6
 182 712 182 712 199 712 c 0,7,8
 215 712 215 712 223.5 704.5 c 128,-1,9
 232 697 232 697 239 680 c 2,10,-1
 427 168 l 1,11,-1
 399 168 l 1,12,-1
 756 687 l 2,13,14
 766 700 766 700 776 706 c 128,-1,15
 786 712 786 712 801 712 c 0,16,17
 820 712 820 712 828.5 700.5 c 128,-1,18
 837 689 837 689 834 669 c 2,19,-1
 733 34 l 2,20,21
 731 16 731 16 721 7 c 128,-1,22
 711 -2 711 -2 693 -2 c 256,23,24
 675 -2 675 -2 665.5 9 c 128,-1,25
 656 20 656 20 659 40 c 2,26,-1
 747 596 l 1,27,-1
 771 596 l 1,28,-1
 444 122 l 2,29,30
 437 111 437 111 429 106.5 c 128,-1,31
 421 102 421 102 409 102 c 0,32,33
 395 102 395 102 387 108.5 c 128,-1,34
 379 115 379 115 373 129 c 2,35,-1
 199 595 l 1,36,-1
 220 595 l 1,37,-1
 131 34 l 2,38,39
 129 16 129 16 119 7 c 128,-1,40
 109 -2 109 -2 91 -2 c 0,0,1
EndSplineSet
EndChar

StartChar: N
Encoding: 78 78 118
Width: 739
GlyphClass: 2
Flags: W
AnchorPoint: "Anchor-2" 342 0 basechar 0
AnchorPoint: "Anchor-0" 442 705 basechar 0
LayerCount: 2
Fore
SplineSet
88 -7 m 0,0,1
 70 -7 70 -7 61 5 c 128,-1,2
 52 17 52 17 55 39 c 2,3,-1
 156 676 l 2,4,5
 160 695 160 695 170 703.5 c 128,-1,6
 180 712 180 712 195 712 c 0,7,8
 211 712 211 712 219.5 705.5 c 128,-1,9
 228 699 228 699 236 685 c 2,10,-1
 574 100 l 1,11,-1
 553 100 l 1,12,-1
 644 674 l 2,13,14
 647 694 647 694 658 703 c 128,-1,15
 669 712 669 712 688 712 c 0,16,17
 706 712 706 712 714 700 c 128,-1,18
 722 688 722 688 719 666 c 2,19,-1
 618 30 l 2,20,21
 615 12 615 12 606 2.5 c 128,-1,22
 597 -7 597 -7 582 -7 c 0,23,24
 566 -7 566 -7 556.5 0 c 128,-1,25
 547 7 547 7 538 21 c 2,26,-1
 200 605 l 1,27,-1
 221 605 l 1,28,-1
 130 31 l 2,29,30
 128 12 128 12 117.5 2.5 c 128,-1,31
 107 -7 107 -7 88 -7 c 0,0,1
EndSplineSet
EndChar

StartChar: Eng
Encoding: 330 330 128
Width: 739
GlyphClass: 2
Flags: W
AnchorPoint: "Anchor-2" 331 0 basechar 0
AnchorPoint: "Anchor-0" 442 705 basechar 0
LayerCount: 2
Fore
SplineSet
409 -191 m 0,0,1
 396 -191 396 -191 387.5 -184.5 c 128,-1,2
 379 -178 379 -178 376 -169 c 128,-1,3
 373 -160 373 -160 375.5 -150.5 c 128,-1,4
 378 -141 378 -141 385.5 -134.5 c 128,-1,5
 393 -128 393 -128 406 -127 c 0,6,7
 457 -126 457 -126 491 -99.5 c 128,-1,8
 525 -73 525 -73 534 -15 c 2,9,-1
 542 35 l 1,10,-1
 550 0 l 1,11,-1
 200 605 l 1,12,-1
 221 605 l 1,13,-1
 130 31 l 2,14,15
 128 12 128 12 117.5 2.5 c 128,-1,16
 107 -7 107 -7 88 -7 c 0,17,18
 70 -7 70 -7 61 5 c 128,-1,19
 52 17 52 17 55 39 c 2,20,-1
 156 675 l 2,21,22
 160 694 160 694 170 703 c 128,-1,23
 180 712 180 712 195 712 c 0,24,25
 211 712 211 712 219.5 705.5 c 128,-1,26
 228 699 228 699 236 685 c 2,27,-1
 574 100 l 1,28,-1
 553 100 l 1,29,-1
 644 674 l 2,30,31
 647 694 647 694 657.5 703 c 128,-1,32
 668 712 668 712 688 712 c 0,33,34
 706 712 706 712 714 700 c 128,-1,35
 722 688 722 688 719 666 c 2,36,-1
 611 -10 l 2,37,38
 597 -101 597 -101 546.5 -146 c 128,-1,39
 496 -191 496 -191 409 -191 c 0,0,1
EndSplineSet
EndChar

StartChar: O
Encoding: 79 79 129
Width: 767
GlyphClass: 2
Flags: W
AnchorPoint: "Anchor-5" 401 353 basechar 0
AnchorPoint: "Anchor-3" 414 0 basechar 0
AnchorPoint: "Anchor-2" 356 0 basechar 0
AnchorPoint: "Anchor-1" 497 705 basechar 0
AnchorPoint: "Anchor-0" 446 705 basechar 0
LayerCount: 2
Fore
SplineSet
368 -9 m 0,0,1
 280 -9 280 -9 214.5 26 c 128,-1,2
 149 61 149 61 112.5 129 c 128,-1,3
 76 197 76 197 76 294 c 0,4,5
 76 383 76 383 100 459.5 c 128,-1,6
 124 536 124 536 169.5 593 c 128,-1,7
 215 650 215 650 281.5 682 c 128,-1,8
 348 714 348 714 434 714 c 0,9,10
 523 714 523 714 588.5 679 c 128,-1,11
 654 644 654 644 690 576.5 c 128,-1,12
 726 509 726 509 726 412 c 0,13,14
 726 322 726 322 702 245.5 c 128,-1,15
 678 169 678 169 632.5 112 c 128,-1,16
 587 55 587 55 520.5 23 c 128,-1,17
 454 -9 454 -9 368 -9 c 0,0,1
370 64 m 0,18,19
 457 64 457 64 517 109.5 c 128,-1,20
 577 155 577 155 608 233.5 c 128,-1,21
 639 312 639 312 639 411 c 0,22,23
 639 527 639 527 583.5 584 c 128,-1,24
 528 641 528 641 431 641 c 0,25,26
 345 641 345 641 285 595.5 c 128,-1,27
 225 550 225 550 194 472 c 128,-1,28
 163 394 163 394 163 295 c 0,29,30
 163 178 163 178 218 121 c 128,-1,31
 273 64 273 64 370 64 c 0,18,19
EndSplineSet
Substitution2: "Single Substitution lookup 29 subtable" ordmasculine
Substitution2: "'aalt' Access All Alternates lookup 0 subtable" ordmasculine
EndChar

StartChar: OE
Encoding: 338 338 163
Width: 1046
GlyphClass: 2
Flags: W
AnchorPoint: "Anchor-2" 552 0 basechar 0
AnchorPoint: "Anchor-0" 664 705 basechar 0
LayerCount: 2
Fore
SplineSet
410 0 m 2,0,1
 250 0 250 0 163.5 77.5 c 128,-1,2
 77 155 77 155 76 295 c 0,3,4
 76 382 76 382 99.5 456 c 128,-1,5
 123 530 123 530 172.5 586 c 128,-1,6
 222 642 222 642 297.5 673.5 c 128,-1,7
 373 705 373 705 477 705 c 2,8,-1
 1034 705 l 2,9,10
 1052 705 1052 705 1061.5 698 c 128,-1,11
 1071 691 1071 691 1071 678 c 0,12,13
 1071 657 1071 657 1059.5 646.5 c 128,-1,14
 1048 636 1048 636 1030 636 c 2,15,-1
 694 636 l 1,16,-1
 655 392 l 1,17,-1
 965 392 l 2,18,19
 983 392 983 392 992.5 385 c 128,-1,20
 1002 378 1002 378 1002 365 c 0,21,22
 1002 344 1002 344 990.5 333.5 c 128,-1,23
 979 323 979 323 961 323 c 2,24,-1
 645 323 l 1,25,-1
 604 69 l 1,26,-1
 934 69 l 2,27,28
 952 69 952 69 961.5 62 c 128,-1,29
 971 55 971 55 971 41 c 0,30,31
 971 21 971 21 959.5 10.5 c 128,-1,32
 948 0 948 0 930 0 c 2,33,-1
 410 0 l 2,0,1
411 70 m 2,34,-1
 525 70 l 1,35,-1
 614 635 l 1,36,-1
 475 635 l 2,37,38
 391 635 391 635 331.5 608.5 c 128,-1,39
 272 582 272 582 234.5 535 c 128,-1,40
 197 488 197 488 180 426.5 c 128,-1,41
 163 365 163 365 163 296 c 0,42,43
 163 187 163 187 225 128.5 c 128,-1,44
 287 70 287 70 411 70 c 2,34,-1
EndSplineSet
EndChar

StartChar: P
Encoding: 80 80 164
Width: 633
GlyphClass: 2
Flags: W
AnchorPoint: "Anchor-2" 285 0 basechar 0
AnchorPoint: "Anchor-0" 397 705 basechar 0
LayerCount: 2
Fore
SplineSet
91 -7 m 0,0,1
 71 -7 71 -7 61.5 6 c 128,-1,2
 52 19 52 19 55 41 c 2,3,-1
 154 665 l 2,4,5
 158 686 158 686 169.5 695.5 c 128,-1,6
 181 705 181 705 201 705 c 2,7,-1
 415 705 l 2,8,9
 523 705 523 705 582 657 c 128,-1,10
 641 609 641 609 641 515 c 0,11,12
 641 408 641 408 573.5 344.5 c 128,-1,13
 506 281 506 281 378 281 c 2,14,-1
 176 281 l 1,15,-1
 136 34 l 2,16,17
 133 13 133 13 122.5 3 c 128,-1,18
 112 -7 112 -7 91 -7 c 0,0,1
187 350 m 1,19,-1
 382 350 l 2,20,21
 469 350 469 350 514 391 c 128,-1,22
 559 432 559 432 559 510 c 0,23,24
 559 576 559 576 520.5 606.5 c 128,-1,25
 482 637 482 637 408 637 c 2,26,-1
 232 637 l 1,27,-1
 187 350 l 1,19,-1
EndSplineSet
EndChar

StartChar: Thorn
Encoding: 222 222 165
Width: 634
GlyphClass: 2
Flags: W
AnchorPoint: "Anchor-2" 285 0 basechar 0
AnchorPoint: "Anchor-0" 397 705 basechar 0
LayerCount: 2
Fore
SplineSet
89 -7 m 0,0,1
 69 -7 69 -7 60 6 c 128,-1,2
 51 19 51 19 55 42 c 2,3,-1
 154 668 l 2,4,5
 158 689 158 689 170 699.5 c 128,-1,6
 182 710 182 710 202 710 c 256,7,8
 222 710 222 710 231.5 699 c 128,-1,9
 241 688 241 688 238 670 c 2,10,-1
 223 578 l 1,11,-1
 395 578 l 2,12,13
 503 578 503 578 562 530 c 128,-1,14
 621 482 621 482 621 389 c 0,15,16
 621 281 621 281 553.5 217.5 c 128,-1,17
 486 154 486 154 357 154 c 2,18,-1
 156 154 l 1,19,-1
 136 34 l 2,20,21
 133 14 133 14 121.5 3.5 c 128,-1,22
 110 -7 110 -7 89 -7 c 0,0,1
166 223 m 1,23,-1
 363 223 l 2,24,25
 449 223 449 223 494 264 c 128,-1,26
 539 305 539 305 539 383 c 0,27,28
 539 449 539 449 501 479.5 c 128,-1,29
 463 510 463 510 388 510 c 2,30,-1
 212 510 l 1,31,-1
 166 223 l 1,23,-1
EndSplineSet
EndChar

StartChar: Q
Encoding: 81 81 166
Width: 767
GlyphClass: 2
Flags: W
AnchorPoint: "Anchor-5" 401 353 basechar 0
AnchorPoint: "Anchor-3" 414 0 basechar 0
AnchorPoint: "Anchor-2" 356 0 basechar 0
AnchorPoint: "Anchor-1" 497 705 basechar 0
AnchorPoint: "Anchor-0" 446 705 basechar 0
LayerCount: 2
Fore
SplineSet
583 -140 m 2,0,1
 590 -156 590 -156 587.5 -168.5 c 128,-1,2
 585 -181 585 -181 575.5 -188 c 128,-1,3
 566 -195 566 -195 554.5 -196 c 128,-1,4
 543 -197 543 -197 531.5 -191 c 128,-1,5
 520 -185 520 -185 513 -170 c 2,6,-1
 467 -69 l 2,7,8
 453 -39 453 -39 426 -24 c 128,-1,9
 399 -9 399 -9 356 -9 c 1,10,-1
 428 20 l 1,11,12
 470 18 470 18 497 2 c 128,-1,13
 524 -14 524 -14 545 -58 c 2,14,-1
 583 -140 l 2,0,1
368 -9 m 0,15,16
 280 -9 280 -9 214.5 26 c 128,-1,17
 149 61 149 61 112.5 129 c 128,-1,18
 76 197 76 197 76 294 c 0,19,20
 76 383 76 383 100 459.5 c 128,-1,21
 124 536 124 536 169.5 593 c 128,-1,22
 215 650 215 650 281.5 682 c 128,-1,23
 348 714 348 714 434 714 c 0,24,25
 523 714 523 714 588.5 679 c 128,-1,26
 654 644 654 644 690 576.5 c 128,-1,27
 726 509 726 509 726 412 c 0,28,29
 726 322 726 322 702 245.5 c 128,-1,30
 678 169 678 169 632.5 112 c 128,-1,31
 587 55 587 55 520.5 23 c 128,-1,32
 454 -9 454 -9 368 -9 c 0,15,16
370 64 m 0,33,34
 457 64 457 64 517 109.5 c 128,-1,35
 577 155 577 155 608 233.5 c 128,-1,36
 639 312 639 312 639 411 c 0,37,38
 639 527 639 527 583.5 584 c 128,-1,39
 528 641 528 641 431 641 c 0,40,41
 345 641 345 641 285 595.5 c 128,-1,42
 225 550 225 550 194 472 c 128,-1,43
 163 394 163 394 163 295 c 0,44,45
 163 178 163 178 218 121 c 128,-1,46
 273 64 273 64 370 64 c 0,33,34
EndSplineSet
EndChar

StartChar: R
Encoding: 82 82 167
Width: 669
GlyphClass: 2
Flags: W
AnchorPoint: "Anchor-2" 310 0 basechar 0
AnchorPoint: "Anchor-0" 401 705 basechar 0
LayerCount: 2
Fore
SplineSet
90 -7 m 0,0,1
 70 -7 70 -7 61 6 c 128,-1,2
 52 19 52 19 56 42 c 2,3,-1
 154 664 l 2,4,5
 158 685 158 685 170 695 c 128,-1,6
 182 705 182 705 202 705 c 2,7,-1
 412 705 l 2,8,9
 526 705 526 705 583.5 654.5 c 128,-1,10
 641 604 641 604 641 515 c 0,11,12
 641 444 641 444 607.5 395.5 c 128,-1,13
 574 347 574 347 516 323.5 c 128,-1,14
 458 300 458 300 384 301 c 1,15,-1
 384 314 l 1,16,-1
 400 314 l 2,17,18
 444 314 444 314 472 289 c 128,-1,19
 500 264 500 264 517 218 c 2,20,-1
 582 48 l 2,21,22
 589 31 589 31 587.5 18.5 c 128,-1,23
 586 6 586 6 576.5 -0.5 c 128,-1,24
 567 -7 567 -7 550 -7 c 0,25,26
 534 -7 534 -7 524 1.5 c 128,-1,27
 514 10 514 10 507 29 c 2,28,-1
 434 219 l 2,29,30
 418 262 418 262 392 280 c 128,-1,31
 366 298 366 298 316 298 c 2,32,-1
 178 298 l 1,33,-1
 137 34 l 2,34,35
 134 14 134 14 122.5 3.5 c 128,-1,36
 111 -7 111 -7 90 -7 c 0,0,1
189 363 m 1,37,-1
 389 363 l 2,38,39
 469 363 469 363 514 401 c 128,-1,40
 559 439 559 439 559 510 c 0,41,42
 559 573 559 573 522 605 c 128,-1,43
 485 637 485 637 403 637 c 2,44,-1
 232 637 l 1,45,-1
 189 363 l 1,37,-1
EndSplineSet
EndChar

StartChar: S
Encoding: 83 83 175
Width: 615
GlyphClass: 2
Flags: W
AnchorPoint: "Anchor-2" 293 0 basechar 0
AnchorPoint: "Anchor-0" 369 705 basechar 0
LayerCount: 2
Fore
SplineSet
297 -9 m 0,0,1
 252 -9 252 -9 208 -2 c 128,-1,2
 164 5 164 5 124 20 c 128,-1,3
 84 35 84 35 51 60 c 0,4,5
 38 68 38 68 34.5 79 c 128,-1,6
 31 90 31 90 33.5 101.5 c 128,-1,7
 36 113 36 113 43.5 121 c 128,-1,8
 51 129 51 129 63 130 c 128,-1,9
 75 131 75 131 89 122 c 0,10,11
 137 89 137 89 190.5 76.5 c 128,-1,12
 244 64 244 64 304 64 c 0,13,14
 385 64 385 64 434 97.5 c 128,-1,15
 483 131 483 131 483 189 c 0,16,17
 483 229 483 229 454 257.5 c 128,-1,18
 425 286 425 286 352 302 c 2,19,-1
 249 327 l 2,20,21
 179 344 179 344 137 385 c 128,-1,22
 95 426 95 426 95 503 c 0,23,24
 95 551 95 551 115.5 590 c 128,-1,25
 136 629 136 629 172 656.5 c 128,-1,26
 208 684 208 684 256 699 c 128,-1,27
 304 714 304 714 358 714 c 0,28,29
 416 714 416 714 477 697 c 128,-1,30
 538 680 538 680 584 641 c 0,31,32
 595 633 595 633 598.5 621.5 c 128,-1,33
 602 610 602 610 599.5 599 c 128,-1,34
 597 588 597 588 589 581 c 128,-1,35
 581 574 581 574 569 573.5 c 128,-1,36
 557 573 557 573 542 583 c 0,37,38
 503 614 503 614 454.5 627.5 c 128,-1,39
 406 641 406 641 356 641 c 256,40,41
 306 641 306 641 265 624.5 c 128,-1,42
 224 608 224 608 201 578.5 c 128,-1,43
 178 549 178 549 178 508 c 0,44,45
 178 458 178 458 203.5 433.5 c 128,-1,46
 229 409 229 409 279 396 c 2,47,-1
 383 372 l 2,48,49
 477 350 477 350 521.5 305.5 c 128,-1,50
 566 261 566 261 566 198 c 0,51,52
 566 148 566 148 545 109 c 128,-1,53
 524 70 524 70 487 44 c 128,-1,54
 450 18 450 18 401.5 4.5 c 128,-1,55
 353 -9 353 -9 297 -9 c 0,0,1
EndSplineSet
EndChar

StartChar: uni1E9E
Encoding: 7838 7838 186
Width: 713
GlyphClass: 1
Flags: W
LayerCount: 2
Fore
SplineSet
399 -9 m 0,0,1
 351 -9 351 -9 306 4.5 c 128,-1,2
 261 18 261 18 228 42 c 0,3,4
 217 49 217 49 213.5 60 c 128,-1,5
 210 71 210 71 212.5 81 c 128,-1,6
 215 91 215 91 222.5 98.5 c 128,-1,7
 230 106 230 106 241 107.5 c 128,-1,8
 252 109 252 109 264 101 c 0,9,10
 295 81 295 81 329 71.5 c 128,-1,11
 363 62 363 62 399 62 c 0,12,13
 478 62 478 62 519.5 100 c 128,-1,14
 561 138 561 138 561 206 c 0,15,16
 561 261 561 261 524 290.5 c 128,-1,17
 487 320 487 320 416 320 c 2,18,-1
 320 320 l 2,19,20
 307 320 307 320 298.5 327.5 c 128,-1,21
 290 335 290 335 290 347 c 0,22,23
 290 368 290 368 300 378 c 128,-1,24
 310 388 310 388 327 388 c 2,25,-1
 417 388 l 2,26,27
 490 388 490 388 533.5 423 c 128,-1,28
 577 458 577 458 577 527 c 0,29,30
 577 579 577 579 536 611 c 128,-1,31
 495 643 495 643 419 643 c 0,32,33
 323 643 323 643 271 597.5 c 128,-1,34
 219 552 219 552 204 459 c 2,35,-1
 136 33 l 2,36,37
 133 13 133 13 122 3 c 128,-1,38
 111 -7 111 -7 90 -7 c 0,39,40
 70 -7 70 -7 60.5 5 c 128,-1,41
 51 17 51 17 55 40 c 2,42,-1
 123 467 l 2,43,44
 137 553 137 553 175 607.5 c 128,-1,45
 213 662 213 662 275.5 688 c 128,-1,46
 338 714 338 714 426 714 c 0,47,48
 501 714 501 714 552.5 690.5 c 128,-1,49
 604 667 604 667 631 626.5 c 128,-1,50
 658 586 658 586 658 536 c 0,51,52
 658 461 658 461 612.5 411.5 c 128,-1,53
 567 362 567 362 499 350 c 1,54,-1
 499 365 l 1,55,56
 544 357 544 357 575.5 334.5 c 128,-1,57
 607 312 607 312 624.5 278 c 128,-1,58
 642 244 642 244 642 202 c 0,59,60
 642 138 642 138 614 90.5 c 128,-1,61
 586 43 586 43 532 17 c 128,-1,62
 478 -9 478 -9 399 -9 c 0,0,1
EndSplineSet
EndChar

StartChar: T
Encoding: 84 84 187
Width: 602
GlyphClass: 2
Flags: W
AnchorPoint: "Anchor-5" 319 358 basechar 0
AnchorPoint: "Anchor-2" 263 0 basechar 0
AnchorPoint: "Anchor-0" 374 705 basechar 0
LayerCount: 2
Fore
SplineSet
263 -7 m 0,0,1
 243 -7 243 -7 234 6 c 128,-1,2
 225 19 225 19 229 42 c 2,3,-1
 322 634 l 1,4,-1
 103 634 l 2,5,6
 85 634 85 634 74.5 642 c 128,-1,7
 64 650 64 650 64 664 c 0,8,9
 64 684 64 684 76 694.5 c 128,-1,10
 88 705 88 705 107 705 c 2,11,-1
 635 705 l 2,12,13
 654 705 654 705 664 697.5 c 128,-1,14
 674 690 674 690 674 676 c 0,15,16
 674 656 674 656 662.5 645 c 128,-1,17
 651 634 651 634 631 634 c 2,18,-1
 404 634 l 1,19,-1
 309 34 l 2,20,21
 307 14 307 14 295.5 3.5 c 128,-1,22
 284 -7 284 -7 263 -7 c 0,0,1
EndSplineSet
EndChar

StartChar: U
Encoding: 85 85 194
Width: 728
GlyphClass: 2
Flags: W
AnchorPoint: "Anchor-3" 392 0 basechar 0
AnchorPoint: "Anchor-2" 326 0 basechar 0
AnchorPoint: "Anchor-1" 651 705 basechar 0
AnchorPoint: "Anchor-0" 437 705 basechar 0
LayerCount: 2
Fore
SplineSet
335 -9 m 0,0,1
 269 -9 269 -9 217.5 10 c 128,-1,2
 166 29 166 29 133.5 67.5 c 128,-1,3
 101 106 101 106 89.5 163.5 c 128,-1,4
 78 221 78 221 90 297 c 2,5,-1
 150 673 l 2,6,7
 154 693 154 693 165 702.5 c 128,-1,8
 176 712 176 712 196 712 c 256,9,10
 216 712 216 712 225.5 700 c 128,-1,11
 235 688 235 688 231 665 c 2,12,-1
 172 290 l 2,13,14
 154 177 154 177 197 120.5 c 128,-1,15
 240 64 240 64 339 64 c 256,16,17
 438 64 438 64 494 114 c 128,-1,18
 550 164 550 164 568 273 c 2,19,-1
 632 673 l 2,20,21
 635 693 635 693 646.5 702.5 c 128,-1,22
 658 712 658 712 677 712 c 0,23,24
 697 712 697 712 706.5 700 c 128,-1,25
 716 688 716 688 712 665 c 2,26,-1
 650 269 l 2,27,28
 635 178 635 178 597 116 c 128,-1,29
 559 54 559 54 494 22.5 c 128,-1,30
 429 -9 429 -9 335 -9 c 0,0,1
EndSplineSet
EndChar

StartChar: V
Encoding: 86 86 217
Width: 688
GlyphClass: 2
Flags: W
AnchorPoint: "Anchor-2" 306 0 basechar 0
AnchorPoint: "Anchor-0" 416 705 basechar 0
LayerCount: 2
Fore
SplineSet
306 -7 m 0,0,1
 287 -7 287 -7 275.5 3 c 128,-1,2
 264 13 264 13 258 33 c 2,3,-1
 87 654 l 2,4,5
 83 670 83 670 86.5 681 c 128,-1,6
 90 692 90 692 99.5 698.5 c 128,-1,7
 109 705 109 705 123 705 c 0,8,9
 139 705 139 705 149 696.5 c 128,-1,10
 159 688 159 688 165 668 c 2,11,-1
 328 66 l 1,12,-1
 295 66 l 1,13,-1
 653 675 l 2,14,15
 663 691 663 691 673.5 698 c 128,-1,16
 684 705 684 705 701 705 c 256,17,18
 718 705 718 705 727 697.5 c 128,-1,19
 736 690 736 690 737.5 677.5 c 128,-1,20
 739 665 739 665 730 651 c 2,21,-1
 357 25 l 2,22,23
 347 9 347 9 335.5 1 c 128,-1,24
 324 -7 324 -7 306 -7 c 0,0,1
EndSplineSet
EndChar

StartChar: W
Encoding: 87 87 218
Width: 1101
GlyphClass: 2
Flags: W
AnchorPoint: "Anchor-2" 512 0 basechar 0
AnchorPoint: "Anchor-0" 622 705 basechar 0
LayerCount: 2
Fore
SplineSet
273 -7 m 0,0,1
 255 -7 255 -7 245 3.5 c 128,-1,2
 235 14 235 14 231 35 c 2,3,-1
 112 661 l 2,4,5
 107 685 107 685 118 698.5 c 128,-1,6
 129 712 129 712 150 712 c 0,7,8
 166 712 166 712 176 703 c 128,-1,9
 186 694 186 694 190 673 c 2,10,-1
 300 70 l 1,11,-1
 265 70 l 1,12,-1
 573 679 l 2,13,14
 582 696 582 696 593.5 704 c 128,-1,15
 605 712 605 712 621 712 c 0,16,17
 636 712 636 712 645.5 702 c 128,-1,18
 655 692 655 692 659 669 c 2,19,-1
 770 70 l 1,20,-1
 739 70 l 1,21,-1
 1046 681 l 2,22,23
 1054 697 1054 697 1064.5 704.5 c 128,-1,24
 1075 712 1075 712 1090 712 c 0,25,26
 1115 712 1115 712 1123 696 c 128,-1,27
 1131 680 1131 680 1120 657 c 2,28,-1
 799 26 l 2,29,30
 790 9 790 9 778.5 1 c 128,-1,31
 767 -7 767 -7 748 -7 c 0,32,33
 731 -7 731 -7 720.5 3.5 c 128,-1,34
 710 14 710 14 706 35 c 2,35,-1
 598 610 l 1,36,-1
 619 610 l 1,37,-1
 323 26 l 2,38,39
 314 9 314 9 303 1 c 128,-1,40
 292 -7 292 -7 273 -7 c 0,0,1
EndSplineSet
EndChar

StartChar: X
Encoding: 88 88 223
Width: 650
GlyphClass: 2
Flags: W
AnchorPoint: "Anchor-2" 287 0 basechar 0
AnchorPoint: "Anchor-0" 398 705 basechar 0
LayerCount: 2
Fore
SplineSet
43 -7 m 0,0,1
 27 -7 27 -7 17.5 2 c 128,-1,2
 8 11 8 11 8 25.5 c 128,-1,3
 8 40 8 40 20 54 c 2,4,-1
 307 376 l 1,5,-1
 307 345 l 1,6,-1
 128 652 l 2,7,8
 119 668 119 668 120.5 681.5 c 128,-1,9
 122 695 122 695 132.5 703.5 c 128,-1,10
 143 712 143 712 159 712 c 0,11,12
 174 712 174 712 182.5 705 c 128,-1,13
 191 698 191 698 201 681 c 2,14,-1
 359 404 l 1,15,-1
 340 404 l 1,16,-1
 585 687 l 2,17,18
 597 700 597 700 607 706 c 128,-1,19
 617 712 617 712 632 712 c 256,20,21
 647 712 647 712 657 703 c 128,-1,22
 667 694 667 694 667.5 680 c 128,-1,23
 668 666 668 666 656 652 c 2,24,-1
 380 341 l 1,25,-1
 380 379 l 1,26,-1
 571 53 l 2,27,28
 581 38 581 38 579 24.5 c 128,-1,29
 577 11 577 11 566.5 2 c 128,-1,30
 556 -7 556 -7 540 -7 c 256,31,32
 524 -7 524 -7 515.5 0.5 c 128,-1,33
 507 8 507 8 497 24 c 2,34,-1
 326 319 l 1,35,-1
 353 319 l 1,36,-1
 89 18 l 2,37,38
 77 5 77 5 67 -1 c 128,-1,39
 57 -7 57 -7 43 -7 c 0,0,1
EndSplineSet
EndChar

StartChar: Y
Encoding: 89 89 224
Width: 596
GlyphClass: 2
Flags: W
AnchorPoint: "Anchor-2" 259 0 basechar 0
AnchorPoint: "Anchor-0" 363 705 basechar 0
LayerCount: 2
Fore
SplineSet
258 -7 m 0,0,1
 239 -7 239 -7 230.5 6 c 128,-1,2
 222 19 222 19 224 41 c 2,3,-1
 276 365 l 1,4,-1
 284 308 l 1,5,-1
 90 652 l 2,6,7
 82 668 82 668 83 681.5 c 128,-1,8
 84 695 84 695 94 703.5 c 128,-1,9
 104 712 104 712 120 712 c 256,10,11
 136 712 136 712 145 705 c 128,-1,12
 154 698 154 698 163 681 c 2,13,-1
 327 391 l 1,14,-1
 305 391 l 1,15,-1
 567 687 l 2,16,17
 579 701 579 701 589 706.5 c 128,-1,18
 599 712 599 712 613 712 c 0,19,20
 628 712 628 712 637.5 703 c 128,-1,21
 647 694 647 694 647.5 680 c 128,-1,22
 648 666 648 666 635 652 c 2,23,-1
 330 308 l 1,24,-1
 358 365 l 1,25,-1
 305 34 l 2,26,27
 299 -7 299 -7 258 -7 c 0,0,1
EndSplineSet
EndChar

StartChar: uni01B3
Encoding: 435 435 231
Width: 613
GlyphClass: 1
Flags: W
LayerCount: 2
Fore
SplineSet
259 -7 m 0,0,1
 238 -7 238 -7 229.5 5.5 c 128,-1,2
 221 18 221 18 224 41 c 2,3,-1
 276 365 l 1,4,-1
 284 308 l 1,5,-1
 89 654 l 2,6,7
 81 669 81 669 82.5 682 c 128,-1,8
 84 695 84 695 94.5 703.5 c 128,-1,9
 105 712 105 712 121 712 c 0,10,11
 130 712 130 712 137 709 c 128,-1,12
 144 706 144 706 150.5 699.5 c 128,-1,13
 157 693 157 693 163 681 c 2,14,-1
 327 391 l 1,15,-1
 305 391 l 1,16,-1
 521 635 l 2,17,18
 547 664 547 664 570 681.5 c 128,-1,19
 593 699 593 699 618 706.5 c 128,-1,20
 643 714 643 714 672 714 c 256,21,22
 701 714 701 714 717.5 707 c 128,-1,23
 734 700 734 700 734 680 c 0,24,25
 734 671 734 671 728 663.5 c 128,-1,26
 722 656 722 656 715.5 651.5 c 128,-1,27
 709 647 709 647 707 648 c 0,28,29
 706 648 706 648 694.5 649 c 128,-1,30
 683 650 683 650 677 650 c 0,31,32
 654 650 654 650 633 638.5 c 128,-1,33
 612 627 612 627 588 599 c 2,34,-1
 330 308 l 1,35,-1
 358 365 l 1,36,-1
 306 35 l 2,37,38
 299 -7 299 -7 259 -7 c 0,0,1
EndSplineSet
EndChar

StartChar: Z
Encoding: 90 90 235
Width: 589
GlyphClass: 2
Flags: W
AnchorPoint: "Anchor-2" 279 0 basechar 0
AnchorPoint: "Anchor-0" 369 705 basechar 0
LayerCount: 2
Fore
SplineSet
50 0 m 2,0,1
 37 0 37 0 28 7 c 128,-1,2
 19 14 19 14 16 25 c 128,-1,3
 13 36 13 36 17.5 50.5 c 128,-1,4
 22 65 22 65 35 80 c 2,5,-1
 536 666 l 1,6,-1
 537 634 l 1,7,-1
 146 634 l 2,8,9
 128 634 128 634 118.5 642 c 128,-1,10
 109 650 109 650 109 663 c 0,11,12
 109 685 109 685 121 695 c 128,-1,13
 133 705 133 705 151 705 c 2,14,-1
 582 705 l 2,15,16
 599 705 599 705 609 698 c 128,-1,17
 619 691 619 691 621.5 680 c 128,-1,18
 624 669 624 669 619 654.5 c 128,-1,19
 614 640 614 640 601 626 c 2,20,-1
 99 40 l 1,21,-1
 97 71 l 1,22,-1
 504 71 l 2,23,24
 522 71 522 71 532 64 c 128,-1,25
 542 57 542 57 542 43 c 0,26,27
 542 21 542 21 530 10.5 c 128,-1,28
 518 0 518 0 500 0 c 2,29,-1
 50 0 l 2,0,1
EndSplineSet
EndChar

StartChar: a
Encoding: 97 97 242
Width: 530
GlyphClass: 2
Flags: W
AnchorPoint: "Anchor-3" 401 0 basechar 0
AnchorPoint: "Anchor-2" 236 0 basechar 0
AnchorPoint: "Anchor-0" 305 484 basechar 0
LayerCount: 2
Fore
SplineSet
199 -9 m 0,0,1
 157 -9 157 -9 120.5 10 c 128,-1,2
 84 29 84 29 62 62 c 128,-1,3
 40 95 40 95 40 137 c 0,4,5
 40 189 40 189 68.5 220.5 c 128,-1,6
 97 252 97 252 158 267 c 128,-1,7
 219 282 219 282 315 282 c 2,8,-1
 395 282 l 1,9,-1
 387 229 l 1,10,-1
 326 229 l 2,11,12
 249 229 249 229 204.5 221 c 128,-1,13
 160 213 160 213 141 194 c 128,-1,14
 122 175 122 175 122 142 c 0,15,16
 122 98 122 98 151.5 75 c 128,-1,17
 181 52 181 52 219 52 c 0,18,19
 256 52 256 52 287.5 68 c 128,-1,20
 319 84 319 84 341 115.5 c 128,-1,21
 363 147 363 147 370 190 c 2,22,-1
 389 312 l 2,23,24
 399 370 399 370 374.5 400 c 128,-1,25
 350 430 350 430 286 430 c 0,26,27
 249 430 249 430 216 423 c 128,-1,28
 183 416 183 416 150 397 c 0,29,30
 137 390 137 390 126 391 c 128,-1,31
 115 392 115 392 108 399.5 c 128,-1,32
 101 407 101 407 100 417 c 128,-1,33
 99 427 99 427 105 437 c 128,-1,34
 111 447 111 447 126 455 c 0,35,36
 164 476 164 476 208.5 485.5 c 128,-1,37
 253 495 253 495 295 495 c 0,38,39
 363 495 363 495 403.5 469.5 c 128,-1,40
 444 444 444 444 459 398 c 128,-1,41
 474 352 474 352 464 290 c 2,42,-1
 423 33 l 2,43,44
 421 13 421 13 409.5 3 c 128,-1,45
 398 -7 398 -7 379 -7 c 0,46,47
 361 -7 361 -7 352.5 5 c 128,-1,48
 344 17 344 17 347 39 c 2,49,-1
 360 120 l 1,50,-1
 368 110 l 1,51,52
 355 70 355 70 328.5 43.5 c 128,-1,53
 302 17 302 17 268 4 c 128,-1,54
 234 -9 234 -9 199 -9 c 0,0,1
EndSplineSet
Substitution2: "'ss01' Style Set 1 lookup 35 subtable" a.ss01
Substitution2: "'salt' Stylistic Alternatives lookup 34 subtable" a.ss01
Substitution2: "Single Substitution lookup 29 subtable" ordfeminine
AlternateSubs2: "'aalt' Access All Alternates lookup 1 subtable" a.ss01 ordfeminine
EndChar

StartChar: aogonek
Encoding: 261 261 265
Width: 530
GlyphClass: 1
Flags: W
LayerCount: 2
Fore
SplineSet
367 -192 m 0,0,1
 319 -192 319 -192 294 -166.5 c 128,-1,2
 269 -141 269 -141 269 -103 c 0,3,4
 269 -61 269 -61 292.5 -28 c 128,-1,5
 316 5 316 5 356 27 c 1,6,-1
 349 11 l 1,7,8
 347 17 347 17 346.5 24 c 128,-1,9
 346 31 346 31 347 39 c 2,10,-1
 360 120 l 1,11,-1
 368 110 l 1,12,13
 355 70 355 70 328.5 43.5 c 128,-1,14
 302 17 302 17 268 4 c 128,-1,15
 234 -9 234 -9 199 -9 c 0,16,17
 157 -9 157 -9 120.5 10 c 128,-1,18
 84 29 84 29 62 62 c 128,-1,19
 40 95 40 95 40 137 c 0,20,21
 40 189 40 189 68.5 220.5 c 128,-1,22
 97 252 97 252 158 267 c 128,-1,23
 219 282 219 282 315 282 c 2,24,-1
 395 282 l 1,25,-1
 387 229 l 1,26,-1
 326 229 l 2,27,28
 249 229 249 229 204.5 221 c 128,-1,29
 160 213 160 213 141 194 c 128,-1,30
 122 175 122 175 122 142 c 0,31,32
 122 98 122 98 151.5 75 c 128,-1,33
 181 52 181 52 219 52 c 0,34,35
 256 52 256 52 287.5 68 c 128,-1,36
 319 84 319 84 341 115.5 c 128,-1,37
 363 147 363 147 370 190 c 2,38,-1
 389 312 l 2,39,40
 399 370 399 370 374.5 400 c 128,-1,41
 350 430 350 430 286 430 c 0,42,43
 249 430 249 430 216 423 c 128,-1,44
 183 416 183 416 150 397 c 0,45,46
 137 390 137 390 126 391 c 128,-1,47
 115 392 115 392 108 399.5 c 128,-1,48
 101 407 101 407 100 417 c 128,-1,49
 99 427 99 427 105 437 c 128,-1,50
 111 447 111 447 126 455 c 0,51,52
 164 476 164 476 208.5 485.5 c 128,-1,53
 253 495 253 495 295 495 c 0,54,55
 363 495 363 495 403.5 469.5 c 128,-1,56
 444 444 444 444 459 398 c 128,-1,57
 474 352 474 352 464 290 c 2,58,-1
 423 33 l 2,59,60
 421 17 421 17 413 7.5 c 128,-1,61
 405 -2 405 -2 393 -6 c 0,62,63
 360 -20 360 -20 343.5 -41.5 c 128,-1,64
 327 -63 327 -63 327 -91 c 0,65,66
 327 -114 327 -114 341 -128 c 128,-1,67
 355 -142 355 -142 380 -142 c 0,68,69
 389 -142 389 -142 397.5 -140.5 c 128,-1,70
 406 -139 406 -139 417 -136 c 0,71,72
 429 -132 429 -132 435.5 -137 c 128,-1,73
 442 -142 442 -142 443.5 -151.5 c 128,-1,74
 445 -161 445 -161 441.5 -169.5 c 128,-1,75
 438 -178 438 -178 429 -182 c 0,76,77
 415 -187 415 -187 398 -189.5 c 128,-1,78
 381 -192 381 -192 367 -192 c 0,0,1
EndSplineSet
Substitution2: "'ss01' Style Set 1 lookup 35 subtable" aogonek.ss01
Substitution2: "'salt' Stylistic Alternatives lookup 34 subtable" aogonek.ss01
Substitution2: "'aalt' Access All Alternates lookup 0 subtable" aogonek.ss01
EndChar

StartChar: ae
Encoding: 230 230 269
Width: 861
GlyphClass: 2
Flags: W
AnchorPoint: "Anchor-2" 377 0 basechar 0
AnchorPoint: "Anchor-0" 441 484 basechar 0
LayerCount: 2
Fore
SplineSet
210 -9 m 0,0,1
 166 -9 166 -9 127 8.5 c 128,-1,2
 88 26 88 26 64 58.5 c 128,-1,3
 40 91 40 91 40 137 c 0,4,5
 40 189 40 189 68.5 220.5 c 128,-1,6
 97 252 97 252 158 267 c 128,-1,7
 219 282 219 282 315 282 c 2,8,-1
 395 282 l 1,9,-1
 387 228 l 1,10,-1
 326 228 l 2,11,12
 249 228 249 228 204.5 220 c 128,-1,13
 160 212 160 212 141 193 c 128,-1,14
 122 174 122 174 122 142 c 0,15,16
 122 99 122 99 151.5 76 c 128,-1,17
 181 53 181 53 219 53 c 0,18,19
 256 53 256 53 287.5 67.5 c 128,-1,20
 319 82 319 82 341.5 111 c 128,-1,21
 364 140 364 140 371 183 c 2,22,-1
 390 304 l 2,23,24
 400 367 400 367 375 398.5 c 128,-1,25
 350 430 350 430 286 430 c 0,26,27
 249 430 249 430 216 423 c 128,-1,28
 183 416 183 416 150 397 c 0,29,30
 137 390 137 390 126 391 c 128,-1,31
 115 392 115 392 108 399.5 c 128,-1,32
 101 407 101 407 100 417 c 128,-1,33
 99 427 99 427 105 437 c 128,-1,34
 111 447 111 447 126 455 c 0,35,36
 164 476 164 476 208.5 485.5 c 128,-1,37
 253 495 253 495 295 495 c 0,38,39
 365 495 365 495 406 464 c 128,-1,40
 447 433 447 433 457 374 c 1,41,-1
 426 374 l 1,42,43
 457 429 457 429 509.5 462 c 128,-1,44
 562 495 562 495 633 495 c 0,45,46
 692 495 692 495 731 474.5 c 128,-1,47
 770 454 770 454 792 419.5 c 128,-1,48
 814 385 814 385 821 343 c 128,-1,49
 828 301 828 301 822 259 c 2,50,-1
 820 248 l 2,51,52
 819 239 819 239 812 233.5 c 128,-1,53
 805 228 805 228 794 228 c 2,54,-1
 435 228 l 1,55,-1
 443 282 l 1,56,-1
 772 282 l 1,57,-1
 754 266 l 1,58,59
 761 313 761 313 751 351 c 128,-1,60
 741 389 741 389 712 412 c 128,-1,61
 683 435 683 435 631 435 c 0,62,63
 578 435 578 435 542 410.5 c 128,-1,64
 506 386 506 386 486 348 c 128,-1,65
 466 310 466 310 459 269 c 2,66,-1
 455 245 l 2,67,68
 441 159 441 159 480.5 107.5 c 128,-1,69
 520 56 520 56 602 56 c 0,70,71
 638 56 638 56 671.5 64.5 c 128,-1,72
 705 73 705 73 736 94 c 0,73,74
 749 103 749 103 759.5 102.5 c 128,-1,75
 770 102 770 102 777 95.5 c 128,-1,76
 784 89 784 89 785.5 79.5 c 128,-1,77
 787 70 787 70 782.5 59.5 c 128,-1,78
 778 49 778 49 766 40 c 0,79,80
 732 16 732 16 686 3.5 c 128,-1,81
 640 -9 640 -9 598 -9 c 0,82,83
 512 -9 512 -9 458 31.5 c 128,-1,84
 404 72 404 72 389 144 c 1,85,-1
 415 144 l 1,86,87
 392 65 392 65 335.5 28 c 128,-1,88
 279 -9 279 -9 210 -9 c 0,0,1
EndSplineSet
EndChar

StartChar: b
Encoding: 98 98 271
Width: 583
GlyphClass: 2
Flags: W
AnchorPoint: "Anchor-2" 270 0 basechar 0
AnchorPoint: "Anchor-0" 379 705 basechar 0
LayerCount: 2
Fore
SplineSet
295 -9 m 0,0,1
 237 -9 237 -9 191 20.5 c 128,-1,2
 145 50 145 50 128 110 c 1,3,-1
 136 122 l 1,4,-1
 123 34 l 2,5,6
 120 14 120 14 109 3.5 c 128,-1,7
 98 -7 98 -7 78 -7 c 0,8,9
 59 -7 59 -7 50 5.5 c 128,-1,10
 41 18 41 18 44 41 c 2,11,-1
 144 671 l 2,12,13
 147 692 147 692 159 702 c 128,-1,14
 171 712 171 712 190 712 c 256,15,16
 209 712 209 712 218 699.5 c 128,-1,17
 227 687 227 687 224 664 c 2,18,-1
 179 383 l 1,19,-1
 168 383 l 1,20,21
 194 435 194 435 241.5 465 c 128,-1,22
 289 495 289 495 351 495 c 0,23,24
 408 495 408 495 450.5 470 c 128,-1,25
 493 445 493 445 516 398 c 128,-1,26
 539 351 539 351 539 287 c 0,27,28
 539 207 539 207 510.5 139.5 c 128,-1,29
 482 72 482 72 427.5 31.5 c 128,-1,30
 373 -9 373 -9 295 -9 c 0,0,1
285 56 m 0,31,32
 341 56 341 56 379 87 c 128,-1,33
 417 118 417 118 437 170 c 128,-1,34
 457 222 457 222 457 284 c 0,35,36
 457 356 457 356 422 393 c 128,-1,37
 387 430 387 430 326 430 c 0,38,39
 271 430 271 430 232.5 399 c 128,-1,40
 194 368 194 368 174 317 c 128,-1,41
 154 266 154 266 154 202 c 0,42,43
 154 131 154 131 189 93.5 c 128,-1,44
 224 56 224 56 285 56 c 0,31,32
EndSplineSet
EndChar

StartChar: uni0253
Encoding: 595 595 272
Width: 583
GlyphClass: 1
Flags: W
LayerCount: 2
Fore
SplineSet
295 -9 m 0,0,1
 237 -9 237 -9 191 20.5 c 128,-1,2
 145 50 145 50 128 110 c 1,3,-1
 136 122 l 1,4,-1
 122 33 l 2,5,6
 119 13 119 13 108.5 3 c 128,-1,7
 98 -7 98 -7 78 -7 c 0,8,9
 59 -7 59 -7 49.5 5.5 c 128,-1,10
 40 18 40 18 43 41 c 2,11,-1
 124 547 l 2,12,13
 138 634 138 634 183.5 674 c 128,-1,14
 229 714 229 714 312 714 c 0,15,16
 345 714 345 714 358 705.5 c 128,-1,17
 371 697 371 697 371 680 c 0,18,19
 371 666 371 666 363 656 c 128,-1,20
 355 646 355 646 343 646 c 0,21,22
 339 646 339 646 330 647 c 128,-1,23
 321 648 321 648 313 648 c 0,24,25
 269 648 269 648 241 622.5 c 128,-1,26
 213 597 213 597 205 546 c 2,27,-1
 179 383 l 1,28,-1
 168 383 l 1,29,30
 194 435 194 435 241.5 465 c 128,-1,31
 289 495 289 495 351 495 c 0,32,33
 408 495 408 495 450.5 470 c 128,-1,34
 493 445 493 445 516 398 c 128,-1,35
 539 351 539 351 539 287 c 0,36,37
 539 207 539 207 510.5 139.5 c 128,-1,38
 482 72 482 72 427.5 31.5 c 128,-1,39
 373 -9 373 -9 295 -9 c 0,0,1
285 56 m 0,40,41
 341 56 341 56 379 87 c 128,-1,42
 417 118 417 118 437 170 c 128,-1,43
 457 222 457 222 457 284 c 0,44,45
 457 356 457 356 422 393 c 128,-1,46
 387 430 387 430 326 430 c 0,47,48
 271 430 271 430 232.5 399 c 128,-1,49
 194 368 194 368 174 317 c 128,-1,50
 154 266 154 266 154 202 c 0,51,52
 154 131 154 131 189 93.5 c 128,-1,53
 224 56 224 56 285 56 c 0,40,41
EndSplineSet
EndChar

StartChar: c
Encoding: 99 99 273
Width: 463
GlyphClass: 2
Flags: W
AnchorPoint: "Anchor-2" 240 0 basechar 0
AnchorPoint: "Anchor-0" 303 484 basechar 0
LayerCount: 2
Fore
SplineSet
258 -9 m 0,0,1
 186 -9 186 -9 139 18 c 128,-1,2
 92 45 92 45 68.5 94 c 128,-1,3
 45 143 45 143 45 207 c 0,4,5
 45 261 45 261 60 312.5 c 128,-1,6
 75 364 75 364 107 405 c 128,-1,7
 139 446 139 446 188 470.5 c 128,-1,8
 237 495 237 495 305 495 c 0,9,10
 343 495 343 495 378.5 485 c 128,-1,11
 414 475 414 475 440 457 c 0,12,13
 454 449 454 449 460 437.5 c 128,-1,14
 466 426 466 426 464 415.5 c 128,-1,15
 462 405 462 405 455.5 397.5 c 128,-1,16
 449 390 449 390 439 389 c 128,-1,17
 429 388 429 388 418 395 c 0,18,19
 393 413 393 413 366 421 c 128,-1,20
 339 429 339 429 308 429 c 0,21,22
 259 429 259 429 225 410 c 128,-1,23
 191 391 191 391 169.5 359 c 128,-1,24
 148 327 148 327 138 287.5 c 128,-1,25
 128 248 128 248 128 208 c 0,26,27
 128 140 128 140 160.5 98.5 c 128,-1,28
 193 57 193 57 268 57 c 0,29,30
 292 57 292 57 318 64.5 c 128,-1,31
 344 72 344 72 370 89 c 0,32,33
 380 96 380 96 390 94.5 c 128,-1,34
 400 93 400 93 406.5 86 c 128,-1,35
 413 79 413 79 415 69.5 c 128,-1,36
 417 60 417 60 413.5 50 c 128,-1,37
 410 40 410 40 398 32 c 0,38,39
 371 13 371 13 332 2 c 128,-1,40
 293 -9 293 -9 258 -9 c 0,0,1
EndSplineSet
EndChar

StartChar: d
Encoding: 100 100 280
Width: 583
GlyphClass: 2
Flags: W
AnchorPoint: "Anchor-5" 293 245 basechar 0
AnchorPoint: "Anchor-4" 472 584 basechar 0
AnchorPoint: "Anchor-2" 258 0 basechar 0
AnchorPoint: "Anchor-1" 626 705 basechar 0
AnchorPoint: "Anchor-0" 342 536 basechar 0
LayerCount: 2
Fore
SplineSet
231 -9 m 0,0,1
 175 -9 175 -9 133 16.5 c 128,-1,2
 91 42 91 42 67.5 89 c 128,-1,3
 44 136 44 136 44 199 c 0,4,5
 44 280 44 280 72.5 347.5 c 128,-1,6
 101 415 101 415 155.5 455 c 128,-1,7
 210 495 210 495 288 495 c 0,8,9
 346 495 346 495 392 466 c 128,-1,10
 438 437 438 437 455 376 c 1,11,-1
 448 377 l 1,12,-1
 495 673 l 2,13,14
 498 693 498 693 509.5 702.5 c 128,-1,15
 521 712 521 712 541 712 c 0,16,17
 560 712 560 712 569 700 c 128,-1,18
 578 688 578 688 574 665 c 2,19,-1
 474 34 l 2,20,21
 471 14 471 14 459.5 3.5 c 128,-1,22
 448 -7 448 -7 428 -7 c 0,23,24
 409 -7 409 -7 400.5 6 c 128,-1,25
 392 19 392 19 396 42 c 2,26,-1
 408 117 l 1,27,-1
 415 103 l 1,28,29
 389 52 389 52 341.5 21.5 c 128,-1,30
 294 -9 294 -9 231 -9 c 0,0,1
257 56 m 0,31,32
 313 56 313 56 351 87 c 128,-1,33
 389 118 389 118 409 170 c 128,-1,34
 429 222 429 222 429 284 c 0,35,36
 429 356 429 356 394 393 c 128,-1,37
 359 430 359 430 298 430 c 0,38,39
 243 430 243 430 204.5 399 c 128,-1,40
 166 368 166 368 146 317 c 128,-1,41
 126 266 126 266 126 202 c 0,42,43
 126 131 126 131 161 93.5 c 128,-1,44
 196 56 196 56 257 56 c 0,31,32
EndSplineSet
EndChar

StartChar: eth
Encoding: 240 240 281
Width: 560
GlyphClass: 1
Flags: W
LayerCount: 2
Fore
SplineSet
253 -9 m 0,0,1
 193 -9 193 -9 145 15 c 128,-1,2
 97 39 97 39 69 84 c 128,-1,3
 41 129 41 129 41 188 c 0,4,5
 41 266 41 266 73.5 325.5 c 128,-1,6
 106 385 106 385 162.5 418.5 c 128,-1,7
 219 452 219 452 289 452 c 0,8,9
 336 452 336 452 374 435.5 c 128,-1,10
 412 419 412 419 436.5 385.5 c 128,-1,11
 461 352 461 352 465 299 c 1,12,-1
 448 299 l 1,13,14
 453 397 453 397 423.5 473.5 c 128,-1,15
 394 550 394 550 332 598 c 1,16,-1
 347 596 l 1,17,-1
 207 535 l 2,18,19
 195 530 195 530 186 534 c 128,-1,20
 177 538 177 538 173.5 547 c 128,-1,21
 170 556 170 556 173 565.5 c 128,-1,22
 176 575 176 575 188 580 c 2,23,-1
 301 628 l 1,24,-1
 300 619 l 1,25,26
 283 629 283 629 263 638 c 128,-1,27
 243 647 243 647 221 654 c 0,28,29
 205 659 205 659 199.5 669.5 c 128,-1,30
 194 680 194 680 196.5 690.5 c 128,-1,31
 199 701 199 701 210 706.5 c 128,-1,32
 221 712 221 712 239 708 c 0,33,34
 276 697 276 697 308.5 683 c 128,-1,35
 341 669 341 669 368 649 c 1,36,-1
 351 651 l 1,37,-1
 482 706 l 2,38,39
 495 712 495 712 504.5 708 c 128,-1,40
 514 704 514 704 517.5 695 c 128,-1,41
 521 686 521 686 517.5 676.5 c 128,-1,42
 514 667 514 667 501 662 c 2,43,-1
 395 617 l 1,44,-1
 397 627 l 1,45,46
 440 590 440 590 467.5 541.5 c 128,-1,47
 495 493 495 493 508 436 c 128,-1,48
 521 379 521 379 520 314 c 0,49,50
 520 251 520 251 504.5 193 c 128,-1,51
 489 135 489 135 457 89.5 c 128,-1,52
 425 44 425 44 374 17.5 c 128,-1,53
 323 -9 323 -9 253 -9 c 0,0,1
259 57 m 0,54,55
 307 57 307 57 345 80 c 128,-1,56
 383 103 383 103 406 147 c 128,-1,57
 429 191 429 191 429 253 c 0,58,59
 429 317 429 317 393 352 c 128,-1,60
 357 387 357 387 294 387 c 0,61,62
 247 387 247 387 208 364 c 128,-1,63
 169 341 169 341 146 297.5 c 128,-1,64
 123 254 123 254 123 191 c 256,65,66
 123 128 123 128 159.5 92.5 c 128,-1,67
 196 57 196 57 259 57 c 0,54,55
EndSplineSet
EndChar

StartChar: dcroat
Encoding: 273 273 283
Width: 583
GlyphClass: 1
Flags: W
LayerCount: 2
Fore
SplineSet
231 -9 m 0,0,1
 175 -9 175 -9 133 16.5 c 128,-1,2
 91 42 91 42 67.5 89 c 128,-1,3
 44 136 44 136 44 199 c 0,4,5
 44 280 44 280 72.5 347.5 c 128,-1,6
 101 415 101 415 155.5 455 c 128,-1,7
 210 495 210 495 288 495 c 0,8,9
 346 495 346 495 392 466 c 128,-1,10
 438 437 438 437 455 376 c 1,11,-1
 447 377 l 1,12,-1
 475 554 l 1,13,-1
 315 554 l 2,14,15
 299 554 299 554 290 560 c 128,-1,16
 281 566 281 566 281 578 c 0,17,18
 281 596 281 596 291.5 605 c 128,-1,19
 302 614 302 614 319 614 c 2,20,-1
 501 614 l 1,21,-1
 480 580 l 1,22,-1
 495 672 l 2,23,24
 498 693 498 693 509.5 702.5 c 128,-1,25
 521 712 521 712 541 712 c 0,26,27
 560 712 560 712 569 700.5 c 128,-1,28
 578 689 578 689 574 666 c 2,29,-1
 560 580 l 1,30,-1
 550 614 l 1,31,-1
 624 614 l 2,32,33
 641 614 641 614 650 607.5 c 128,-1,34
 659 601 659 601 659 589 c 0,35,36
 659 572 659 572 648.5 563 c 128,-1,37
 638 554 638 554 621 554 c 2,38,-1
 556 554 l 1,39,-1
 474 34 l 2,40,41
 471 14 471 14 459.5 3.5 c 128,-1,42
 448 -7 448 -7 427 -7 c 0,43,44
 408 -7 408 -7 400 6 c 128,-1,45
 392 19 392 19 396 42 c 2,46,-1
 408 117 l 1,47,-1
 415 103 l 1,48,49
 389 52 389 52 341.5 21.5 c 128,-1,50
 294 -9 294 -9 231 -9 c 0,0,1
257 56 m 0,51,52
 313 56 313 56 351 87 c 128,-1,53
 389 118 389 118 409 170 c 128,-1,54
 429 222 429 222 429 284 c 0,55,56
 429 356 429 356 394 393 c 128,-1,57
 359 430 359 430 298 430 c 0,58,59
 243 430 243 430 204.5 399 c 128,-1,60
 166 368 166 368 146 317 c 128,-1,61
 126 266 126 266 126 202 c 0,62,63
 126 131 126 131 161 93.5 c 128,-1,64
 196 56 196 56 257 56 c 0,51,52
EndSplineSet
EndChar

StartChar: uni0257
Encoding: 599 599 285
Width: 583
GlyphClass: 1
Flags: W
LayerCount: 2
Fore
SplineSet
231 -9 m 0,0,1
 175 -9 175 -9 133 16.5 c 128,-1,2
 91 42 91 42 67.5 89 c 128,-1,3
 44 136 44 136 44 199 c 0,4,5
 44 280 44 280 72.5 347.5 c 128,-1,6
 101 415 101 415 155.5 455 c 128,-1,7
 210 495 210 495 288 495 c 0,8,9
 346 495 346 495 392 466 c 128,-1,10
 438 437 438 437 455 376 c 1,11,-1
 448 377 l 1,12,-1
 475 547 l 2,13,14
 488 634 488 634 533.5 674 c 128,-1,15
 579 714 579 714 661 714 c 0,16,17
 694 714 694 714 707.5 705.5 c 128,-1,18
 721 697 721 697 721 680 c 0,19,20
 721 666 721 666 713 656 c 128,-1,21
 705 646 705 646 693 646 c 0,22,23
 689 646 689 646 680 647 c 128,-1,24
 671 648 671 648 663 648 c 0,25,26
 618 648 618 648 591 622.5 c 128,-1,27
 564 597 564 597 555 545 c 2,28,-1
 474 34 l 2,29,30
 471 14 471 14 459.5 3.5 c 128,-1,31
 448 -7 448 -7 428 -7 c 0,32,33
 409 -7 409 -7 400.5 6 c 128,-1,34
 392 19 392 19 396 42 c 2,35,-1
 408 117 l 1,36,-1
 415 103 l 1,37,38
 389 52 389 52 341.5 21.5 c 128,-1,39
 294 -9 294 -9 231 -9 c 0,0,1
257 56 m 0,40,41
 313 56 313 56 351 87 c 128,-1,42
 389 118 389 118 409 170 c 128,-1,43
 429 222 429 222 429 284 c 0,44,45
 429 356 429 356 394 393 c 128,-1,46
 359 430 359 430 298 430 c 0,47,48
 243 430 243 430 204.5 399 c 128,-1,49
 166 368 166 368 146 317 c 128,-1,50
 126 266 126 266 126 202 c 0,51,52
 126 131 126 131 161 93.5 c 128,-1,53
 196 56 196 56 257 56 c 0,40,41
EndSplineSet
EndChar

StartChar: e
Encoding: 101 101 288
Width: 532
GlyphClass: 2
Flags: W
AnchorPoint: "Anchor-3" 320 0 basechar 0
AnchorPoint: "Anchor-2" 250 0 basechar 0
AnchorPoint: "Anchor-0" 312 484 basechar 0
LayerCount: 2
Fore
SplineSet
270 -9 m 0,0,1
 201 -9 201 -9 150 17 c 128,-1,2
 99 43 99 43 71.5 91.5 c 128,-1,3
 44 140 44 140 44 206 c 0,4,5
 44 285 44 285 76 350.5 c 128,-1,6
 108 416 108 416 166 455.5 c 128,-1,7
 224 495 224 495 304 495 c 0,8,9
 361 495 361 495 399.5 475 c 128,-1,10
 438 455 438 455 461 421 c 128,-1,11
 484 387 484 387 491 343.5 c 128,-1,12
 498 300 498 300 493 254 c 0,13,14
 491 237 491 237 484 231.5 c 128,-1,15
 477 226 477 226 462 226 c 2,16,-1
 107 226 l 1,17,-1
 115 279 l 1,18,-1
 443 279 l 1,19,-1
 425 266 l 1,20,21
 432 313 432 313 422 351 c 128,-1,22
 412 389 412 389 383 412 c 128,-1,23
 354 435 354 435 303 435 c 0,24,25
 249 435 249 435 213 410.5 c 128,-1,26
 177 386 177 386 156.5 348 c 128,-1,27
 136 310 136 310 129 269 c 2,28,-1
 125 245 l 2,29,30
 111 160 111 160 151 108 c 128,-1,31
 191 56 191 56 274 56 c 0,32,33
 310 56 310 56 344 65 c 128,-1,34
 378 74 378 74 408 94 c 0,35,36
 422 103 422 103 432.5 102.5 c 128,-1,37
 443 102 443 102 449.5 95.5 c 128,-1,38
 456 89 456 89 457.5 79.5 c 128,-1,39
 459 70 459 70 454.5 59.5 c 128,-1,40
 450 49 450 49 438 40 c 0,41,42
 404 16 404 16 358 3.5 c 128,-1,43
 312 -9 312 -9 270 -9 c 0,0,1
EndSplineSet
EndChar

StartChar: uni0259
Encoding: 601 601 311
Width: 532
GlyphClass: 1
Flags: W
LayerCount: 2
Fore
SplineSet
229 -9 m 0,0,1
 151 -9 151 -9 106.5 26.5 c 128,-1,2
 62 62 62 62 46.5 118 c 128,-1,3
 31 174 31 174 40 236 c 0,4,5
 43 250 43 250 50 255.5 c 128,-1,6
 57 261 57 261 70 261 c 2,7,-1
 426 261 l 1,8,-1
 417 207 l 1,9,-1
 89 207 l 1,10,-1
 110 221 l 1,11,12
 104 175 104 175 113.5 136.5 c 128,-1,13
 123 98 123 98 152 74.5 c 128,-1,14
 181 51 181 51 230 51 c 0,15,16
 285 51 285 51 321 75.5 c 128,-1,17
 357 100 357 100 377 138.5 c 128,-1,18
 397 177 397 177 403 217 c 2,19,-1
 407 241 l 2,20,21
 421 327 421 327 382.5 378.5 c 128,-1,22
 344 430 344 430 259 430 c 0,23,24
 223 430 223 430 187.5 420.5 c 128,-1,25
 152 411 152 411 124 390 c 0,26,27
 110 381 110 381 100 381.5 c 128,-1,28
 90 382 90 382 83 388 c 128,-1,29
 76 394 76 394 74 404 c 128,-1,30
 72 414 72 414 76 424.5 c 128,-1,31
 80 435 80 435 90 443 c 0,32,33
 123 469 123 469 171.5 482 c 128,-1,34
 220 495 220 495 264 495 c 0,35,36
 334 495 334 495 384 469 c 128,-1,37
 434 443 434 443 461 395 c 128,-1,38
 488 347 488 347 488 281 c 0,39,40
 488 202 488 202 456.5 136 c 128,-1,41
 425 70 425 70 367 30.5 c 128,-1,42
 309 -9 309 -9 229 -9 c 0,0,1
EndSplineSet
EndChar

StartChar: f
Encoding: 102 102 314
Width: 333
GlyphClass: 2
Flags: W
AnchorPoint: "Anchor-2" 104 0 basechar 0
AnchorPoint: "Anchor-0" 216 705 basechar 0
LayerCount: 2
Fore
SplineSet
103 -7 m 0,0,1
 84 -7 84 -7 75.5 5.5 c 128,-1,2
 67 18 67 18 70 41 c 2,3,-1
 131 423 l 1,4,-1
 71 423 l 2,5,6
 55 423 55 423 47 429.5 c 128,-1,7
 39 436 39 436 39 448 c 0,8,9
 39 466 39 466 49.5 476 c 128,-1,10
 60 486 60 486 78 486 c 2,11,-1
 152 486 l 1,12,-1
 139 475 l 1,13,-1
 146 524 l 2,14,15
 159 605 159 605 210 652.5 c 128,-1,16
 261 700 261 700 351 705 c 2,17,-1
 382 707 l 2,18,19
 396 708 396 708 403.5 702.5 c 128,-1,20
 411 697 411 697 414 687.5 c 128,-1,21
 417 678 417 678 414.5 668.5 c 128,-1,22
 412 659 412 659 405.5 652 c 128,-1,23
 399 645 399 645 388 644 c 2,24,-1
 358 642 l 2,25,26
 300 638 300 638 268 608.5 c 128,-1,27
 236 579 236 579 227 522 c 2,28,-1
 220 478 l 1,29,-1
 213 486 l 1,30,-1
 326 486 l 2,31,32
 342 486 342 486 350 480 c 128,-1,33
 358 474 358 474 358 462 c 0,34,35
 358 443 358 443 347.5 433 c 128,-1,36
 337 423 337 423 319 423 c 2,37,-1
 212 423 l 1,38,-1
 150 33 l 2,39,40
 143 -7 143 -7 103 -7 c 0,0,1
EndSplineSet
EndChar

StartChar: g
Encoding: 103 103 315
Width: 586
GlyphClass: 2
Flags: W
AnchorPoint: "Anchor-0" 330 484 basechar 0
LayerCount: 2
Fore
SplineSet
248 -189 m 0,0,1
 190 -189 190 -189 139.5 -173 c 128,-1,2
 89 -157 89 -157 49 -131 c 0,3,4
 38 -124 38 -124 34.5 -114 c 128,-1,5
 31 -104 31 -104 34 -94.5 c 128,-1,6
 37 -85 37 -85 44 -78 c 128,-1,7
 51 -71 51 -71 61.5 -69.5 c 128,-1,8
 72 -68 72 -68 84 -75 c 0,9,10
 119 -98 119 -98 156 -111 c 128,-1,11
 193 -124 193 -124 239 -124 c 0,12,13
 303 -124 303 -124 343 -92 c 128,-1,14
 383 -60 383 -60 394 9 c 2,15,-1
 413 124 l 1,16,-1
 421 123 l 1,17,18
 396 71 396 71 348.5 41 c 128,-1,19
 301 11 301 11 238 11 c 0,20,21
 180 11 180 11 136.5 35.5 c 128,-1,22
 93 60 93 60 68.5 105 c 128,-1,23
 44 150 44 150 44 210 c 0,24,25
 44 266 44 266 60.5 317.5 c 128,-1,26
 77 369 77 369 109 409 c 128,-1,27
 141 449 141 449 186.5 472 c 128,-1,28
 232 495 232 495 290 495 c 0,29,30
 350 495 350 495 396 466 c 128,-1,31
 442 437 442 437 459 376 c 1,32,-1
 449 363 l 1,33,-1
 463 454 l 2,34,35
 467 474 467 474 478.5 483.5 c 128,-1,36
 490 493 490 493 510 493 c 0,37,38
 528 493 528 493 536.5 481 c 128,-1,39
 545 469 545 469 542 446 c 2,40,-1
 473 13 l 2,41,42
 457 -87 457 -87 401 -138 c 128,-1,43
 345 -189 345 -189 248 -189 c 0,0,1
259 77 m 0,44,45
 316 77 316 77 354.5 107 c 128,-1,46
 393 137 393 137 413 187 c 128,-1,47
 433 237 433 237 433 294 c 0,48,49
 433 358 433 358 398 394 c 128,-1,50
 363 430 363 430 300 430 c 0,51,52
 244 430 244 430 205 399.5 c 128,-1,53
 166 369 166 369 146 320 c 128,-1,54
 126 271 126 271 126 214 c 0,55,56
 126 148 126 148 161 112.5 c 128,-1,57
 196 77 196 77 259 77 c 0,44,45
EndSplineSet
EndChar

StartChar: uni01E5
Encoding: 485 485 322
Width: 586
GlyphClass: 1
Flags: W
LayerCount: 2
Fore
SplineSet
249 -189 m 0,0,1
 190 -189 190 -189 140 -173 c 128,-1,2
 90 -157 90 -157 50 -131 c 0,3,4
 38 -124 38 -124 35 -114 c 128,-1,5
 32 -104 32 -104 34.5 -94.5 c 128,-1,6
 37 -85 37 -85 44 -78 c 128,-1,7
 51 -71 51 -71 61.5 -69.5 c 128,-1,8
 72 -68 72 -68 84 -75 c 0,9,10
 120 -98 120 -98 157 -111 c 128,-1,11
 194 -124 194 -124 239 -124 c 0,12,13
 287 -124 287 -124 321.5 -105.5 c 128,-1,14
 356 -87 356 -87 375 -50 c 1,15,-1
 379 -60 l 1,16,-1
 284 -60 l 2,17,18
 268 -60 268 -60 261 -52.5 c 128,-1,19
 254 -45 254 -45 254 -33 c 0,20,21
 254 -18 254 -18 264 -11 c 128,-1,22
 274 -4 274 -4 286 -4 c 2,23,-1
 399 -4 l 1,24,-1
 390 -15 l 1,25,26
 391 -8 391 -8 393 -1 c 128,-1,27
 395 6 395 6 396 12 c 2,28,-1
 418 152 l 1,29,-1
 423 151 l 1,30,31
 399 98 399 98 349.5 67.5 c 128,-1,32
 300 37 300 37 236 37 c 0,33,34
 178 37 178 37 135.5 62 c 128,-1,35
 93 87 93 87 69.5 129.5 c 128,-1,36
 46 172 46 172 46 226 c 256,37,38
 46 280 46 280 63.5 328.5 c 128,-1,39
 81 377 81 377 113 414.5 c 128,-1,40
 145 452 145 452 190.5 473.5 c 128,-1,41
 236 495 236 495 293 495 c 0,42,43
 354 495 354 495 399.5 465.5 c 128,-1,44
 445 436 445 436 460 377 c 1,45,-1
 450 363 l 1,46,-1
 464 454 l 2,47,48
 468 474 468 474 479.5 483.5 c 128,-1,49
 491 493 491 493 510 493 c 256,50,51
 529 493 529 493 537 481 c 128,-1,52
 545 469 545 469 542 446 c 2,53,-1
 475 18 l 2,54,55
 474 10 474 10 472 2.5 c 128,-1,56
 470 -5 470 -5 468 -13 c 1,57,-1
 463 -4 l 1,58,-1
 508 -4 l 2,59,60
 524 -4 524 -4 531.5 -11.5 c 128,-1,61
 539 -19 539 -19 539 -31 c 0,62,63
 539 -46 539 -46 529 -53 c 128,-1,64
 519 -60 519 -60 506 -60 c 2,65,-1
 444 -60 l 1,66,-1
 458 -51 l 1,67,68
 432 -120 432 -120 381 -154.5 c 128,-1,69
 330 -189 330 -189 249 -189 c 0,0,1
261 102 m 0,70,71
 316 102 316 102 355 130 c 128,-1,72
 394 158 394 158 415 203.5 c 128,-1,73
 436 249 436 249 436 303 c 0,74,75
 436 362 436 362 401 396 c 128,-1,76
 366 430 366 430 303 430 c 0,77,78
 249 430 249 430 210 402 c 128,-1,79
 171 374 171 374 149.5 328.5 c 128,-1,80
 128 283 128 283 128 230 c 0,81,82
 128 171 128 171 163 136.5 c 128,-1,83
 198 102 198 102 261 102 c 0,70,71
EndSplineSet
EndChar

StartChar: h
Encoding: 104 104 323
Width: 568
GlyphClass: 2
Flags: W
AnchorPoint: "Anchor-5" 285 246 basechar 0
AnchorPoint: "Anchor-4" 220 584 basechar 0
AnchorPoint: "Anchor-2" 252 0 basechar 0
AnchorPoint: "Anchor-1" 265 705 basechar 0
AnchorPoint: "Anchor-0" 358 705 basechar 0
LayerCount: 2
Fore
SplineSet
77 -7 m 0,0,1
 58 -7 58 -7 49 6 c 128,-1,2
 40 19 40 19 44 42 c 2,3,-1
 143 671 l 2,4,5
 147 692 147 692 158.5 702 c 128,-1,6
 170 712 170 712 190 712 c 0,7,8
 209 712 209 712 218 700 c 128,-1,9
 227 688 227 688 223 665 c 2,10,-1
 177 376 l 1,11,-1
 166 376 l 1,12,13
 191 433 191 433 239.5 464 c 128,-1,14
 288 495 288 495 355 495 c 0,15,16
 409 495 409 495 445.5 473.5 c 128,-1,17
 482 452 482 452 497.5 407.5 c 128,-1,18
 513 363 513 363 502 294 c 2,19,-1
 462 34 l 2,20,21
 459 14 459 14 447 3.5 c 128,-1,22
 435 -7 435 -7 415 -7 c 0,23,24
 396 -7 396 -7 387 5.5 c 128,-1,25
 378 18 378 18 381 41 c 2,26,-1
 421 294 l 2,27,28
 433 362 433 362 410 395.5 c 128,-1,29
 387 429 387 429 331 429 c 0,30,31
 258 429 258 429 215 384 c 128,-1,32
 172 339 172 339 160 264 c 2,33,-1
 124 34 l 2,34,35
 118 -7 118 -7 77 -7 c 0,0,1
EndSplineSet
EndChar

StartChar: hbar
Encoding: 295 295 324
Width: 568
GlyphClass: 1
Flags: W
LayerCount: 2
Fore
SplineSet
77 -7 m 0,0,1
 58 -7 58 -7 49 5.5 c 128,-1,2
 40 18 40 18 43 41 c 2,3,-1
 125 554 l 1,4,-1
 68 554 l 2,5,6
 52 554 52 554 43.5 561 c 128,-1,7
 35 568 35 568 36 581 c 0,8,9
 38 614 38 614 73 614 c 2,10,-1
 156 614 l 1,11,-1
 131 586 l 1,12,-1
 144 672 l 2,13,14
 147 694 147 694 159 703 c 128,-1,15
 171 712 171 712 191 712 c 0,16,17
 210 712 210 712 219 701 c 128,-1,18
 228 690 228 690 224 666 c 2,19,-1
 211 582 l 1,20,-1
 199 614 l 1,21,-1
 372 614 l 2,22,23
 390 614 390 614 399 607 c 128,-1,24
 408 600 408 600 406 586 c 0,25,26
 403 554 403 554 369 554 c 2,27,-1
 206 554 l 1,28,-1
 178 376 l 1,29,-1
 166 376 l 1,30,31
 192 433 192 433 240 464 c 128,-1,32
 288 495 288 495 355 495 c 0,33,34
 409 495 409 495 445.5 473.5 c 128,-1,35
 482 452 482 452 497.5 407.5 c 128,-1,36
 513 363 513 363 502 294 c 2,37,-1
 462 34 l 2,38,39
 459 14 459 14 447 3.5 c 128,-1,40
 435 -7 435 -7 415 -7 c 0,41,42
 396 -7 396 -7 387 5.5 c 128,-1,43
 378 18 378 18 381 41 c 2,44,-1
 421 294 l 2,45,46
 433 362 433 362 410 395.5 c 128,-1,47
 387 429 387 429 331 429 c 0,48,49
 258 429 258 429 215 384 c 128,-1,50
 172 339 172 339 160 264 c 2,51,-1
 124 34 l 2,52,53
 118 -7 118 -7 77 -7 c 0,0,1
EndSplineSet
EndChar

StartChar: i
Encoding: 105 105 329
Width: 232
GlyphClass: 2
Flags: W
AnchorPoint: "Anchor-3" 106 0 basechar 0
AnchorPoint: "Anchor-2" 78 0 basechar 0
LayerCount: 2
Fore
SplineSet
76 -7 m 0,0,1
 57 -7 57 -7 48.5 5.5 c 128,-1,2
 40 18 40 18 43 41 c 2,3,-1
 109 453 l 2,4,5
 112 473 112 473 123.5 483 c 128,-1,6
 135 493 135 493 155 493 c 0,7,8
 174 493 174 493 183 481 c 128,-1,9
 192 469 192 469 188 446 c 2,10,-1
 123 33 l 2,11,12
 120 13 120 13 108.5 3 c 128,-1,13
 97 -7 97 -7 76 -7 c 0,0,1
175 603 m 0,14,15
 151 603 151 603 139 615 c 128,-1,16
 127 627 127 627 129 648 c 0,17,18
 130 674 130 674 146.5 688 c 128,-1,19
 163 702 163 702 190 702 c 0,20,21
 214 702 214 702 226 690.5 c 128,-1,22
 238 679 238 679 236 657 c 0,23,24
 234 631 234 631 218 617 c 128,-1,25
 202 603 202 603 175 603 c 0,14,15
EndSplineSet
Substitution2: "'locl' Localized Forms in Latin lookup 10 subtable" i.loclTRK
Substitution2: "Single Substitution lookup 4 subtable" dotlessi
Substitution2: "Single Substitution lookup 3 subtable" dotlessi
Substitution2: "'aalt' Access All Alternates lookup 0 subtable" i.loclTRK
EndChar

StartChar: dotlessi
Encoding: 305 305 330
Width: 232
GlyphClass: 2
Flags: W
AnchorPoint: "Anchor-3" 106 0 basechar 0
AnchorPoint: "Anchor-2" 78 0 basechar 0
AnchorPoint: "Anchor-0" 155 484 basechar 0
LayerCount: 2
Fore
SplineSet
76 -7 m 0,0,1
 57 -7 57 -7 48.5 5.5 c 128,-1,2
 40 18 40 18 43 41 c 2,3,-1
 109 453 l 2,4,5
 112 473 112 473 123.5 483 c 128,-1,6
 135 493 135 493 155 493 c 0,7,8
 174 493 174 493 183 481 c 128,-1,9
 192 469 192 469 188 446 c 2,10,-1
 123 33 l 2,11,12
 120 13 120 13 108.5 3 c 128,-1,13
 97 -7 97 -7 76 -7 c 0,0,1
EndSplineSet
EndChar

StartChar: iogonek
Encoding: 303 303 343
Width: 232
GlyphClass: 1
Flags: W
LayerCount: 2
Fore
SplineSet
72 -192 m 0,0,1
 24 -192 24 -192 -1 -166.5 c 128,-1,2
 -26 -141 -26 -141 -26 -103 c 0,3,4
 -26 -61 -26 -61 -3 -29 c 128,-1,5
 20 3 20 3 56 24 c 1,6,-1
 49 4 l 1,7,8
 45 12 45 12 43.5 21 c 128,-1,9
 42 30 42 30 43 41 c 2,10,-1
 109 453 l 2,11,12
 112 473 112 473 123.5 483 c 128,-1,13
 135 493 135 493 155 493 c 0,14,15
 174 493 174 493 183 481 c 128,-1,16
 192 469 192 469 188 446 c 2,17,-1
 123 33 l 2,18,19
 121 20 121 20 114.5 10.5 c 128,-1,20
 108 1 108 1 96 -4 c 0,21,22
 65 -20 65 -20 48.5 -42 c 128,-1,23
 32 -64 32 -64 32 -91 c 0,24,25
 32 -114 32 -114 45.5 -128 c 128,-1,26
 59 -142 59 -142 85 -142 c 0,27,28
 94 -142 94 -142 102.5 -140.5 c 128,-1,29
 111 -139 111 -139 122 -136 c 0,30,31
 134 -132 134 -132 140.5 -137 c 128,-1,32
 147 -142 147 -142 148.5 -151.5 c 128,-1,33
 150 -161 150 -161 146.5 -169.5 c 128,-1,34
 143 -178 143 -178 134 -182 c 0,35,36
 120 -187 120 -187 103 -189.5 c 128,-1,37
 86 -192 86 -192 72 -192 c 0,0,1
175 603 m 0,38,39
 151 603 151 603 139 615 c 128,-1,40
 127 627 127 627 129 648 c 0,41,42
 130 674 130 674 146.5 688 c 128,-1,43
 163 702 163 702 190 702 c 0,44,45
 214 702 214 702 226 690.5 c 128,-1,46
 238 679 238 679 236 657 c 0,47,48
 234 631 234 631 218 617 c 128,-1,49
 202 603 202 603 175 603 c 0,38,39
EndSplineSet
EndChar

StartChar: j
Encoding: 106 106 345
Width: 236
GlyphClass: 1
Flags: W
LayerCount: 2
Fore
SplineSet
-83 -191 m 0,0,1
 -97 -191 -97 -191 -105.5 -185 c 128,-1,2
 -114 -179 -114 -179 -116.5 -169.5 c 128,-1,3
 -119 -160 -119 -160 -116.5 -150.5 c 128,-1,4
 -114 -141 -114 -141 -107 -134.5 c 128,-1,5
 -100 -128 -100 -128 -87 -127 c 0,6,7
 -35 -126 -35 -126 -3 -99.5 c 128,-1,8
 29 -73 29 -73 38 -15 c 2,9,-1
 112 453 l 2,10,11
 116 473 116 473 127 483 c 128,-1,12
 138 493 138 493 158 493 c 0,13,14
 177 493 177 493 186 481 c 128,-1,15
 195 469 195 469 192 446 c 2,16,-1
 119 -10 l 2,17,18
 110 -72 110 -72 85 -111 c 128,-1,19
 60 -150 60 -150 18.5 -169.5 c 128,-1,20
 -23 -189 -23 -189 -83 -191 c 0,0,1
175 603 m 0,21,22
 152 603 152 603 140 615 c 128,-1,23
 128 627 128 627 129 648 c 0,24,25
 131 674 131 674 147.5 688 c 128,-1,26
 164 702 164 702 191 702 c 0,27,28
 215 702 215 702 227 690.5 c 128,-1,29
 239 679 239 679 237 657 c 0,30,31
 235 631 235 631 219 617 c 128,-1,32
 203 603 203 603 175 603 c 0,21,22
EndSplineSet
Substitution2: "Single Substitution lookup 4 subtable" uni0237
Substitution2: "Single Substitution lookup 3 subtable" uni0237
EndChar

StartChar: uni0237
Encoding: 567 567 346
Width: 236
GlyphClass: 2
Flags: W
AnchorPoint: "Anchor-2" 80 0 basechar 0
AnchorPoint: "Anchor-0" 156 484 basechar 0
LayerCount: 2
Fore
SplineSet
-83 -191 m 0,0,1
 -97 -191 -97 -191 -105.5 -185 c 128,-1,2
 -114 -179 -114 -179 -116.5 -169.5 c 128,-1,3
 -119 -160 -119 -160 -116.5 -150.5 c 128,-1,4
 -114 -141 -114 -141 -107 -134.5 c 128,-1,5
 -100 -128 -100 -128 -87 -127 c 0,6,7
 -35 -126 -35 -126 -3 -99.5 c 128,-1,8
 29 -73 29 -73 38 -15 c 2,9,-1
 112 453 l 2,10,11
 116 473 116 473 127 483 c 128,-1,12
 138 493 138 493 158 493 c 0,13,14
 177 493 177 493 186 481 c 128,-1,15
 195 469 195 469 192 446 c 2,16,-1
 119 -10 l 2,17,18
 110 -72 110 -72 85 -111 c 128,-1,19
 60 -150 60 -150 18.5 -169.5 c 128,-1,20
 -23 -189 -23 -189 -83 -191 c 0,0,1
EndSplineSet
EndChar

StartChar: k
Encoding: 107 107 348
Width: 500
GlyphClass: 2
Flags: W
AnchorPoint: "Anchor-2" 219 0 basechar 0
AnchorPoint: "Anchor-0" 357 705 basechar 0
LayerCount: 2
Fore
SplineSet
77 -7 m 0,0,1
 58 -7 58 -7 49 5.5 c 128,-1,2
 40 18 40 18 44 40 c 2,3,-1
 144 673 l 2,4,5
 147 693 147 693 158.5 702.5 c 128,-1,6
 170 712 170 712 190 712 c 0,7,8
 209 712 209 712 218 699.5 c 128,-1,9
 227 687 227 687 223 664 c 2,10,-1
 161 270 l 1,11,-1
 163 270 l 1,12,-1
 403 471 l 2,13,14
 416 482 416 482 426 487.5 c 128,-1,15
 436 493 436 493 450 493 c 0,16,17
 466 493 466 493 474 483.5 c 128,-1,18
 482 474 482 474 480 460.5 c 128,-1,19
 478 447 478 447 465 435 c 2,20,-1
 217 225 l 1,21,-1
 220 272 l 1,22,-1
 425 52 l 2,23,24
 437 39 437 39 436.5 25.5 c 128,-1,25
 436 12 436 12 427 2.5 c 128,-1,26
 418 -7 418 -7 402 -7 c 256,27,28
 386 -7 386 -7 375.5 0.5 c 128,-1,29
 365 8 365 8 351 24 c 2,30,-1
 157 230 l 1,31,-1
 155 230 l 1,32,-1
 123 32 l 2,33,34
 118 -7 118 -7 77 -7 c 0,0,1
EndSplineSet
EndChar

StartChar: kgreenlandic
Encoding: 312 312 351
Width: 500
GlyphClass: 2
Flags: W
AnchorPoint: "Anchor-2" 211 0 basechar 0
AnchorPoint: "Anchor-0" 288 484 basechar 0
LayerCount: 2
Fore
SplineSet
79 -7 m 0,0,1
 58 -7 58 -7 49 5.5 c 128,-1,2
 40 18 40 18 44 40 c 2,3,-1
 109 454 l 2,4,5
 113 473 113 473 124 483 c 128,-1,6
 135 493 135 493 154 493 c 0,7,8
 175 493 175 493 183.5 480.5 c 128,-1,9
 192 468 192 468 189 445 c 2,10,-1
 161 270 l 1,11,-1
 163 270 l 1,12,-1
 403 471 l 2,13,14
 413 479 413 479 423.5 486 c 128,-1,15
 434 493 434 493 448 493 c 0,16,17
 465 493 465 493 473.5 483.5 c 128,-1,18
 482 474 482 474 480.5 460.5 c 128,-1,19
 479 447 479 447 465 435 c 2,20,-1
 217 225 l 1,21,-1
 220 272 l 1,22,-1
 425 52 l 2,23,24
 437 39 437 39 437 25.5 c 128,-1,25
 437 12 437 12 427 2.5 c 128,-1,26
 417 -7 417 -7 400 -7 c 0,27,28
 386 -7 386 -7 375.5 0.5 c 128,-1,29
 365 8 365 8 351 24 c 2,30,-1
 157 230 l 1,31,-1
 155 230 l 1,32,-1
 123 32 l 2,33,34
 121 13 121 13 109 3 c 128,-1,35
 97 -7 97 -7 79 -7 c 0,0,1
EndSplineSet
EndChar

StartChar: l
Encoding: 108 108 352
Width: 296
GlyphClass: 2
Flags: W
AnchorPoint: "Anchor-5" 141 357 basechar 0
AnchorPoint: "Anchor-2" 149 0 basechar 0
AnchorPoint: "Anchor-1" 275 705 basechar 0
AnchorPoint: "Anchor-0" 189 705 basechar 0
LayerCount: 2
Fore
SplineSet
186 -9 m 0,0,1
 115 -9 115 -9 82 33.5 c 128,-1,2
 49 76 49 76 62 159 c 2,3,-1
 144 672 l 2,4,5
 147 692 147 692 158.5 702 c 128,-1,6
 170 712 170 712 190 712 c 0,7,8
 209 712 209 712 218 699.5 c 128,-1,9
 227 687 227 687 223 664 c 2,10,-1
 143 159 l 2,11,12
 134 106 134 106 151 83 c 128,-1,13
 168 60 168 60 208 60 c 0,14,15
 222 60 222 60 229.5 61.5 c 128,-1,16
 237 63 237 63 242 63 c 0,17,18
 250 63 250 63 254 58 c 128,-1,19
 258 53 258 53 258 39 c 0,20,21
 258 20 258 20 249 9.5 c 128,-1,22
 240 -1 240 -1 226 -5 c 0,23,24
 218 -6 218 -6 206.5 -7.5 c 128,-1,25
 195 -9 195 -9 186 -9 c 0,0,1
EndSplineSet
Substitution2: "'ss02' Style Set 2 lookup 36 subtable" l.ss02
Substitution2: "'aalt' Access All Alternates lookup 0 subtable" l.ss02
EndChar

StartChar: m
Encoding: 109 109 361
Width: 856
GlyphClass: 2
Flags: W
AnchorPoint: "Anchor-2" 390 0 basechar 0
AnchorPoint: "Anchor-0" 467 484 basechar 0
LayerCount: 2
Fore
SplineSet
78 -7 m 0,0,1
 59 -7 59 -7 50.5 5 c 128,-1,2
 42 17 42 17 45 40 c 2,3,-1
 111 454 l 2,4,5
 115 474 115 474 126 483.5 c 128,-1,6
 137 493 137 493 156 493 c 256,7,8
 175 493 175 493 183.5 480.5 c 128,-1,9
 192 468 192 468 189 447 c 2,10,-1
 176 363 l 1,11,-1
 167 375 l 1,12,13
 194 434 194 434 239 464.5 c 128,-1,14
 284 495 284 495 341 495 c 0,15,16
 399 495 399 495 435.5 464 c 128,-1,17
 472 433 472 433 480 372 c 1,18,-1
 468 375 l 1,19,20
 492 432 492 432 539 463.5 c 128,-1,21
 586 495 586 495 650 495 c 0,22,23
 701 495 701 495 736 473.5 c 128,-1,24
 771 452 771 452 785 407 c 128,-1,25
 799 362 799 362 788 294 c 2,26,-1
 747 32 l 2,27,28
 745 13 745 13 733 3 c 128,-1,29
 721 -7 721 -7 701 -7 c 0,30,31
 682 -7 682 -7 673 5 c 128,-1,32
 664 17 664 17 667 40 c 2,33,-1
 707 298 l 2,34,35
 717 363 717 363 697 396 c 128,-1,36
 677 429 677 429 626 429 c 0,37,38
 565 429 565 429 525 385 c 128,-1,39
 485 341 485 341 473 264 c 2,40,-1
 436 32 l 2,41,42
 434 13 434 13 422 3 c 128,-1,43
 410 -7 410 -7 390 -7 c 256,44,45
 370 -7 370 -7 361.5 5 c 128,-1,46
 353 17 353 17 356 40 c 2,47,-1
 397 298 l 2,48,49
 407 363 407 363 387 396 c 128,-1,50
 367 429 367 429 316 429 c 0,51,52
 255 429 255 429 215 385 c 128,-1,53
 175 341 175 341 162 264 c 2,54,-1
 126 32 l 2,55,56
 120 -7 120 -7 78 -7 c 0,0,1
EndSplineSet
EndChar

StartChar: n
Encoding: 110 110 363
Width: 568
GlyphClass: 2
Flags: W
AnchorPoint: "Anchor-2" 251 0 basechar 0
AnchorPoint: "Anchor-0" 322 484 basechar 0
LayerCount: 2
Fore
SplineSet
77 -6 m 0,0,1
 58 -6 58 -6 49.5 7 c 128,-1,2
 41 20 41 20 44 42 c 2,3,-1
 109 453 l 2,4,5
 113 473 113 473 124.5 483 c 128,-1,6
 136 493 136 493 156 493 c 0,7,8
 174 493 174 493 182.5 481.5 c 128,-1,9
 191 470 191 470 187 448 c 2,10,-1
 174 364 l 1,11,-1
 166 376 l 1,12,13
 191 433 191 433 239.5 464 c 128,-1,14
 288 495 288 495 355 495 c 0,15,16
 409 495 409 495 445.5 473.5 c 128,-1,17
 482 452 482 452 497.5 407.5 c 128,-1,18
 513 363 513 363 502 294 c 2,19,-1
 461 33 l 2,20,21
 459 13 459 13 447 3.5 c 128,-1,22
 435 -6 435 -6 415 -6 c 0,23,24
 396 -6 396 -6 387 6.5 c 128,-1,25
 378 19 378 19 381 41 c 2,26,-1
 421 294 l 2,27,28
 433 362 433 362 410 395.5 c 128,-1,29
 387 429 387 429 331 429 c 0,30,31
 258 429 258 429 215 384 c 128,-1,32
 172 339 172 339 160 264 c 2,33,-1
 124 34 l 2,34,35
 118 -6 118 -6 77 -6 c 0,0,1
EndSplineSet
EndChar

StartChar: eng
Encoding: 331 331 373
Width: 568
GlyphClass: 1
Flags: W
LayerCount: 2
Fore
SplineSet
252 -191 m 0,0,1
 238 -191 238 -191 229.5 -185 c 128,-1,2
 221 -179 221 -179 218 -170 c 128,-1,3
 215 -161 215 -161 217.5 -151.5 c 128,-1,4
 220 -142 220 -142 227.5 -135 c 128,-1,5
 235 -128 235 -128 247 -127 c 0,6,7
 299 -125 299 -125 331 -99 c 128,-1,8
 363 -73 363 -73 372 -15 c 2,9,-1
 421 294 l 2,10,11
 433 362 433 362 410 395.5 c 128,-1,12
 387 429 387 429 331 429 c 0,13,14
 258 429 258 429 215 384 c 128,-1,15
 172 339 172 339 160 264 c 2,16,-1
 124 34 l 2,17,18
 118 -6 118 -6 77 -6 c 0,19,20
 58 -6 58 -6 49.5 6.5 c 128,-1,21
 41 19 41 19 44 41 c 2,22,-1
 109 453 l 2,23,24
 113 473 113 473 124.5 483 c 128,-1,25
 136 493 136 493 156 493 c 0,26,27
 174 493 174 493 182.5 481.5 c 128,-1,28
 191 470 191 470 187 449 c 2,29,-1
 174 364 l 1,30,-1
 166 376 l 1,31,32
 191 433 191 433 239.5 464 c 128,-1,33
 288 495 288 495 355 495 c 0,34,35
 409 495 409 495 446 473.5 c 128,-1,36
 483 452 483 452 498 407.5 c 128,-1,37
 513 363 513 363 502 294 c 2,38,-1
 454 -10 l 2,39,40
 444 -72 444 -72 418.5 -111 c 128,-1,41
 393 -150 393 -150 352 -169.5 c 128,-1,42
 311 -189 311 -189 252 -191 c 0,0,1
EndSplineSet
EndChar

StartChar: o
Encoding: 111 111 374
Width: 556
GlyphClass: 2
Flags: W
AnchorPoint: "Anchor-5" 278 243 basechar 0
AnchorPoint: "Anchor-3" 310 0 basechar 0
AnchorPoint: "Anchor-2" 249 0 basechar 0
AnchorPoint: "Anchor-1" 366 484 basechar 0
AnchorPoint: "Anchor-0" 318 484 basechar 0
LayerCount: 2
Fore
SplineSet
255 -9 m 0,0,1
 190 -9 190 -9 142.5 17 c 128,-1,2
 95 43 95 43 69.5 91 c 128,-1,3
 44 139 44 139 44 205 c 0,4,5
 44 267 44 267 62.5 319.5 c 128,-1,6
 81 372 81 372 115 412 c 128,-1,7
 149 452 149 452 195.5 473.5 c 128,-1,8
 242 495 242 495 301 495 c 0,9,10
 366 495 366 495 413.5 469 c 128,-1,11
 461 443 461 443 486 395.5 c 128,-1,12
 511 348 511 348 511 281 c 0,13,14
 511 219 511 219 493 166.5 c 128,-1,15
 475 114 475 114 441 74.5 c 128,-1,16
 407 35 407 35 360 13 c 128,-1,17
 313 -9 313 -9 255 -9 c 0,0,1
258 56 m 0,18,19
 313 56 313 56 351.5 87 c 128,-1,20
 390 118 390 118 409.5 170 c 128,-1,21
 429 222 429 222 429 284 c 0,22,23
 429 356 429 356 394.5 393 c 128,-1,24
 360 430 360 430 298 430 c 0,25,26
 243 430 243 430 204.5 399 c 128,-1,27
 166 368 166 368 146 317 c 128,-1,28
 126 266 126 266 126 202 c 0,29,30
 126 131 126 131 161 93.5 c 128,-1,31
 196 56 196 56 258 56 c 0,18,19
EndSplineSet
Substitution2: "Single Substitution lookup 29 subtable" ordmasculine
Substitution2: "'aalt' Access All Alternates lookup 0 subtable" ordmasculine
EndChar

StartChar: oslash
Encoding: 248 248 402
Width: 556
GlyphClass: 2
Flags: W
AnchorPoint: "Anchor-5" 278 243 basechar 0
AnchorPoint: "Anchor-0" 318 484 basechar 0
LayerCount: 2
Fore
SplineSet
256 -9 m 0,0,1
 191 -9 191 -9 143.5 17 c 128,-1,2
 96 43 96 43 70.5 91.5 c 128,-1,3
 45 140 45 140 45 206 c 0,4,5
 45 267 45 267 63 320 c 128,-1,6
 81 373 81 373 115 412.5 c 128,-1,7
 149 452 149 452 196 473.5 c 128,-1,8
 243 495 243 495 301 495 c 0,9,10
 367 495 367 495 414 469 c 128,-1,11
 461 443 461 443 486.5 395.5 c 128,-1,12
 512 348 512 348 512 281 c 0,13,14
 512 219 512 219 494 166.5 c 128,-1,15
 476 114 476 114 442 74.5 c 128,-1,16
 408 35 408 35 361 13 c 128,-1,17
 314 -9 314 -9 256 -9 c 0,0,1
259 53 m 0,18,19
 316 53 316 53 355 84 c 128,-1,20
 394 115 394 115 414.5 167.5 c 128,-1,21
 435 220 435 220 435 285 c 0,22,23
 435 358 435 358 399 395.5 c 128,-1,24
 363 433 363 433 297 433 c 0,25,26
 241 433 241 433 201.5 402.5 c 128,-1,27
 162 372 162 372 141.5 319.5 c 128,-1,28
 121 267 121 267 121 202 c 0,29,30
 121 129 121 129 157.5 91 c 128,-1,31
 194 53 194 53 259 53 c 0,18,19
116 -24 m 2,32,33
 108 -35 108 -35 97.5 -35.5 c 128,-1,34
 87 -36 87 -36 78.5 -30 c 128,-1,35
 70 -24 70 -24 68.5 -13.5 c 128,-1,36
 67 -3 67 -3 75 9 c 2,37,-1
 442 510 l 2,38,39
 451 520 451 520 461 521 c 128,-1,40
 471 522 471 522 479 516 c 128,-1,41
 487 510 487 510 489 499.5 c 128,-1,42
 491 489 491 489 482 477 c 2,43,-1
 116 -24 l 2,32,33
EndSplineSet
EndChar

StartChar: oe
Encoding: 339 339 408
Width: 910
GlyphClass: 2
Flags: W
AnchorPoint: "Anchor-2" 429 0 basechar 0
AnchorPoint: "Anchor-0" 507 484 basechar 0
LayerCount: 2
Fore
SplineSet
255 -9 m 0,0,1
 190 -9 190 -9 142.5 17 c 128,-1,2
 95 43 95 43 69.5 91.5 c 128,-1,3
 44 140 44 140 44 206 c 0,4,5
 44 267 44 267 62.5 320 c 128,-1,6
 81 373 81 373 115 412.5 c 128,-1,7
 149 452 149 452 195.5 473.5 c 128,-1,8
 242 495 242 495 301 495 c 0,9,10
 376 495 376 495 425.5 456.5 c 128,-1,11
 475 418 475 418 490 349 c 1,12,-1
 464 349 l 1,13,14
 494 413 494 413 549.5 454 c 128,-1,15
 605 495 605 495 683 495 c 0,16,17
 759 495 759 495 803.5 460.5 c 128,-1,18
 848 426 848 426 864 371 c 128,-1,19
 880 316 880 316 870 254 c 0,20,21
 868 237 868 237 861.5 231.5 c 128,-1,22
 855 226 855 226 840 226 c 2,23,-1
 488 226 l 1,24,-1
 496 279 l 1,25,-1
 821 279 l 1,26,-1
 803 266 l 1,27,28
 810 313 810 313 800.5 351 c 128,-1,29
 791 389 791 389 762.5 412 c 128,-1,30
 734 435 734 435 683 435 c 0,31,32
 630 435 630 435 594.5 411 c 128,-1,33
 559 387 559 387 539.5 349 c 128,-1,34
 520 311 520 311 513 270 c 2,35,-1
 509 245 l 2,36,37
 495 159 495 159 533.5 108 c 128,-1,38
 572 57 572 57 653 57 c 0,39,40
 689 57 689 57 721.5 65 c 128,-1,41
 754 73 754 73 786 94 c 0,42,43
 799 102 799 102 809.5 101.5 c 128,-1,44
 820 101 820 101 827 95 c 128,-1,45
 834 89 834 89 835.5 79.5 c 128,-1,46
 837 70 837 70 832.5 59.5 c 128,-1,47
 828 49 828 49 816 40 c 0,48,49
 782 16 782 16 736.5 3.5 c 128,-1,50
 691 -9 691 -9 650 -9 c 0,51,52
 569 -9 569 -9 515.5 29.5 c 128,-1,53
 462 68 462 68 444 137 c 1,54,-1
 473 137 l 1,55,56
 444 72 444 72 388.5 31.5 c 128,-1,57
 333 -9 333 -9 255 -9 c 0,0,1
258 57 m 0,58,59
 313 57 313 57 351.5 87.5 c 128,-1,60
 390 118 390 118 409.5 170 c 128,-1,61
 429 222 429 222 429 284 c 0,62,63
 429 356 429 356 394.5 393 c 128,-1,64
 360 430 360 430 298 430 c 0,65,66
 243 430 243 430 204.5 399 c 128,-1,67
 166 368 166 368 146 317 c 128,-1,68
 126 266 126 266 126 202 c 0,69,70
 126 131 126 131 161 94 c 128,-1,71
 196 57 196 57 258 57 c 0,58,59
EndSplineSet
EndChar

StartChar: p
Encoding: 112 112 409
Width: 583
GlyphClass: 2
Flags: W
AnchorPoint: "Anchor-2" 252 0 basechar 0
AnchorPoint: "Anchor-0" 328 484 basechar 0
LayerCount: 2
Fore
SplineSet
48 -187 m 0,0,1
 29 -187 29 -187 20 -174.5 c 128,-1,2
 11 -162 11 -162 15 -140 c 2,3,-1
 109 452 l 2,4,5
 112 473 112 473 123.5 483 c 128,-1,6
 135 493 135 493 155 493 c 0,7,8
 174 493 174 493 182.5 481 c 128,-1,9
 191 469 191 469 187 446 c 2,10,-1
 175 370 l 1,11,-1
 168 384 l 1,12,13
 195 436 195 436 242 465.5 c 128,-1,14
 289 495 289 495 351 495 c 0,15,16
 408 495 408 495 450.5 470 c 128,-1,17
 493 445 493 445 516 398 c 128,-1,18
 539 351 539 351 539 287 c 0,19,20
 539 207 539 207 510.5 139.5 c 128,-1,21
 482 72 482 72 427.5 31.5 c 128,-1,22
 373 -9 373 -9 295 -9 c 0,23,24
 237 -9 237 -9 191 20.5 c 128,-1,25
 145 50 145 50 128 110 c 1,26,-1
 136 110 l 1,27,-1
 94 -148 l 2,28,29
 92 -168 92 -168 80.5 -177.5 c 128,-1,30
 69 -187 69 -187 48 -187 c 0,0,1
285 56 m 0,31,32
 341 56 341 56 379 87 c 128,-1,33
 417 118 417 118 437 170 c 128,-1,34
 457 222 457 222 457 284 c 0,35,36
 457 356 457 356 422 393 c 128,-1,37
 387 430 387 430 326 430 c 0,38,39
 271 430 271 430 232.5 399 c 128,-1,40
 194 368 194 368 174 317 c 128,-1,41
 154 266 154 266 154 202 c 0,42,43
 154 131 154 131 189 93.5 c 128,-1,44
 224 56 224 56 285 56 c 0,31,32
EndSplineSet
EndChar

StartChar: thorn
Encoding: 254 254 410
Width: 583
GlyphClass: 2
Flags: W
AnchorPoint: "Anchor-2" 252 0 basechar 0
AnchorPoint: "Anchor-0" 329 484 basechar 0
LayerCount: 2
Fore
SplineSet
48 -187 m 0,0,1
 29 -187 29 -187 20 -174.5 c 128,-1,2
 11 -162 11 -162 15 -140 c 2,3,-1
 143 671 l 2,4,5
 147 692 147 692 158.5 702 c 128,-1,6
 170 712 170 712 190 712 c 0,7,8
 209 712 209 712 218 700.5 c 128,-1,9
 227 689 227 689 223 666 c 2,10,-1
 177 370 l 1,11,-1
 168 384 l 1,12,13
 195 436 195 436 242 465.5 c 128,-1,14
 289 495 289 495 351 495 c 0,15,16
 408 495 408 495 450.5 470 c 128,-1,17
 493 445 493 445 516 398 c 128,-1,18
 539 351 539 351 539 287 c 0,19,20
 539 207 539 207 510.5 139.5 c 128,-1,21
 482 72 482 72 427.5 31.5 c 128,-1,22
 373 -9 373 -9 295 -9 c 0,23,24
 237 -9 237 -9 191 20.5 c 128,-1,25
 145 50 145 50 128 110 c 1,26,-1
 136 110 l 1,27,-1
 94 -148 l 2,28,29
 92 -168 92 -168 80.5 -177.5 c 128,-1,30
 69 -187 69 -187 48 -187 c 0,0,1
285 56 m 0,31,32
 341 56 341 56 379 87 c 128,-1,33
 417 118 417 118 437 170 c 128,-1,34
 457 222 457 222 457 284 c 0,35,36
 457 356 457 356 422 393 c 128,-1,37
 387 430 387 430 326 430 c 0,38,39
 271 430 271 430 232.5 399 c 128,-1,40
 194 368 194 368 174 317 c 128,-1,41
 154 266 154 266 154 202 c 0,42,43
 154 131 154 131 189 93.5 c 128,-1,44
 224 56 224 56 285 56 c 0,31,32
EndSplineSet
EndChar

StartChar: q
Encoding: 113 113 411
Width: 583
GlyphClass: 2
Flags: W
AnchorPoint: "Anchor-2" 252 0 basechar 0
AnchorPoint: "Anchor-0" 329 484 basechar 0
LayerCount: 2
Fore
SplineSet
399 -187 m 0,0,1
 380 -187 380 -187 371.5 -174.5 c 128,-1,2
 363 -162 363 -162 366 -140 c 2,3,-1
 404 103 l 1,4,-1
 415 103 l 1,5,6
 389 52 389 52 341.5 21.5 c 128,-1,7
 294 -9 294 -9 232 -9 c 0,8,9
 175 -9 175 -9 133 16.5 c 128,-1,10
 91 42 91 42 67.5 89 c 128,-1,11
 44 136 44 136 44 199 c 0,12,13
 44 280 44 280 72.5 347.5 c 128,-1,14
 101 415 101 415 156 455 c 128,-1,15
 211 495 211 495 289 495 c 0,16,17
 347 495 347 495 392.5 466 c 128,-1,18
 438 437 438 437 455 376 c 1,19,-1
 447 364 l 1,20,-1
 461 453 l 2,21,22
 465 474 465 474 475.5 483.5 c 128,-1,23
 486 493 486 493 506 493 c 0,24,25
 525 493 525 493 534 481 c 128,-1,26
 543 469 543 469 540 446 c 2,27,-1
 446 -146 l 2,28,29
 443 -166 443 -166 431 -176.5 c 128,-1,30
 419 -187 419 -187 399 -187 c 0,0,1
257 56 m 0,31,32
 313 56 313 56 351 87 c 128,-1,33
 389 118 389 118 409 170 c 128,-1,34
 429 222 429 222 429 284 c 0,35,36
 429 356 429 356 394 393 c 128,-1,37
 359 430 359 430 298 430 c 0,38,39
 243 430 243 430 204.5 399 c 128,-1,40
 166 368 166 368 146 317 c 128,-1,41
 126 266 126 266 126 202 c 0,42,43
 126 131 126 131 161 93.5 c 128,-1,44
 196 56 196 56 257 56 c 0,31,32
EndSplineSet
EndChar

StartChar: r
Encoding: 114 114 412
Width: 358
GlyphClass: 2
Flags: W
AnchorPoint: "Anchor-2" 79 0 basechar 0
AnchorPoint: "Anchor-0" 251 487 basechar 0
LayerCount: 2
Fore
SplineSet
77 -7 m 0,0,1
 58 -7 58 -7 49.5 5 c 128,-1,2
 41 17 41 17 44 40 c 2,3,-1
 109 454 l 2,4,5
 113 474 113 474 124.5 483.5 c 128,-1,6
 136 493 136 493 155 493 c 0,7,8
 173 493 173 493 182 481 c 128,-1,9
 191 469 191 469 188 447 c 2,10,-1
 176 370 l 1,11,-1
 165 370 l 1,12,13
 186 430 186 430 235.5 462 c 128,-1,14
 285 494 285 494 347 496 c 0,15,16
 369 497 369 497 377 490.5 c 128,-1,17
 385 484 385 484 385 468 c 0,18,19
 385 447 385 447 375 437.5 c 128,-1,20
 365 428 365 428 343 425 c 2,21,-1
 323 424 l 2,22,23
 243 417 243 417 208 376 c 128,-1,24
 173 335 173 335 162 268 c 2,25,-1
 124 32 l 2,26,27
 122 13 122 13 110 3 c 128,-1,28
 98 -7 98 -7 77 -7 c 0,0,1
EndSplineSet
EndChar

StartChar: s
Encoding: 115 115 420
Width: 481
GlyphClass: 2
Flags: W
AnchorPoint: "Anchor-2" 212 0 basechar 0
AnchorPoint: "Anchor-0" 272 484 basechar 0
LayerCount: 2
Fore
SplineSet
223 -9 m 0,0,1
 175 -9 175 -9 131.5 2.5 c 128,-1,2
 88 14 88 14 56 33 c 0,3,4
 44 40 44 40 39.5 50.5 c 128,-1,5
 35 61 35 61 36.5 71 c 128,-1,6
 38 81 38 81 44.5 88 c 128,-1,7
 51 95 51 95 61.5 96 c 128,-1,8
 72 97 72 97 85 90 c 0,9,10
 117 71 117 71 152 62 c 128,-1,11
 187 53 187 53 224 53 c 0,12,13
 278 53 278 53 308.5 74.5 c 128,-1,14
 339 96 339 96 339 135 c 0,15,16
 339 160 339 160 322.5 176.5 c 128,-1,17
 306 193 306 193 274 200 c 2,18,-1
 180 223 l 2,19,20
 130 235 130 235 101.5 266.5 c 128,-1,21
 73 298 73 298 73 344 c 0,22,23
 73 387 73 387 97 421.5 c 128,-1,24
 121 456 121 456 166 475.5 c 128,-1,25
 211 495 211 495 272 495 c 0,26,27
 312 495 312 495 353 483.5 c 128,-1,28
 394 472 394 472 421 451 c 0,29,30
 433 442 433 442 437.5 431.5 c 128,-1,31
 442 421 442 421 440 411.5 c 128,-1,32
 438 402 438 402 431 396 c 128,-1,33
 424 390 424 390 413.5 389.5 c 128,-1,34
 403 389 403 389 390 397 c 0,35,36
 365 416 365 416 334 424.5 c 128,-1,37
 303 433 303 433 269 433 c 0,38,39
 213 433 213 433 181 410 c 128,-1,40
 149 387 149 387 149 348 c 0,41,42
 149 324 149 324 164 306.5 c 128,-1,43
 179 289 179 289 209 282 c 2,44,-1
 304 259 l 2,45,46
 357 246 357 246 386.5 216.5 c 128,-1,47
 416 187 416 187 416 140 c 0,48,49
 416 70 416 70 363 30.5 c 128,-1,50
 310 -9 310 -9 223 -9 c 0,0,1
EndSplineSet
EndChar

StartChar: germandbls
Encoding: 223 223 431
Width: 615
GlyphClass: 1
Flags: W
LayerCount: 2
Fore
SplineSet
378 -9 m 0,0,1
 332 -9 332 -9 287 3.5 c 128,-1,2
 242 16 242 16 213 37 c 0,3,4
 201 45 201 45 197 55 c 128,-1,5
 193 65 193 65 195 75.5 c 128,-1,6
 197 86 197 86 204 93 c 128,-1,7
 211 100 211 100 221.5 101 c 128,-1,8
 232 102 232 102 244 94 c 0,9,10
 272 76 272 76 306 65.5 c 128,-1,11
 340 55 340 55 376 55 c 0,12,13
 431 55 431 55 460.5 75.5 c 128,-1,14
 490 96 490 96 490 135 c 0,15,16
 490 160 490 160 471 181 c 128,-1,17
 452 202 452 202 396 221 c 0,18,19
 329 244 329 244 302 273 c 128,-1,20
 275 302 275 302 275 344 c 0,21,22
 275 371 275 371 284 392 c 128,-1,23
 293 413 293 413 314.5 435 c 128,-1,24
 336 457 336 457 373 484 c 0,25,26
 405 508 405 508 423 530 c 128,-1,27
 441 552 441 552 441 585 c 0,28,29
 441 612 441 612 421.5 631.5 c 128,-1,30
 402 651 402 651 363 651 c 0,31,32
 292 651 292 651 250.5 610 c 128,-1,33
 209 569 209 569 196 491 c 2,34,-1
 123 32 l 2,35,36
 121 13 121 13 109.5 3 c 128,-1,37
 98 -7 98 -7 79 -7 c 0,38,39
 59 -7 59 -7 49.5 5 c 128,-1,40
 40 17 40 17 44 39 c 2,41,-1
 114 483 l 2,42,43
 132 595 132 595 193.5 654.5 c 128,-1,44
 255 714 255 714 365 714 c 0,45,46
 413 714 413 714 447.5 697.5 c 128,-1,47
 482 681 482 681 501 653.5 c 128,-1,48
 520 626 520 626 520 594 c 0,49,50
 520 545 520 545 495 513.5 c 128,-1,51
 470 482 470 482 428 448 c 0,52,53
 403 429 403 429 386.5 414.5 c 128,-1,54
 370 400 370 400 361 385.5 c 128,-1,55
 352 371 352 371 352 353 c 0,56,57
 352 330 352 330 371.5 312 c 128,-1,58
 391 294 391 294 443 277 c 0,59,60
 503 256 503 256 535 225.5 c 128,-1,61
 567 195 567 195 567 143 c 0,62,63
 567 95 567 95 543.5 61 c 128,-1,64
 520 27 520 27 477 9 c 128,-1,65
 434 -9 434 -9 378 -9 c 0,0,1
EndSplineSet
Substitution2: "Single Substitution lookup 39 subtable" germandbls.calt
Substitution2: "Single Substitution lookup 38 subtable" germandbls.calt
Substitution2: "'aalt' Access All Alternates lookup 0 subtable" germandbls.calt
EndChar

StartChar: t
Encoding: 116 116 432
Width: 350
GlyphClass: 2
Flags: W
AnchorPoint: "Anchor-5" 168 267 basechar 0
AnchorPoint: "Anchor-2" 185 0 basechar 0
AnchorPoint: "Anchor-1" 324 705 basechar 0
AnchorPoint: "Anchor-0" 202 635 basechar 0
LayerCount: 2
Fore
SplineSet
238 -9 m 0,0,1
 181 -9 181 -9 144.5 13 c 128,-1,2
 108 35 108 35 93.5 74 c 128,-1,3
 79 113 79 113 87 167 c 2,4,-1
 128 423 l 1,5,-1
 66 423 l 2,6,7
 49 423 49 423 39.5 430 c 128,-1,8
 30 437 30 437 30 450 c 0,9,10
 30 468 30 468 42 477 c 128,-1,11
 54 486 54 486 73 486 c 2,12,-1
 138 486 l 1,13,-1
 156 604 l 2,14,15
 160 623 160 623 171 632.5 c 128,-1,16
 182 642 182 642 201 642 c 0,17,18
 221 642 221 642 230 630 c 128,-1,19
 239 618 239 618 236 596 c 2,20,-1
 219 486 l 1,21,-1
 339 486 l 2,22,23
 357 486 357 486 366 480 c 128,-1,24
 375 474 375 474 375 460 c 0,25,26
 375 443 375 443 364.5 433 c 128,-1,27
 354 423 354 423 335 423 c 2,28,-1
 208 423 l 1,29,-1
 169 175 l 2,30,31
 160 114 160 114 182 87 c 128,-1,32
 204 60 204 60 251 60 c 0,33,34
 272 60 272 60 284 64 c 128,-1,35
 296 68 296 68 304 68 c 0,36,37
 314 68 314 68 319 62.5 c 128,-1,38
 324 57 324 57 324 43 c 0,39,40
 324 23 324 23 317.5 14 c 128,-1,41
 311 5 311 5 298 0 c 0,42,43
 287 -4 287 -4 269.5 -6.5 c 128,-1,44
 252 -9 252 -9 238 -9 c 0,0,1
EndSplineSet
EndChar

StartChar: u
Encoding: 117 117 440
Width: 561
GlyphClass: 2
Flags: W
AnchorPoint: "Anchor-3" 430 0 basechar 0
AnchorPoint: "Anchor-2" 243 0 basechar 0
AnchorPoint: "Anchor-1" 458 484 basechar 0
AnchorPoint: "Anchor-0" 315 485 basechar 0
LayerCount: 2
Fore
SplineSet
211 -9 m 0,0,1
 159 -9 159 -9 122.5 13 c 128,-1,2
 86 35 86 35 70.5 79.5 c 128,-1,3
 55 124 55 124 66 193 c 2,4,-1
 107 455 l 2,5,6
 111 475 111 475 122 484 c 128,-1,7
 133 493 133 493 152 493 c 0,8,9
 172 493 172 493 181.5 481.5 c 128,-1,10
 191 470 191 470 187 448 c 2,11,-1
 147 193 l 2,12,13
 136 125 136 125 158 91.5 c 128,-1,14
 180 58 180 58 235 58 c 0,15,16
 305 58 305 58 347.5 103 c 128,-1,17
 390 148 390 148 401 223 c 2,18,-1
 437 455 l 2,19,20
 441 475 441 475 452 484 c 128,-1,21
 463 493 463 493 482 493 c 0,22,23
 503 493 503 493 512 482 c 128,-1,24
 521 471 521 471 518 449 c 2,25,-1
 452 32 l 2,26,27
 446 -7 446 -7 408 -7 c 0,28,29
 389 -7 389 -7 380 4 c 128,-1,30
 371 15 371 15 374 37 c 2,31,-1
 387 124 l 1,32,-1
 396 112 l 1,33,34
 371 54 371 54 323 22.5 c 128,-1,35
 275 -9 275 -9 211 -9 c 0,0,1
EndSplineSet
EndChar

StartChar: uhorn
Encoding: 432 432 450
Width: 561
GlyphClass: 2
Flags: W
AnchorPoint: "Anchor-2" 243 0 basechar 0
AnchorPoint: "Anchor-0" 315 485 basechar 0
LayerCount: 2
Fore
SplineSet
211 -9 m 0,0,1
 159 -9 159 -9 122.5 13 c 128,-1,2
 86 35 86 35 70.5 79.5 c 128,-1,3
 55 124 55 124 66 193 c 2,4,-1
 107 455 l 2,5,6
 111 474 111 474 122 483.5 c 128,-1,7
 133 493 133 493 152 493 c 0,8,9
 172 493 172 493 181.5 481 c 128,-1,10
 191 469 191 469 187 448 c 2,11,-1
 147 193 l 2,12,13
 136 125 136 125 158 91.5 c 128,-1,14
 180 58 180 58 235 58 c 0,15,16
 305 58 305 58 347.5 103 c 128,-1,17
 390 148 390 148 401 223 c 2,18,-1
 436 450 l 2,19,20
 440 469 440 469 451 478.5 c 128,-1,21
 462 488 462 488 480 489 c 0,22,23
 517 492 517 492 537 504.5 c 128,-1,24
 557 517 557 517 567.5 540 c 128,-1,25
 578 563 578 563 584 594 c 0,26,27
 589 623 589 623 623 623 c 0,28,29
 640 623 640 623 649.5 615 c 128,-1,30
 659 607 659 607 656 591 c 0,31,32
 648 530 648 530 614 489 c 128,-1,33
 580 448 580 448 515 439 c 1,34,-1
 452 32 l 2,35,36
 446 -7 446 -7 408 -7 c 0,37,38
 389 -7 389 -7 380 4 c 128,-1,39
 371 15 371 15 374 37 c 2,40,-1
 387 124 l 1,41,-1
 396 112 l 1,42,43
 371 54 371 54 323 22.5 c 128,-1,44
 275 -9 275 -9 211 -9 c 0,0,1
EndSplineSet
EndChar

StartChar: uogonek
Encoding: 371 371 460
Width: 561
GlyphClass: 1
Flags: W
LayerCount: 2
Fore
SplineSet
387 124 m 1,0,-1
 396 112 l 1,1,2
 371 54 371 54 323 22.5 c 128,-1,3
 275 -9 275 -9 211 -9 c 0,4,5
 159 -9 159 -9 122.5 13 c 128,-1,6
 86 35 86 35 70.5 79.5 c 128,-1,7
 55 124 55 124 66 193 c 2,8,-1
 107 455 l 2,9,10
 111 474 111 474 122 483.5 c 128,-1,11
 133 493 133 493 152 493 c 0,12,13
 172 493 172 493 181.5 481 c 128,-1,14
 191 469 191 469 187 448 c 2,15,-1
 147 193 l 2,16,17
 136 125 136 125 158 91.5 c 128,-1,18
 180 58 180 58 235 58 c 0,19,20
 305 58 305 58 347.5 103 c 128,-1,21
 390 148 390 148 401 223 c 2,22,-1
 437 455 l 2,23,24
 441 474 441 474 452 483.5 c 128,-1,25
 463 493 463 493 482 493 c 0,26,27
 503 493 503 493 511.5 481 c 128,-1,28
 520 469 520 469 517 447 c 2,29,-1
 452 32 l 2,30,31
 449 16 449 16 441.5 7 c 128,-1,32
 434 -2 434 -2 421 -6 c 0,33,34
 389 -19 389 -19 373 -41 c 128,-1,35
 357 -63 357 -63 357 -91 c 0,36,37
 357 -114 357 -114 370.5 -128 c 128,-1,38
 384 -142 384 -142 410 -142 c 0,39,40
 418 -142 418 -142 427 -140.5 c 128,-1,41
 436 -139 436 -139 446 -136 c 0,42,43
 459 -132 459 -132 465.5 -137 c 128,-1,44
 472 -142 472 -142 473.5 -151.5 c 128,-1,45
 475 -161 475 -161 471.5 -169.5 c 128,-1,46
 468 -178 468 -178 459 -182 c 0,47,48
 445 -187 445 -187 428 -189.5 c 128,-1,49
 411 -192 411 -192 396 -192 c 0,50,51
 348 -192 348 -192 323.5 -166.5 c 128,-1,52
 299 -141 299 -141 299 -103 c 0,53,54
 299 -61 299 -61 322 -28 c 128,-1,55
 345 5 345 5 386 27 c 1,56,-1
 376 11 l 1,57,58
 374 17 374 17 373.5 23 c 128,-1,59
 373 29 373 29 374 37 c 2,60,-1
 387 124 l 1,0,-1
EndSplineSet
EndChar

StartChar: v
Encoding: 118 118 464
Width: 515
GlyphClass: 2
Flags: W
AnchorPoint: "Anchor-2" 219 0 basechar 0
AnchorPoint: "Anchor-0" 296 484 basechar 0
LayerCount: 2
Fore
SplineSet
221 -7 m 0,0,1
 200 -7 200 -7 188.5 3.5 c 128,-1,2
 177 14 177 14 171 35 c 2,3,-1
 62 435 l 2,4,5
 58 452 58 452 61 465 c 128,-1,6
 64 478 64 478 74 485.5 c 128,-1,7
 84 493 84 493 100 493 c 0,8,9
 117 493 117 493 126 485 c 128,-1,10
 135 477 135 477 140 456 c 2,11,-1
 239 60 l 1,12,-1
 212 60 l 1,13,-1
 444 465 l 2,14,15
 453 480 453 480 462.5 486.5 c 128,-1,16
 472 493 472 493 488 493 c 256,17,18
 504 493 504 493 513.5 485.5 c 128,-1,19
 523 478 523 478 523.5 466 c 128,-1,20
 524 454 524 454 515 439 c 2,21,-1
 272 26 l 2,22,23
 262 9 262 9 250 1 c 128,-1,24
 238 -7 238 -7 221 -7 c 0,0,1
EndSplineSet
EndChar

StartChar: w
Encoding: 119 119 465
Width: 841
GlyphClass: 2
Flags: W
AnchorPoint: "Anchor-2" 381 0 basechar 0
AnchorPoint: "Anchor-0" 453 484 basechar 0
LayerCount: 2
Fore
SplineSet
205 -7 m 0,0,1
 188 -7 188 -7 175.5 3 c 128,-1,2
 163 13 163 13 159 34 c 2,3,-1
 75 434 l 2,4,5
 71 452 71 452 74 465 c 128,-1,6
 77 478 77 478 87 485.5 c 128,-1,7
 97 493 97 493 111 493 c 0,8,9
 129 493 129 493 137 484.5 c 128,-1,10
 145 476 145 476 148 456 c 2,11,-1
 224 60 l 1,12,-1
 199 60 l 1,13,-1
 410 465 l 2,14,15
 418 480 418 480 429 486.5 c 128,-1,16
 440 493 440 493 455 493 c 256,17,18
 470 493 470 493 481 485 c 128,-1,19
 492 477 492 477 496 458 c 2,20,-1
 574 60 l 1,21,-1
 551 60 l 1,22,-1
 758 463 l 2,23,24
 767 480 767 480 777 486.5 c 128,-1,25
 787 493 787 493 803 493 c 256,26,27
 819 493 819 493 827.5 486 c 128,-1,28
 836 479 836 479 836.5 467 c 128,-1,29
 837 455 837 455 830 441 c 2,30,-1
 611 26 l 2,31,32
 602 10 602 10 589 1.5 c 128,-1,33
 576 -7 576 -7 559 -7 c 256,34,35
 542 -7 542 -7 529.5 3.5 c 128,-1,36
 517 14 517 14 512 34 c 2,37,-1
 432 423 l 1,38,-1
 465 423 l 1,39,-1
 258 27 l 2,40,41
 249 10 249 10 236 1.5 c 128,-1,42
 223 -7 223 -7 205 -7 c 0,0,1
EndSplineSet
EndChar

StartChar: x
Encoding: 120 120 470
Width: 525
GlyphClass: 2
Flags: W
AnchorPoint: "Anchor-2" 224 0 basechar 0
AnchorPoint: "Anchor-0" 300 484 basechar 0
LayerCount: 2
Fore
SplineSet
45 -7 m 0,0,1
 28 -7 28 -7 19 1.5 c 128,-1,2
 10 10 10 10 10 23 c 128,-1,3
 10 36 10 36 21 47 c 2,4,-1
 232 268 l 1,5,-1
 231 230 l 1,6,-1
 99 435 l 2,7,8
 89 452 89 452 90.5 465 c 128,-1,9
 92 478 92 478 102 485.5 c 128,-1,10
 112 493 112 493 125 493 c 256,11,12
 138 493 138 493 148.5 487 c 128,-1,13
 159 481 159 481 168 467 c 2,14,-1
 281 289 l 1,15,-1
 259 289 l 1,16,-1
 427 471 l 2,17,18
 438 483 438 483 447 488 c 128,-1,19
 456 493 456 493 471 493 c 0,20,21
 488 493 488 493 497 484.5 c 128,-1,22
 506 476 506 476 505.5 464 c 128,-1,23
 505 452 505 452 495 440 c 2,24,-1
 299 232 l 1,25,-1
 298 269 l 1,26,-1
 439 52 l 2,27,28
 451 36 451 36 448.5 22.5 c 128,-1,29
 446 9 446 9 436 1 c 128,-1,30
 426 -7 426 -7 413 -7 c 256,31,32
 400 -7 400 -7 389 0 c 128,-1,33
 378 7 378 7 370 19 c 2,34,-1
 248 211 l 1,35,-1
 273 209 l 1,36,-1
 88 15 l 2,37,38
 77 4 77 4 68 -1.5 c 128,-1,39
 59 -7 59 -7 45 -7 c 0,0,1
EndSplineSet
EndChar

StartChar: y
Encoding: 121 121 471
Width: 514
GlyphClass: 2
Flags: W
AnchorPoint: "Anchor-2" 350 0 basechar 0
AnchorPoint: "Anchor-0" 284 484 basechar 0
LayerCount: 2
Fore
SplineSet
119 -187 m 256,0,1
 103 -187 103 -187 94.5 -179 c 128,-1,2
 86 -171 86 -171 86 -158.5 c 128,-1,3
 86 -146 86 -146 94 -132 c 2,4,-1
 187 25 l 1,5,-1
 182 -10 l 1,6,-1
 62 436 l 2,7,8
 57 453 57 453 60 466 c 128,-1,9
 63 479 63 479 73.5 486 c 128,-1,10
 84 493 84 493 99 493 c 0,11,12
 117 493 117 493 125.5 485 c 128,-1,13
 134 477 134 477 139 456 c 2,14,-1
 238 59 l 1,15,-1
 210 59 l 1,16,-1
 443 464 l 2,17,18
 452 479 452 479 462 486 c 128,-1,19
 472 493 472 493 487 493 c 0,20,21
 503 493 503 493 512.5 485.5 c 128,-1,22
 522 478 522 478 523 465.5 c 128,-1,23
 524 453 524 453 515 438 c 2,24,-1
 163 -157 l 2,25,26
 155 -172 155 -172 145 -179.5 c 128,-1,27
 135 -187 135 -187 119 -187 c 256,0,1
EndSplineSet
EndChar

StartChar: uni01B4
Encoding: 436 436 478
Width: 551
GlyphClass: 1
Flags: W
LayerCount: 2
Fore
SplineSet
120 -187 m 0,0,1
 104 -187 104 -187 95 -179 c 128,-1,2
 86 -171 86 -171 86 -158.5 c 128,-1,3
 86 -146 86 -146 94 -132 c 2,4,-1
 187 25 l 1,5,-1
 182 -10 l 1,6,-1
 62 434 l 2,7,8
 57 451 57 451 60.5 464.5 c 128,-1,9
 64 478 64 478 74 485.5 c 128,-1,10
 84 493 84 493 100 493 c 0,11,12
 117 493 117 493 125.5 485 c 128,-1,13
 134 477 134 477 139 456 c 2,14,-1
 238 59 l 1,15,-1
 210 59 l 1,16,-1
 401 391 l 2,17,18
 422 428 422 428 445 451 c 128,-1,19
 468 474 468 474 496.5 484.5 c 128,-1,20
 525 495 525 495 563 495 c 0,21,22
 600 495 600 495 614.5 486.5 c 128,-1,23
 629 478 629 478 629 462 c 0,24,25
 629 447 629 447 621 437 c 128,-1,26
 613 427 613 427 601 427 c 0,27,28
 597 427 597 427 586.5 428 c 128,-1,29
 576 429 576 429 566 429 c 0,30,31
 535 429 535 429 512.5 412.5 c 128,-1,32
 490 396 490 396 463 352 c 2,33,-1
 164 -157 l 2,34,35
 155 -172 155 -172 145 -179.5 c 128,-1,36
 135 -187 135 -187 120 -187 c 0,0,1
EndSplineSet
EndChar

StartChar: z
Encoding: 122 122 482
Width: 463
GlyphClass: 2
Flags: W
AnchorPoint: "Anchor-2" 210 0 basechar 0
AnchorPoint: "Anchor-0" 273 484 basechar 0
LayerCount: 2
Fore
SplineSet
55 0 m 2,0,1
 42 0 42 0 33.5 5.5 c 128,-1,2
 25 11 25 11 21 20 c 128,-1,3
 17 29 17 29 20 39.5 c 128,-1,4
 23 50 23 50 32 61 c 2,5,-1
 374 444 l 1,6,-1
 377 424 l 1,7,-1
 115 424 l 2,8,9
 99 424 99 424 90.5 431 c 128,-1,10
 82 438 82 438 82 450 c 0,11,12
 82 467 82 467 92 476.5 c 128,-1,13
 102 486 102 486 119 486 c 2,14,-1
 423 486 l 2,15,16
 436 486 436 486 445 480.5 c 128,-1,17
 454 475 454 475 457 466 c 128,-1,18
 460 457 460 457 456.5 445.5 c 128,-1,19
 453 434 453 434 442 422 c 2,20,-1
 101 40 l 1,21,-1
 98 63 l 1,22,-1
 373 63 l 2,23,24
 407 63 407 63 407 37 c 0,25,26
 407 20 407 20 397 10 c 128,-1,27
 387 0 387 0 370 0 c 2,28,-1
 55 0 l 2,0,1
EndSplineSet
EndChar

StartChar: germandbls.calt
Encoding: 65540 -1 487
Width: 713
GlyphClass: 1
Flags: W
LayerCount: 2
Fore
SplineSet
399 -9 m 0,0,1
 351 -9 351 -9 306 4.5 c 128,-1,2
 261 18 261 18 228 42 c 0,3,4
 217 49 217 49 213.5 60 c 128,-1,5
 210 71 210 71 212.5 81 c 128,-1,6
 215 91 215 91 222.5 98.5 c 128,-1,7
 230 106 230 106 241 107.5 c 128,-1,8
 252 109 252 109 264 101 c 0,9,10
 295 81 295 81 329 71.5 c 128,-1,11
 363 62 363 62 399 62 c 0,12,13
 478 62 478 62 519.5 100 c 128,-1,14
 561 138 561 138 561 206 c 0,15,16
 561 261 561 261 524 290.5 c 128,-1,17
 487 320 487 320 416 320 c 2,18,-1
 320 320 l 2,19,20
 307 320 307 320 298.5 327.5 c 128,-1,21
 290 335 290 335 290 347 c 0,22,23
 290 368 290 368 300 378 c 128,-1,24
 310 388 310 388 327 388 c 2,25,-1
 417 388 l 2,26,27
 490 388 490 388 533.5 423 c 128,-1,28
 577 458 577 458 577 527 c 0,29,30
 577 579 577 579 536 611 c 128,-1,31
 495 643 495 643 419 643 c 0,32,33
 323 643 323 643 271 597.5 c 128,-1,34
 219 552 219 552 204 459 c 2,35,-1
 136 33 l 2,36,37
 133 13 133 13 122 3 c 128,-1,38
 111 -7 111 -7 90 -7 c 0,39,40
 70 -7 70 -7 60.5 5 c 128,-1,41
 51 17 51 17 55 40 c 2,42,-1
 123 467 l 2,43,44
 137 553 137 553 175 607.5 c 128,-1,45
 213 662 213 662 275.5 688 c 128,-1,46
 338 714 338 714 426 714 c 0,47,48
 501 714 501 714 552.5 690.5 c 128,-1,49
 604 667 604 667 631 626.5 c 128,-1,50
 658 586 658 586 658 536 c 0,51,52
 658 461 658 461 612.5 411.5 c 128,-1,53
 567 362 567 362 499 350 c 1,54,-1
 499 365 l 1,55,56
 544 357 544 357 575.5 334.5 c 128,-1,57
 607 312 607 312 624.5 278 c 128,-1,58
 642 244 642 244 642 202 c 0,59,60
 642 138 642 138 614 90.5 c 128,-1,61
 586 43 586 43 532 17 c 128,-1,62
 478 -9 478 -9 399 -9 c 0,0,1
EndSplineSet
EndChar

StartChar: a.ss01
Encoding: 65542 -1 489
Width: 583
GlyphClass: 2
Flags: W
AnchorPoint: "Anchor-3" 452 0 basechar 0
AnchorPoint: "Anchor-2" 255 0 basechar 0
AnchorPoint: "Anchor-0" 318 484 basechar 0
LayerCount: 2
Fore
SplineSet
232 -9 m 0,0,1
 175 -9 175 -9 133 16.5 c 128,-1,2
 91 42 91 42 67.5 89 c 128,-1,3
 44 136 44 136 44 199 c 0,4,5
 44 280 44 280 72.5 347.5 c 128,-1,6
 101 415 101 415 155.5 455 c 128,-1,7
 210 495 210 495 288 495 c 0,8,9
 346 495 346 495 392.5 465.5 c 128,-1,10
 439 436 439 436 455 375 c 1,11,-1
 447 365 l 1,12,-1
 461 453 l 2,13,14
 464 473 464 473 476 483 c 128,-1,15
 488 493 488 493 507 493 c 256,16,17
 526 493 526 493 534.5 481 c 128,-1,18
 543 469 543 469 540 446 c 2,19,-1
 474 33 l 2,20,21
 471 13 471 13 459.5 3 c 128,-1,22
 448 -7 448 -7 428 -7 c 0,23,24
 409 -7 409 -7 401 6 c 128,-1,25
 393 19 393 19 397 41 c 2,26,-1
 409 117 l 1,27,-1
 415 103 l 1,28,29
 389 52 389 52 342 21.5 c 128,-1,30
 295 -9 295 -9 232 -9 c 0,0,1
257 56 m 0,31,32
 313 56 313 56 351 87 c 128,-1,33
 389 118 389 118 409 170 c 128,-1,34
 429 222 429 222 429 284 c 0,35,36
 429 356 429 356 394 393 c 128,-1,37
 359 430 359 430 298 430 c 0,38,39
 243 430 243 430 204.5 399 c 128,-1,40
 166 368 166 368 146 317 c 128,-1,41
 126 266 126 266 126 202 c 0,42,43
 126 131 126 131 161 93.5 c 128,-1,44
 196 56 196 56 257 56 c 0,31,32
EndSplineSet
EndChar

StartChar: l.ss02
Encoding: 65569 -1 516
Width: 232
GlyphClass: 2
Flags: W
AnchorPoint: "Anchor-5" 134 357 basechar 0
AnchorPoint: "Anchor-2" 77 0 basechar 0
AnchorPoint: "Anchor-1" 275 705 basechar 0
AnchorPoint: "Anchor-0" 189 705 basechar 0
LayerCount: 2
Fore
SplineSet
76 -7 m 0,0,1
 57 -7 57 -7 48.5 5.5 c 128,-1,2
 40 18 40 18 43 40 c 2,3,-1
 143 671 l 2,4,5
 147 692 147 692 158.5 702 c 128,-1,6
 170 712 170 712 190 712 c 0,7,8
 209 712 209 712 218 700 c 128,-1,9
 227 688 227 688 223 665 c 2,10,-1
 123 32 l 2,11,12
 117 -7 117 -7 76 -7 c 0,0,1
EndSplineSet
EndChar

StartChar: fi
Encoding: 64257 64257 525
Width: 559
GlyphClass: 3
LigCaretCntFixed: 1
Flags: W
LayerCount: 2
Fore
SplineSet
103 -7 m 0,0,1
 84 -7 84 -7 75.5 5.5 c 128,-1,2
 67 18 67 18 70 41 c 2,3,-1
 131 423 l 1,4,-1
 71 423 l 2,5,6
 55 423 55 423 47 429.5 c 128,-1,7
 39 436 39 436 39 448 c 0,8,9
 39 466 39 466 49.5 476 c 128,-1,10
 60 486 60 486 78 486 c 2,11,-1
 152 486 l 1,12,-1
 139 475 l 1,13,-1
 146 524 l 2,14,15
 159 605 159 605 210 652.5 c 128,-1,16
 261 700 261 700 351 705 c 2,17,-1
 380 707 l 2,18,19
 394 708 394 708 402 702.5 c 128,-1,20
 410 697 410 697 413 687.5 c 128,-1,21
 416 678 416 678 413.5 668.5 c 128,-1,22
 411 659 411 659 404.5 652 c 128,-1,23
 398 645 398 645 387 644 c 2,24,-1
 357 642 l 2,25,26
 300 638 300 638 268 608.5 c 128,-1,27
 236 579 236 579 227 522 c 2,28,-1
 220 478 l 1,29,-1
 213 486 l 1,30,-1
 481 486 l 2,31,32
 500 486 500 486 509 475.5 c 128,-1,33
 518 465 518 465 514 443 c 2,34,-1
 449 33 l 2,35,36
 447 13 447 13 435.5 3 c 128,-1,37
 424 -7 424 -7 403 -7 c 0,38,39
 384 -7 384 -7 375 5.5 c 128,-1,40
 366 18 366 18 369 41 c 2,41,-1
 430 423 l 1,42,-1
 212 423 l 1,43,-1
 150 33 l 2,44,45
 143 -7 143 -7 103 -7 c 0,0,1
502 603 m 0,46,47
 480 603 480 603 468 615 c 128,-1,48
 456 627 456 627 458 648 c 0,49,50
 460 674 460 674 475.5 688 c 128,-1,51
 491 702 491 702 518 702 c 0,52,53
 540 702 540 702 552.5 690.5 c 128,-1,54
 565 679 565 679 563 657 c 0,55,56
 561 631 561 631 545.5 617 c 128,-1,57
 530 603 530 603 502 603 c 0,46,47
EndSplineSet
Ligature2: "'liga' Standard Ligatures lookup 33 subtable" f i
LCarets2: 1 279
EndChar

StartChar: ordfeminine
Encoding: 170 170 529
Width: 327
GlyphClass: 1
Flags: W
LayerCount: 2
Fore
SplineSet
168 411 m 0,0,1
 126 411 126 411 97.5 437.5 c 128,-1,2
 69 464 69 464 69 501 c 0,3,4
 69 545 69 545 110.5 566 c 128,-1,5
 152 587 152 587 239 587 c 2,6,-1
 304 587 l 1,7,-1
 298 551 l 1,8,-1
 246 551 l 2,9,10
 180 551 180 551 153 540 c 128,-1,11
 126 529 126 529 126 503 c 0,12,13
 126 481 126 481 141.5 467 c 128,-1,14
 157 453 157 453 181 453 c 0,15,16
 204 453 204 453 225.5 463.5 c 128,-1,17
 247 474 247 474 261.5 492.5 c 128,-1,18
 276 511 276 511 280 534 c 2,19,-1
 291 603 l 2,20,21
 296 637 296 637 277 653 c 128,-1,22
 258 669 258 669 223 669 c 0,23,24
 202 669 202 669 182 664 c 128,-1,25
 162 659 162 659 143 650 c 0,26,27
 131 645 131 645 122.5 648 c 128,-1,28
 114 651 114 651 111 659.5 c 128,-1,29
 108 668 108 668 111.5 677 c 128,-1,30
 115 686 115 686 127 691 c 0,31,32
 148 702 148 702 173.5 708 c 128,-1,33
 199 714 199 714 227 714 c 0,34,35
 269 714 269 714 297.5 698.5 c 128,-1,36
 326 683 326 683 338.5 654.5 c 128,-1,37
 351 626 351 626 345 588 c 2,38,-1
 320 437 l 2,39,40
 316 411 316 411 291 411 c 0,41,42
 277 411 277 411 271 419 c 128,-1,43
 265 427 265 427 267 440 c 2,44,-1
 272 470 l 1,45,-1
 269 470 l 1,46,47
 253 442 253 442 227.5 426.5 c 128,-1,48
 202 411 202 411 168 411 c 0,0,1
EndSplineSet
EndChar

StartChar: ordmasculine
Encoding: 186 186 530
Width: 339
GlyphClass: 1
Flags: W
LayerCount: 2
Fore
SplineSet
214 412 m 0,0,1
 173 412 173 412 141.5 429 c 128,-1,2
 110 446 110 446 92 477.5 c 128,-1,3
 74 509 74 509 74 551 c 0,4,5
 74 601 74 601 95 637.5 c 128,-1,6
 116 674 116 674 150 694 c 128,-1,7
 184 714 184 714 226 714 c 0,8,9
 267 714 267 714 298.5 696.5 c 128,-1,10
 330 679 330 679 348 648.5 c 128,-1,11
 366 618 366 618 366 575 c 0,12,13
 366 525 366 525 345.5 488 c 128,-1,14
 325 451 325 451 290.5 431.5 c 128,-1,15
 256 412 256 412 214 412 c 0,0,1
215 457 m 0,16,17
 256 457 256 457 281.5 487.5 c 128,-1,18
 307 518 307 518 307 576 c 0,19,20
 307 620 307 620 285 644 c 128,-1,21
 263 668 263 668 225 668 c 0,22,23
 184 668 184 668 158 638 c 128,-1,24
 132 608 132 608 132 550 c 0,25,26
 132 506 132 506 154.5 481.5 c 128,-1,27
 177 457 177 457 215 457 c 0,16,17
EndSplineSet
EndChar

StartChar: uni0411
Encoding: 1041 1041 532
Width: 660
GlyphClass: 1
Flags: W
LayerCount: 2
Fore
SplineSet
98 0 m 2,0,1
 75 0 75 0 64 13 c 128,-1,2
 53 26 53 26 56 49 c 2,3,-1
 154 664 l 2,4,5
 157 685 157 685 169.5 695 c 128,-1,6
 182 705 182 705 202 705 c 2,7,-1
 576 705 l 2,8,9
 594 705 594 705 603.5 698 c 128,-1,10
 613 691 613 691 613 677 c 0,11,12
 613 658 613 658 602 647 c 128,-1,13
 591 636 591 636 572 636 c 2,14,-1
 230 636 l 1,15,-1
 191 394 l 1,16,-1
 386 394 l 2,17,18
 496 394 496 394 551.5 345 c 128,-1,19
 607 296 607 296 607 217 c 0,20,21
 607 110 607 110 541.5 55 c 128,-1,22
 476 0 476 0 351 0 c 2,23,-1
 98 0 l 2,0,1
140 69 m 1,24,-1
 355 69 l 2,25,26
 440 69 440 69 482.5 105 c 128,-1,27
 525 141 525 141 525 213 c 0,28,29
 525 269 525 269 488 297 c 128,-1,30
 451 325 451 325 378 325 c 2,31,-1
 181 325 l 1,32,-1
 140 69 l 1,24,-1
EndSplineSet
EndChar

StartChar: uni0413
Encoding: 1043 1043 534
Width: 542
GlyphClass: 2
Flags: W
AnchorPoint: "Anchor-4" 172 354 basechar 0
AnchorPoint: "Anchor-0" 350 705 basechar 0
LayerCount: 2
Fore
SplineSet
90 -7 m 256,0,1
 69 -7 69 -7 60 6 c 128,-1,2
 51 19 51 19 55 43 c 2,3,-1
 154 664 l 2,4,5
 157 685 157 685 169.5 695 c 128,-1,6
 182 705 182 705 202 705 c 2,7,-1
 567 705 l 2,8,9
 586 705 586 705 596 697.5 c 128,-1,10
 606 690 606 690 606 676 c 0,11,12
 606 656 606 656 594.5 645 c 128,-1,13
 583 634 583 634 563 634 c 2,14,-1
 232 634 l 1,15,-1
 137 35 l 2,16,17
 134 15 134 15 122.5 4 c 128,-1,18
 111 -7 111 -7 90 -7 c 256,0,1
EndSplineSet
EndChar

StartChar: uni0490
Encoding: 1168 1168 536
Width: 542
GlyphClass: 1
Flags: W
LayerCount: 2
Fore
SplineSet
91 -7 m 256,0,1
 70 -7 70 -7 60.5 6 c 128,-1,2
 51 19 51 19 55 43 c 2,3,-1
 154 664 l 2,4,5
 157 685 157 685 169.5 695 c 128,-1,6
 182 705 182 705 202 705 c 2,7,-1
 526 705 l 1,8,-1
 547 831 l 2,9,10
 552 867 552 867 588 867 c 0,11,12
 606 867 606 867 614.5 855.5 c 128,-1,13
 623 844 623 844 620 824 c 2,14,-1
 596 675 l 2,15,16
 593 654 593 654 581 644 c 128,-1,17
 569 634 569 634 548 634 c 2,18,-1
 232 634 l 1,19,-1
 137 35 l 2,20,21
 134 15 134 15 123 4 c 128,-1,22
 112 -7 112 -7 91 -7 c 256,0,1
EndSplineSet
EndChar

StartChar: uni04F6
Encoding: 1270 1270 537
Width: 542
GlyphClass: 1
Flags: W
LayerCount: 2
Fore
SplineSet
169 -163 m 0,0,1
 153 -163 153 -163 144.5 -152 c 128,-1,2
 136 -141 136 -141 139 -120 c 2,3,-1
 158 0 l 1,4,-1
 91 0 l 2,5,6
 70 0 70 0 61 13 c 128,-1,7
 52 26 52 26 56 49 c 2,8,-1
 154 664 l 2,9,10
 157 685 157 685 169.5 695 c 128,-1,11
 182 705 182 705 202 705 c 2,12,-1
 567 705 l 2,13,14
 586 705 586 705 596 697.5 c 128,-1,15
 606 690 606 690 606 676 c 0,16,17
 606 656 606 656 594.5 645 c 128,-1,18
 583 634 583 634 563 634 c 2,19,-1
 232 634 l 1,20,-1
 137 41 l 1,21,-1
 113 69 l 1,22,-1
 196 69 l 2,23,24
 218 69 218 69 228.5 58 c 128,-1,25
 239 47 239 47 235 25 c 2,26,-1
 211 -127 l 2,27,28
 209 -145 209 -145 198.5 -154 c 128,-1,29
 188 -163 188 -163 169 -163 c 0,0,1
EndSplineSet
EndChar

StartChar: uni0492
Encoding: 1170 1170 538
Width: 578
GlyphClass: 1
Flags: W
LayerCount: 2
Fore
SplineSet
127 -7 m 256,0,1
 106 -7 106 -7 97 6.5 c 128,-1,2
 88 20 88 20 92 43 c 2,3,-1
 135 321 l 1,4,-1
 75 321 l 2,5,6
 59 321 59 321 49.5 328 c 128,-1,7
 40 335 40 335 40 347 c 0,8,9
 40 365 40 365 50.5 374.5 c 128,-1,10
 61 384 61 384 79 384 c 2,11,-1
 146 384 l 1,12,-1
 190 664 l 2,13,14
 193 685 193 685 205.5 695 c 128,-1,15
 218 705 218 705 239 705 c 2,16,-1
 604 705 l 2,17,18
 623 705 623 705 632.5 697.5 c 128,-1,19
 642 690 642 690 642 676 c 0,20,21
 642 656 642 656 631 645 c 128,-1,22
 620 634 620 634 600 634 c 2,23,-1
 267 634 l 1,24,-1
 228 384 l 1,25,-1
 376 384 l 2,26,27
 393 384 393 384 402 377.5 c 128,-1,28
 411 371 411 371 411 358 c 0,29,30
 411 341 411 341 400.5 331 c 128,-1,31
 390 321 390 321 372 321 c 2,32,-1
 218 321 l 1,33,-1
 172 35 l 2,34,35
 170 15 170 15 159 4 c 128,-1,36
 148 -7 148 -7 127 -7 c 256,0,1
EndSplineSet
Substitution2: "'locl' Localized Forms in Cyrillic lookup 16 subtable" uni0492.loclBSH
Substitution2: "'aalt' Access All Alternates lookup 0 subtable" uni0492.loclBSH
EndChar

StartChar: uni0494
Encoding: 1172 1172 539
Width: 669
GlyphClass: 1
Flags: W
LayerCount: 2
Fore
SplineSet
349 -189 m 0,0,1
 325 -189 325 -189 301 -185.5 c 128,-1,2
 277 -182 277 -182 258 -177 c 0,3,4
 245 -174 245 -174 238.5 -165.5 c 128,-1,5
 232 -157 232 -157 232 -146.5 c 128,-1,6
 232 -136 232 -136 236.5 -127 c 128,-1,7
 241 -118 241 -118 250 -113 c 128,-1,8
 259 -108 259 -108 271 -111 c 0,9,10
 287 -115 287 -115 304 -117.5 c 128,-1,11
 321 -120 321 -120 340 -120 c 0,12,13
 403 -120 403 -120 443 -78 c 128,-1,14
 483 -36 483 -36 497 48 c 2,15,-1
 512 137 l 2,16,17
 531 252 531 252 489 307 c 128,-1,18
 447 362 447 362 351 362 c 0,19,20
 307 362 307 362 264.5 353 c 128,-1,21
 222 344 222 344 182 323 c 1,22,-1
 136 34 l 2,23,24
 134 14 134 14 122.5 3.5 c 128,-1,25
 111 -7 111 -7 90 -7 c 0,26,27
 70 -7 70 -7 61 6 c 128,-1,28
 52 19 52 19 55 42 c 2,29,-1
 154 664 l 2,30,31
 157 685 157 685 169.5 695 c 128,-1,32
 182 705 182 705 203 705 c 2,33,-1
 578 705 l 2,34,35
 597 705 597 705 607 697.5 c 128,-1,36
 617 690 617 690 617 676 c 0,37,38
 617 656 617 656 605.5 645 c 128,-1,39
 594 634 594 634 574 634 c 2,40,-1
 232 634 l 1,41,-1
 195 399 l 1,42,43
 229 417 229 417 272 426 c 128,-1,44
 315 435 315 435 362 435 c 0,45,46
 426 435 426 435 475 416 c 128,-1,47
 524 397 524 397 554.5 360 c 128,-1,48
 585 323 585 323 595.5 268.5 c 128,-1,49
 606 214 606 214 594 143 c 2,50,-1
 580 51 l 2,51,52
 567 -26 567 -26 537.5 -80 c 128,-1,53
 508 -134 508 -134 461 -161.5 c 128,-1,54
 414 -189 414 -189 349 -189 c 0,0,1
EndSplineSet
EndChar

StartChar: uni0414
Encoding: 1044 1044 540
Width: 778
GlyphClass: 1
Flags: W
AnchorPoint: "Anchor-0" 490 704 basechar 0
LayerCount: 2
Fore
SplineSet
-10 -164 m 0,0,1
 -28 -164 -28 -164 -35.5 -153 c 128,-1,2
 -43 -142 -43 -142 -41 -121 c 2,3,-1
 -17 31 l 2,4,5
 -12 69 -12 69 27 69 c 2,6,-1
 83 69 l 1,7,-1
 48 59 l 1,8,9
 114 120 114 120 158.5 232.5 c 128,-1,10
 203 345 203 345 232 521 c 2,11,-1
 254 664 l 2,12,13
 258 684 258 684 270 694.5 c 128,-1,14
 282 705 282 705 303 705 c 2,15,-1
 680 705 l 2,16,17
 703 705 703 705 714 692.5 c 128,-1,18
 725 680 725 680 721 656 c 2,19,-1
 624 40 l 1,20,-1
 605 69 l 1,21,-1
 684 69 l 2,22,23
 705 69 705 69 715 57 c 128,-1,24
 725 45 725 45 721 24 c 2,25,-1
 696 -128 l 2,26,27
 690 -164 690 -164 655 -164 c 0,28,29
 637 -164 637 -164 629 -152.5 c 128,-1,30
 621 -141 621 -141 623 -121 c 2,31,-1
 643 0 l 1,32,-1
 53 0 l 1,33,-1
 32 -128 l 2,34,35
 27 -164 27 -164 -10 -164 c 0,0,1
150 69 m 1,36,-1
 546 69 l 1,37,-1
 636 636 l 1,38,-1
 327 636 l 1,39,-1
 309 517 l 2,40,41
 283 352 283 352 245 241.5 c 128,-1,42
 207 131 207 131 150 69 c 1,36,-1
EndSplineSet
EndChar

StartChar: uni0416
Encoding: 1046 1046 544
Width: 968
GlyphClass: 2
Flags: W
AnchorPoint: "Anchor-0" 557 705 basechar 0
LayerCount: 2
Fore
SplineSet
446 -7 m 256,0,1
 426 -7 426 -7 417.5 5 c 128,-1,2
 409 17 409 17 412 38 c 2,3,-1
 457 320 l 1,4,-1
 371 320 l 2,5,6
 315 320 315 320 273.5 294 c 128,-1,7
 232 268 232 268 194 207 c 2,8,-1
 73 16 l 2,9,10
 64 2 64 2 51.5 -3 c 128,-1,11
 39 -8 39 -8 27 -6 c 128,-1,12
 15 -4 15 -4 6.5 4.5 c 128,-1,13
 -2 13 -2 13 -2.5 26.5 c 128,-1,14
 -3 40 -3 40 8 56 c 2,15,-1
 128 245 l 2,16,17
 170 311 170 311 218.5 346 c 128,-1,18
 267 381 267 381 329 388 c 1,19,-1
 301 361 l 1,20,-1
 150 656 l 2,21,22
 142 671 142 671 145 683 c 128,-1,23
 148 695 148 695 157 702.5 c 128,-1,24
 166 710 166 710 178.5 711 c 128,-1,25
 191 712 191 712 202.5 706.5 c 128,-1,26
 214 701 214 701 221 686 c 2,27,-1
 377 375 l 1,28,-1
 356 391 l 1,29,-1
 467 391 l 1,30,-1
 513 674 l 2,31,32
 516 693 516 693 527 702.5 c 128,-1,33
 538 712 538 712 557 712 c 0,34,35
 577 712 577 712 586 700 c 128,-1,36
 595 688 595 688 591 667 c 2,37,-1
 547 391 l 1,38,-1
 648 391 l 1,39,-1
 629 375 l 1,40,-1
 889 692 l 2,41,42
 899 706 899 706 911.5 709 c 128,-1,43
 924 712 924 712 935.5 709 c 128,-1,44
 947 706 947 706 953.5 697 c 128,-1,45
 960 688 960 688 959.5 675.5 c 128,-1,46
 959 663 959 663 947 648 c 2,47,-1
 709 361 l 1,48,-1
 674 388 l 1,49,50
 713 383 713 383 744.5 365.5 c 128,-1,51
 776 348 776 348 798.5 318 c 128,-1,52
 821 288 821 288 836 245 c 2,53,-1
 903 48 l 2,54,55
 908 32 908 32 904 19.5 c 128,-1,56
 900 7 900 7 889.5 0.5 c 128,-1,57
 879 -6 879 -6 866.5 -6 c 128,-1,58
 854 -6 854 -6 843 1.5 c 128,-1,59
 832 9 832 9 826 25 c 2,60,-1
 767 207 l 2,61,62
 747 268 747 268 712.5 294 c 128,-1,63
 678 320 678 320 623 320 c 2,64,-1
 537 320 l 1,65,-1
 490 31 l 2,66,67
 488 13 488 13 477 3 c 128,-1,68
 466 -7 466 -7 446 -7 c 256,0,1
EndSplineSet
EndChar

StartChar: uni0417
Encoding: 1047 1047 545
Width: 640
GlyphClass: 2
Flags: W
AnchorPoint: "Anchor-2" 289 0 basechar 0
AnchorPoint: "Anchor-0" 387 705 basechar 0
LayerCount: 2
Fore
SplineSet
301 -9 m 0,0,1
 225 -9 225 -9 161 9 c 128,-1,2
 97 27 97 27 44 66 c 0,3,4
 33 74 33 74 29.5 85.5 c 128,-1,5
 26 97 26 97 28.5 108 c 128,-1,6
 31 119 31 119 38.5 126 c 128,-1,7
 46 133 46 133 57.5 134 c 128,-1,8
 69 135 69 135 83 126 c 0,9,10
 116 103 116 103 150.5 89.5 c 128,-1,11
 185 76 185 76 223 70 c 128,-1,12
 261 64 261 64 303 64 c 0,13,14
 352 64 352 64 394 77.5 c 128,-1,15
 436 91 436 91 462 123 c 128,-1,16
 488 155 488 155 488 209 c 0,17,18
 488 266 488 266 451.5 294.5 c 128,-1,19
 415 323 415 323 346 323 c 2,20,-1
 211 323 l 2,21,22
 193 323 193 323 183 331 c 128,-1,23
 173 339 173 339 174 354 c 0,24,25
 175 371 175 371 186 381 c 128,-1,26
 197 391 197 391 216 391 c 2,27,-1
 355 391 l 2,28,29
 432 391 432 391 477.5 426.5 c 128,-1,30
 523 462 523 462 523 531 c 0,31,32
 523 571 523 571 503 595 c 128,-1,33
 483 619 483 619 448.5 630 c 128,-1,34
 414 641 414 641 369 641 c 0,35,36
 316 641 316 641 264 627 c 128,-1,37
 212 613 212 613 167 583 c 0,38,39
 151 574 151 574 139 575 c 128,-1,40
 127 576 127 576 119 583.5 c 128,-1,41
 111 591 111 591 109 602 c 128,-1,42
 107 613 107 613 112.5 624.5 c 128,-1,43
 118 636 118 636 132 644 c 0,44,45
 184 678 184 678 248.5 696 c 128,-1,46
 313 714 313 714 377 714 c 0,47,48
 443 714 443 714 494.5 694 c 128,-1,49
 546 674 546 674 576 636 c 128,-1,50
 606 598 606 598 606 543 c 0,51,52
 606 462 606 462 557 412 c 128,-1,53
 508 362 508 362 427 350 c 1,54,-1
 427 365 l 1,55,56
 494 354 494 354 532 311.5 c 128,-1,57
 570 269 570 269 570 205 c 0,58,59
 570 131 570 131 535 83.5 c 128,-1,60
 500 36 500 36 439 13.5 c 128,-1,61
 378 -9 378 -9 301 -9 c 0,0,1
EndSplineSet
EndChar

StartChar: uni0418
Encoding: 1048 1048 546
Width: 740
GlyphClass: 2
Flags: W
AnchorPoint: "Anchor-0" 441 705 basechar 0
LayerCount: 2
Fore
SplineSet
82 -8 m 0,0,1
 72 -8 72 -8 65.5 -5 c 128,-1,2
 59 -2 59 -2 56 3.5 c 128,-1,3
 53 9 53 9 52.5 16 c 128,-1,4
 52 23 52 23 53 30 c 2,5,-1
 155 673 l 2,6,7
 159 694 159 694 170 703 c 128,-1,8
 181 712 181 712 199 712 c 0,9,10
 219 712 219 712 226.5 700 c 128,-1,11
 234 688 234 688 231 666 c 2,12,-1
 143 107 l 1,13,-1
 117 109 l 1,14,-1
 649 691 l 2,15,16
 656 699 656 699 666 705.5 c 128,-1,17
 676 712 676 712 692 712 c 0,18,19
 706 712 706 712 712.5 706 c 128,-1,20
 719 700 719 700 720.5 691.5 c 128,-1,21
 722 683 722 683 720 673 c 2,22,-1
 619 32 l 2,23,24
 616 12 616 12 605 2.5 c 128,-1,25
 594 -7 594 -7 576 -7 c 0,26,27
 556 -7 556 -7 548 5 c 128,-1,28
 540 17 540 17 543 39 c 2,29,-1
 632 598 l 1,30,-1
 656 597 l 1,31,-1
 123 13 l 2,32,33
 116 5 116 5 107 -1.5 c 128,-1,34
 98 -8 98 -8 82 -8 c 0,0,1
EndSplineSet
EndChar

StartChar: uni048A
Encoding: 1162 1162 549
Width: 778
GlyphClass: 1
Flags: W
LayerCount: 2
Fore
SplineSet
634 -142 m 2,0,1
 627 -155 627 -155 617 -160 c 128,-1,2
 607 -165 607 -165 597 -164 c 128,-1,3
 587 -163 587 -163 579.5 -157 c 128,-1,4
 572 -151 572 -151 570 -140.5 c 128,-1,5
 568 -130 568 -130 574 -117 c 2,6,-1
 645 25 l 1,7,-1
 645 0 l 1,8,-1
 579 0 l 2,9,10
 558 0 558 0 549 11 c 128,-1,11
 540 22 540 22 544 46 c 2,12,-1
 632 598 l 1,13,-1
 656 597 l 1,14,-1
 123 13 l 2,15,16
 116 5 116 5 107 -1.5 c 128,-1,17
 98 -8 98 -8 82 -8 c 0,18,19
 72 -8 72 -8 65.5 -5 c 128,-1,20
 59 -2 59 -2 56 3.5 c 128,-1,21
 53 9 53 9 52.5 16 c 128,-1,22
 52 23 52 23 53 30 c 2,23,-1
 155 673 l 2,24,25
 159 694 159 694 170 703 c 128,-1,26
 181 712 181 712 199 712 c 0,27,28
 219 712 219 712 226.5 700 c 128,-1,29
 234 688 234 688 231 666 c 2,30,-1
 143 107 l 1,31,-1
 117 109 l 1,32,-1
 649 691 l 2,33,34
 656 699 656 699 666 705.5 c 128,-1,35
 676 712 676 712 692 712 c 0,36,37
 706 712 706 712 712.5 706 c 128,-1,38
 719 700 719 700 720.5 691.5 c 128,-1,39
 722 683 722 683 720 673 c 2,40,-1
 620 42 l 1,41,-1
 609 69 l 1,42,-1
 680 69 l 2,43,44
 705 69 705 69 715 55 c 128,-1,45
 725 41 725 41 712 16 c 2,46,-1
 634 -142 l 2,0,1
446 760 m 256,47,48
 389 760 389 760 342.5 786 c 128,-1,49
 296 812 296 812 274 867 c 0,50,51
 268 882 268 882 272 891.5 c 128,-1,52
 276 901 276 901 288 906 c 256,53,54
 300 911 300 911 309 905.5 c 128,-1,55
 318 900 318 900 325 885 c 0,56,57
 343 848 343 848 372.5 830 c 128,-1,58
 402 812 402 812 448 812 c 0,59,60
 496 812 496 812 530.5 830.5 c 128,-1,61
 565 849 565 849 595 893 c 0,62,63
 602 905 602 905 610.5 908.5 c 128,-1,64
 619 912 619 912 629 907 c 0,65,66
 640 902 640 902 642.5 893 c 128,-1,67
 645 884 645 884 638 870 c 0,68,69
 603 810 603 810 553 785 c 128,-1,70
 503 760 503 760 446 760 c 256,47,48
EndSplineSet
EndChar

StartChar: uni041A
Encoding: 1050 1050 550
Width: 641
GlyphClass: 2
Flags: W
AnchorPoint: "Anchor-5" 341 353 basechar 0
AnchorPoint: "Anchor-0" 400 705 basechar 0
LayerCount: 2
Fore
SplineSet
90 -7 m 0,0,1
 70 -7 70 -7 60.5 5 c 128,-1,2
 51 17 51 17 55 40 c 2,3,-1
 156 675 l 2,4,5
 159 695 159 695 170.5 703.5 c 128,-1,6
 182 712 182 712 201 712 c 0,7,8
 222 712 222 712 231 700 c 128,-1,9
 240 688 240 688 237 665 c 2,10,-1
 193 391 l 1,11,-1
 321 391 l 1,12,-1
 301 375 l 1,13,-1
 561 692 l 2,14,15
 572 706 572 706 584.5 709.5 c 128,-1,16
 597 713 597 713 608 709.5 c 128,-1,17
 619 706 619 706 626 697 c 128,-1,18
 633 688 633 688 632.5 675.5 c 128,-1,19
 632 663 632 663 620 648 c 2,20,-1
 384 361 l 1,21,-1
 347 388 l 1,22,23
 406 381 406 381 446.5 345 c 128,-1,24
 487 309 487 309 508 245 c 2,25,-1
 575 48 l 2,26,27
 581 32 581 32 576.5 19.5 c 128,-1,28
 572 7 572 7 562 0.5 c 128,-1,29
 552 -6 552 -6 539.5 -6 c 128,-1,30
 527 -6 527 -6 515.5 1.5 c 128,-1,31
 504 9 504 9 499 25 c 2,32,-1
 439 207 l 2,33,34
 420 268 420 268 385.5 294 c 128,-1,35
 351 320 351 320 296 320 c 2,36,-1
 182 320 l 1,37,-1
 137 35 l 2,38,39
 133 14 133 14 122 3.5 c 128,-1,40
 111 -7 111 -7 90 -7 c 0,0,1
EndSplineSet
EndChar

StartChar: uni041B
Encoding: 1051 1051 552
Width: 741
GlyphClass: 2
Flags: W
LayerCount: 2
Fore
SplineSet
574 -7 m 256,0,1
 554 -7 554 -7 545 5.5 c 128,-1,2
 536 18 536 18 539 41 c 2,3,-1
 633 634 l 1,4,-1
 325 634 l 1,5,-1
 296 455 l 2,6,7
 280 350 280 350 256.5 274 c 128,-1,8
 233 198 233 198 202.5 145 c 128,-1,9
 172 92 172 92 133 56.5 c 128,-1,10
 94 21 94 21 45 -3 c 0,11,12
 28 -11 28 -11 13.5 -7.5 c 128,-1,13
 -1 -4 -1 -4 -9 12 c 0,14,15
 -16 27 -16 27 -11.5 40.5 c 128,-1,16
 -7 54 -7 54 10 63 c 0,17,18
 46 81 46 81 77.5 109 c 128,-1,19
 109 137 109 137 135.5 182.5 c 128,-1,20
 162 228 162 228 184 299.5 c 128,-1,21
 206 371 206 371 223 475 c 2,22,-1
 253 662 l 2,23,24
 256 683 256 683 268.5 694 c 128,-1,25
 281 705 281 705 301 705 c 2,26,-1
 677 705 l 2,27,28
 701 705 701 705 711.5 692.5 c 128,-1,29
 722 680 722 680 719 656 c 2,30,-1
 620 33 l 2,31,32
 618 14 618 14 606 3.5 c 128,-1,33
 594 -7 594 -7 574 -7 c 256,0,1
EndSplineSet
EndChar

StartChar: uni041F
Encoding: 1055 1055 556
Width: 755
GlyphClass: 2
Flags: W
LayerCount: 2
Fore
SplineSet
90 -7 m 0,0,1
 70 -7 70 -7 60.5 5 c 128,-1,2
 51 17 51 17 55 40 c 2,3,-1
 154 664 l 2,4,5
 157 685 157 685 169.5 695 c 128,-1,6
 182 705 182 705 202 705 c 2,7,-1
 693 705 l 2,8,9
 716 705 716 705 726.5 692.5 c 128,-1,10
 737 680 737 680 734 656 c 2,11,-1
 635 33 l 2,12,13
 633 14 633 14 621 3.5 c 128,-1,14
 609 -7 609 -7 589 -7 c 256,15,16
 569 -7 569 -7 560 5 c 128,-1,17
 551 17 551 17 554 41 c 2,18,-1
 648 634 l 1,19,-1
 232 634 l 1,20,-1
 136 33 l 2,21,22
 134 14 134 14 122.5 3.5 c 128,-1,23
 111 -7 111 -7 90 -7 c 0,0,1
EndSplineSet
EndChar

StartChar: uni0423
Encoding: 1059 1059 560
Width: 644
GlyphClass: 2
Flags: W
AnchorPoint: "Anchor-0" 385 705 basechar 0
LayerCount: 2
Fore
SplineSet
216 -7 m 256,0,1
 201 -7 201 -7 191 1 c 128,-1,2
 181 9 181 9 179.5 21.5 c 128,-1,3
 178 34 178 34 188 48 c 2,4,-1
 308 229 l 1,5,-1
 308 197 l 1,6,-1
 92 661 l 2,7,8
 86 675 86 675 89 686.5 c 128,-1,9
 92 698 92 698 102.5 705 c 128,-1,10
 113 712 113 712 127 712 c 0,11,12
 145 712 145 712 153.5 702 c 128,-1,13
 162 692 162 692 169 676 c 2,14,-1
 356 273 l 1,15,-1
 338 273 l 1,16,-1
 616 686 l 2,17,18
 624 697 624 697 634 704.5 c 128,-1,19
 644 712 644 712 659 712 c 256,20,21
 674 712 674 712 684 704.5 c 128,-1,22
 694 697 694 697 695.5 684.5 c 128,-1,23
 697 672 697 672 687 657 c 2,24,-1
 259 19 l 2,25,26
 252 8 252 8 241.5 0.5 c 128,-1,27
 231 -7 231 -7 216 -7 c 256,0,1
EndSplineSet
EndChar

StartChar: uni0424
Encoding: 1060 1060 562
Width: 845
GlyphClass: 1
Flags: W
LayerCount: 2
Fore
SplineSet
380 -29 m 256,0,1
 360 -29 360 -29 351 -16 c 128,-1,2
 342 -3 342 -3 345 19 c 2,3,-1
 356 82 l 1,4,-1
 381 56 l 1,5,-1
 375 56 l 2,6,7
 287 56 287 56 219.5 88 c 128,-1,8
 152 120 152 120 114.5 179 c 128,-1,9
 77 238 77 238 77 319 c 0,10,11
 77 385 77 385 101 445.5 c 128,-1,12
 125 506 125 506 171 554.5 c 128,-1,13
 217 603 217 603 283.5 631 c 128,-1,14
 350 659 350 659 434 659 c 2,15,-1
 467 659 l 1,16,-1
 443 634 l 1,17,-1
 453 699 l 2,18,19
 457 719 457 719 468.5 729 c 128,-1,20
 480 739 480 739 499 739 c 0,21,22
 519 739 519 739 529 727 c 128,-1,23
 539 715 539 715 535 692 c 2,24,-1
 525 632 l 1,25,-1
 500 658 l 1,26,-1
 506 658 l 2,27,28
 595 658 595 658 662 626 c 128,-1,29
 729 594 729 594 766.5 535.5 c 128,-1,30
 804 477 804 477 804 395 c 0,31,32
 804 329 804 329 780 268.5 c 128,-1,33
 756 208 756 208 710 159.5 c 128,-1,34
 664 111 664 111 598 83 c 128,-1,35
 532 55 532 55 447 55 c 2,36,-1
 414 55 l 1,37,-1
 438 80 l 1,38,-1
 427 14 l 2,39,40
 424 -8 424 -8 412 -18.5 c 128,-1,41
 400 -29 400 -29 380 -29 c 256,0,1
359 105 m 1,42,-1
 439 610 l 1,43,-1
 457 593 l 1,44,-1
 429 593 l 2,45,46
 366 593 366 593 316.5 570 c 128,-1,47
 267 547 267 547 232.5 508.5 c 128,-1,48
 198 470 198 470 180 421.5 c 128,-1,49
 162 373 162 373 162 320 c 0,50,51
 162 257 162 257 188 213 c 128,-1,52
 214 169 214 169 263 146 c 128,-1,53
 312 123 312 123 381 123 c 2,54,-1
 386 123 l 1,55,-1
 359 105 l 1,42,-1
441 104 m 1,56,-1
 425 121 l 1,57,-1
 453 121 l 2,58,59
 516 121 516 121 565.5 144 c 128,-1,60
 615 167 615 167 649.5 205.5 c 128,-1,61
 684 244 684 244 701.5 293 c 128,-1,62
 719 342 719 342 719 394 c 0,63,64
 719 457 719 457 693.5 500.5 c 128,-1,65
 668 544 668 544 620 567.5 c 128,-1,66
 572 591 572 591 503 591 c 2,67,-1
 497 591 l 1,68,-1
 521 609 l 1,69,-1
 441 104 l 1,56,-1
EndSplineSet
EndChar

StartChar: uni0427
Encoding: 1063 1063 564
Width: 675
GlyphClass: 2
Flags: W
AnchorPoint: "Anchor-5" 312 295 basechar 0
AnchorPoint: "Anchor-0" 391 705 basechar 0
LayerCount: 2
Fore
SplineSet
509 -7 m 0,0,1
 488 -7 488 -7 479.5 6 c 128,-1,2
 471 19 471 19 474 42 c 2,3,-1
 514 298 l 1,4,5
 480 281 480 281 433 271.5 c 128,-1,6
 386 262 386 262 339 262 c 0,7,8
 252 262 252 262 195 295.5 c 128,-1,9
 138 329 138 329 115.5 394 c 128,-1,10
 93 459 93 459 108 553 c 2,11,-1
 126 671 l 2,12,13
 130 692 130 692 142 702 c 128,-1,14
 154 712 154 712 173 712 c 0,15,16
 193 712 193 712 202 699 c 128,-1,17
 211 686 211 686 207 663 c 2,18,-1
 190 557 l 2,19,20
 172 443 172 443 211.5 389 c 128,-1,21
 251 335 251 335 350 335 c 0,22,23
 394 335 394 335 440.5 344.5 c 128,-1,24
 487 354 487 354 527 375 c 1,25,-1
 574 671 l 2,26,27
 577 692 577 692 589.5 702 c 128,-1,28
 602 712 602 712 621 712 c 0,29,30
 641 712 641 712 649.5 699 c 128,-1,31
 658 686 658 686 655 663 c 2,32,-1
 555 34 l 2,33,34
 552 14 552 14 540 3.5 c 128,-1,35
 528 -7 528 -7 509 -7 c 0,0,1
EndSplineSet
EndChar

StartChar: uni0426
Encoding: 1062 1062 565
Width: 791
GlyphClass: 1
Flags: W
LayerCount: 2
Fore
SplineSet
668 -164 m 0,0,1
 650 -164 650 -164 642 -152 c 128,-1,2
 634 -140 634 -140 636 -120 c 2,3,-1
 656 0 l 1,4,-1
 98 0 l 2,5,6
 75 0 75 0 64 13 c 128,-1,7
 53 26 53 26 56 49 c 2,8,-1
 156 673 l 2,9,10
 159 692 159 692 170.5 702 c 128,-1,11
 182 712 182 712 201 712 c 0,12,13
 222 712 222 712 231 700 c 128,-1,14
 240 688 240 688 237 665 c 2,15,-1
 143 71 l 1,16,-1
 559 71 l 1,17,-1
 654 671 l 2,18,19
 658 691 658 691 669 701.5 c 128,-1,20
 680 712 680 712 699 712 c 0,21,22
 720 712 720 712 729.5 700 c 128,-1,23
 739 688 739 688 736 665 c 2,24,-1
 639 55 l 1,25,-1
 613 71 l 1,26,-1
 695 71 l 2,27,28
 717 71 717 71 727.5 59 c 128,-1,29
 738 47 738 47 734 25 c 2,30,-1
 710 -128 l 2,31,32
 704 -164 704 -164 668 -164 c 0,0,1
EndSplineSet
EndChar

StartChar: uni0428
Encoding: 1064 1064 566
Width: 1053
GlyphClass: 1
Flags: W
LayerCount: 2
Fore
SplineSet
98 0 m 2,0,1
 75 0 75 0 64 13 c 128,-1,2
 53 26 53 26 57 49 c 2,3,-1
 156 672 l 2,4,5
 159 692 159 692 170.5 702 c 128,-1,6
 182 712 182 712 201 712 c 0,7,8
 221 712 221 712 230 700 c 128,-1,9
 239 688 239 688 236 665 c 2,10,-1
 142 71 l 1,11,-1
 459 71 l 1,12,-1
 554 672 l 2,13,14
 557 691 557 691 568 701.5 c 128,-1,15
 579 712 579 712 599 712 c 0,16,17
 620 712 620 712 628.5 700 c 128,-1,18
 637 688 637 688 634 665 c 2,19,-1
 540 71 l 1,20,-1
 857 71 l 1,21,-1
 952 672 l 2,22,23
 955 691 955 691 966 701.5 c 128,-1,24
 977 712 977 712 997 712 c 256,25,26
 1017 712 1017 712 1026.5 700 c 128,-1,27
 1036 688 1036 688 1032 665 c 2,28,-1
 933 42 l 2,29,30
 930 20 930 20 917.5 10 c 128,-1,31
 905 0 905 0 885 0 c 2,32,-1
 98 0 l 2,0,1
EndSplineSet
EndChar

StartChar: uni0429
Encoding: 1065 1065 567
Width: 1088
GlyphClass: 1
Flags: W
LayerCount: 2
Fore
SplineSet
964 -164 m 256,0,1
 946 -164 946 -164 938 -152 c 128,-1,2
 930 -140 930 -140 933 -120 c 2,3,-1
 952 0 l 1,4,-1
 98 0 l 2,5,6
 75 0 75 0 64 13 c 128,-1,7
 53 26 53 26 57 49 c 2,8,-1
 156 672 l 2,9,10
 159 692 159 692 170.5 702 c 128,-1,11
 182 712 182 712 201 712 c 0,12,13
 221 712 221 712 230 700 c 128,-1,14
 239 688 239 688 236 665 c 2,15,-1
 142 71 l 1,16,-1
 459 71 l 1,17,-1
 554 672 l 2,18,19
 557 691 557 691 568 701.5 c 128,-1,20
 579 712 579 712 599 712 c 0,21,22
 620 712 620 712 628.5 700 c 128,-1,23
 637 688 637 688 634 665 c 2,24,-1
 540 71 l 1,25,-1
 857 71 l 1,26,-1
 952 672 l 2,27,28
 955 691 955 691 966.5 701.5 c 128,-1,29
 978 712 978 712 997 712 c 0,30,31
 1018 712 1018 712 1027 700.5 c 128,-1,32
 1036 689 1036 689 1033 666 c 2,33,-1
 936 55 l 1,34,-1
 910 71 l 1,35,-1
 992 71 l 2,36,37
 1014 71 1014 71 1024.5 59 c 128,-1,38
 1035 47 1035 47 1031 25 c 2,39,-1
 1007 -127 l 2,40,41
 1004 -145 1004 -145 993 -154.5 c 128,-1,42
 982 -164 982 -164 964 -164 c 256,0,1
EndSplineSet
EndChar

StartChar: uni040F
Encoding: 1039 1039 568
Width: 755
GlyphClass: 1
Flags: W
LayerCount: 2
Fore
SplineSet
315 -164 m 0,0,1
 297 -164 297 -164 289 -152 c 128,-1,2
 281 -140 281 -140 284 -120 c 2,3,-1
 303 0 l 1,4,-1
 97 0 l 2,5,6
 74 0 74 0 63 13 c 128,-1,7
 52 26 52 26 56 49 c 2,8,-1
 155 672 l 2,9,10
 158 692 158 692 169.5 702 c 128,-1,11
 181 712 181 712 200 712 c 0,12,13
 221 712 221 712 230.5 700 c 128,-1,14
 240 688 240 688 237 665 c 2,15,-1
 143 71 l 1,16,-1
 559 71 l 1,17,-1
 654 673 l 2,18,19
 658 692 658 692 669 702 c 128,-1,20
 680 712 680 712 699 712 c 0,21,22
 720 712 720 712 729 700 c 128,-1,23
 738 688 738 688 735 665 c 2,24,-1
 636 42 l 2,25,26
 633 20 633 20 620.5 10 c 128,-1,27
 608 0 608 0 588 0 c 2,28,-1
 377 0 l 1,29,-1
 356 -127 l 2,30,31
 354 -145 354 -145 343 -154.5 c 128,-1,32
 332 -164 332 -164 315 -164 c 0,0,1
EndSplineSet
EndChar

StartChar: uni042C
Encoding: 1068 1068 569
Width: 660
GlyphClass: 1
Flags: W
LayerCount: 2
Fore
SplineSet
98 0 m 2,0,1
 75 0 75 0 64 13 c 128,-1,2
 53 26 53 26 56 49 c 2,3,-1
 155 671 l 2,4,5
 158 691 158 691 169.5 701.5 c 128,-1,6
 181 712 181 712 201 712 c 256,7,8
 221 712 221 712 230.5 699.5 c 128,-1,9
 240 687 240 687 236 664 c 2,10,-1
 193 394 l 1,11,-1
 386 394 l 2,12,13
 460 394 460 394 508.5 371.5 c 128,-1,14
 557 349 557 349 582 309.5 c 128,-1,15
 607 270 607 270 607 217 c 0,16,17
 607 110 607 110 542 55 c 128,-1,18
 477 0 477 0 352 0 c 2,19,-1
 98 0 l 2,0,1
142 69 m 1,20,-1
 355 69 l 2,21,22
 440 69 440 69 482.5 105 c 128,-1,23
 525 141 525 141 525 213 c 0,24,25
 525 269 525 269 488 297 c 128,-1,26
 451 325 451 325 378 325 c 2,27,-1
 183 325 l 1,28,-1
 142 69 l 1,20,-1
EndSplineSet
EndChar

StartChar: uni042B
Encoding: 1067 1067 570
Width: 854
GlyphClass: 2
Flags: W
AnchorPoint: "Anchor-0" 497 705 basechar 0
LayerCount: 2
Fore
SplineSet
98 0 m 2,0,1
 75 0 75 0 64 13 c 128,-1,2
 53 26 53 26 56 49 c 2,3,-1
 155 671 l 2,4,5
 158 691 158 691 169.5 701.5 c 128,-1,6
 181 712 181 712 201 712 c 256,7,8
 221 712 221 712 230.5 699 c 128,-1,9
 240 686 240 686 236 664 c 2,10,-1
 193 394 l 1,11,-1
 359 394 l 2,12,13
 433 394 433 394 481.5 371.5 c 128,-1,14
 530 349 530 349 555 309.5 c 128,-1,15
 580 270 580 270 580 217 c 0,16,17
 580 110 580 110 515 55 c 128,-1,18
 450 0 450 0 325 0 c 2,19,-1
 98 0 l 2,0,1
142 69 m 1,20,-1
 328 69 l 2,21,22
 413 69 413 69 455.5 105 c 128,-1,23
 498 141 498 141 498 213 c 0,24,25
 498 269 498 269 461 297 c 128,-1,26
 424 325 424 325 350 325 c 2,27,-1
 183 325 l 1,28,-1
 142 69 l 1,20,-1
687 -7 m 256,29,30
 667 -7 667 -7 657.5 5.5 c 128,-1,31
 648 18 648 18 652 41 c 2,32,-1
 752 672 l 2,33,34
 755 692 755 692 766.5 702 c 128,-1,35
 778 712 778 712 797 712 c 0,36,37
 818 712 818 712 827 700 c 128,-1,38
 836 688 836 688 833 665 c 2,39,-1
 733 33 l 2,40,41
 731 14 731 14 719 3.5 c 128,-1,42
 707 -7 707 -7 687 -7 c 256,29,30
EndSplineSet
EndChar

StartChar: uni042A
Encoding: 1066 1066 571
Width: 791
GlyphClass: 1
Flags: W
LayerCount: 2
Fore
SplineSet
228 0 m 2,0,1
 205 0 205 0 194 13 c 128,-1,2
 183 26 183 26 187 49 c 2,3,-1
 280 634 l 1,4,-1
 107 634 l 2,5,6
 87 634 87 634 77 643.5 c 128,-1,7
 67 653 67 653 69 670 c 0,8,9
 73 687 73 687 83 696 c 128,-1,10
 93 705 93 705 112 705 c 2,11,-1
 325 705 l 2,12,13
 348 705 348 705 358 692 c 128,-1,14
 368 679 368 679 365 656 c 2,15,-1
 324 394 l 1,16,-1
 515 394 l 2,17,18
 589 394 589 394 638 371.5 c 128,-1,19
 687 349 687 349 711.5 309.5 c 128,-1,20
 736 270 736 270 736 217 c 0,21,22
 736 110 736 110 671 55 c 128,-1,23
 606 0 606 0 481 0 c 2,24,-1
 228 0 l 2,0,1
272 69 m 1,25,-1
 484 69 l 2,26,27
 569 69 569 69 611.5 105 c 128,-1,28
 654 141 654 141 654 213 c 0,29,30
 654 269 654 269 617.5 297 c 128,-1,31
 581 325 581 325 507 325 c 2,32,-1
 313 325 l 1,33,-1
 272 69 l 1,25,-1
EndSplineSet
EndChar

StartChar: uni0409
Encoding: 1033 1033 572
Width: 1129
GlyphClass: 1
Flags: W
LayerCount: 2
Fore
SplineSet
567 0 m 2,0,1
 544 0 544 0 533 13 c 128,-1,2
 522 26 522 26 525 49 c 2,3,-1
 618 634 l 1,4,-1
 326 634 l 1,5,-1
 297 454 l 2,6,7
 280 347 280 347 256 271 c 128,-1,8
 232 195 232 195 201.5 143 c 128,-1,9
 171 91 171 91 132 56 c 128,-1,10
 93 21 93 21 45 -4 c 0,11,12
 34 -9 34 -9 23.5 -9.5 c 128,-1,13
 13 -10 13 -10 4.5 -4.5 c 128,-1,14
 -4 1 -4 1 -9 12 c 0,15,16
 -16 28 -16 28 -10 41 c 128,-1,17
 -4 54 -4 54 13 64 c 0,18,19
 48 82 48 82 79.5 110 c 128,-1,20
 111 138 111 138 137.5 183.5 c 128,-1,21
 164 229 164 229 185.5 300 c 128,-1,22
 207 371 207 371 224 475 c 2,23,-1
 253 664 l 2,24,25
 257 685 257 685 269 695 c 128,-1,26
 281 705 281 705 301 705 c 2,27,-1
 662 705 l 2,28,29
 686 705 686 705 696.5 692.5 c 128,-1,30
 707 680 707 680 704 656 c 2,31,-1
 662 394 l 1,32,-1
 855 394 l 2,33,34
 929 394 929 394 977.5 371.5 c 128,-1,35
 1026 349 1026 349 1051 309.5 c 128,-1,36
 1076 270 1076 270 1076 217 c 0,37,38
 1076 110 1076 110 1011 55 c 128,-1,39
 946 0 946 0 821 0 c 2,40,-1
 567 0 l 2,0,1
611 69 m 1,41,-1
 824 69 l 2,42,43
 909 69 909 69 951.5 105 c 128,-1,44
 994 141 994 141 994 213 c 0,45,46
 994 269 994 269 957 297 c 128,-1,47
 920 325 920 325 847 325 c 2,48,-1
 651 325 l 1,49,-1
 611 69 l 1,41,-1
EndSplineSet
EndChar

StartChar: uni040A
Encoding: 1034 1034 573
Width: 1165
GlyphClass: 1
Flags: W
LayerCount: 2
Fore
SplineSet
89 -7 m 0,0,1
 69 -7 69 -7 60 5.5 c 128,-1,2
 51 18 51 18 55 41 c 2,3,-1
 155 671 l 2,4,5
 159 692 159 692 170.5 702 c 128,-1,6
 182 712 182 712 201 712 c 0,7,8
 222 712 222 712 231 700 c 128,-1,9
 240 688 240 688 237 664 c 2,10,-1
 193 393 l 1,11,-1
 615 393 l 1,12,-1
 660 671 l 2,13,14
 663 692 663 692 674.5 702 c 128,-1,15
 686 712 686 712 706 712 c 256,16,17
 726 712 726 712 735 700 c 128,-1,18
 744 688 744 688 741 664 c 2,19,-1
 698 394 l 1,20,-1
 890 394 l 2,21,22
 964 394 964 394 1013 371.5 c 128,-1,23
 1062 349 1062 349 1086.5 309.5 c 128,-1,24
 1111 270 1111 270 1111 217 c 0,25,26
 1111 110 1111 110 1046 55 c 128,-1,27
 981 0 981 0 856 0 c 2,28,-1
 602 0 l 2,29,30
 579 0 579 0 568 13 c 128,-1,31
 557 26 557 26 560 49 c 2,32,-1
 604 322 l 1,33,-1
 182 322 l 1,34,-1
 137 34 l 2,35,36
 134 14 134 14 122 3.5 c 128,-1,37
 110 -7 110 -7 89 -7 c 0,0,1
646 69 m 1,38,-1
 859 69 l 2,39,40
 944 69 944 69 986.5 105 c 128,-1,41
 1029 141 1029 141 1029 213 c 0,42,43
 1029 269 1029 269 992.5 297 c 128,-1,44
 956 325 956 325 882 325 c 2,45,-1
 687 325 l 1,46,-1
 646 69 l 1,38,-1
EndSplineSet
EndChar

StartChar: uni0404
Encoding: 1028 1028 575
Width: 673
GlyphClass: 2
Flags: W
AnchorPoint: "Anchor-2" 346 0 basechar 0
AnchorPoint: "Anchor-0" 459 705 basechar 0
LayerCount: 2
Fore
SplineSet
382 -9 m 0,0,1
 292 -9 292 -9 223.5 25.5 c 128,-1,2
 155 60 155 60 116 129.5 c 128,-1,3
 77 199 77 199 77 304 c 0,4,5
 77 392 77 392 102 466.5 c 128,-1,6
 127 541 127 541 174.5 596.5 c 128,-1,7
 222 652 222 652 289.5 683 c 128,-1,8
 357 714 357 714 441 714 c 0,9,10
 502 714 502 714 557 696 c 128,-1,11
 612 678 612 678 655 641 c 0,12,13
 668 631 668 631 671.5 618.5 c 128,-1,14
 675 606 675 606 671 594.5 c 128,-1,15
 667 583 667 583 658 575.5 c 128,-1,16
 649 568 649 568 636.5 568 c 128,-1,17
 624 568 624 568 610 579 c 0,18,19
 575 611 575 611 531.5 625 c 128,-1,20
 488 639 488 639 438 639 c 0,21,22
 364 639 364 639 307 605 c 128,-1,23
 250 571 250 571 215 511.5 c 128,-1,24
 180 452 180 452 169 373 c 1,25,-1
 159 393 l 1,26,-1
 489 393 l 2,27,28
 509 393 509 393 519.5 385 c 128,-1,29
 530 377 530 377 528 362 c 0,30,31
 527 343 527 343 516 333.5 c 128,-1,32
 505 324 505 324 486 324 c 2,33,-1
 156 324 l 1,34,-1
 166 338 l 1,35,36
 163 253 163 253 183.5 192.5 c 128,-1,37
 204 132 204 132 255 99 c 128,-1,38
 306 66 306 66 391 66 c 0,39,40
 433 66 433 66 474 79 c 128,-1,41
 515 92 515 92 556 125 c 0,42,43
 571 135 571 135 583.5 134.5 c 128,-1,44
 596 134 596 134 603.5 126.5 c 128,-1,45
 611 119 611 119 613.5 108 c 128,-1,46
 616 97 616 97 612 85 c 128,-1,47
 608 73 608 73 594 63 c 0,48,49
 550 27 550 27 495.5 9 c 128,-1,50
 441 -9 441 -9 382 -9 c 0,0,1
EndSplineSet
EndChar

StartChar: uni042D
Encoding: 1069 1069 576
Width: 673
GlyphClass: 2
Flags: W
AnchorPoint: "Anchor-2" 259 0 basechar 0
AnchorPoint: "Anchor-0" 371 705 basechar 0
LayerCount: 2
Fore
SplineSet
266 -9 m 0,0,1
 205 -9 205 -9 151 9 c 128,-1,2
 97 27 97 27 54 64 c 0,3,4
 41 74 41 74 37.5 86.5 c 128,-1,5
 34 99 34 99 37.5 110.5 c 128,-1,6
 41 122 41 122 50 129.5 c 128,-1,7
 59 137 59 137 71.5 137 c 128,-1,8
 84 137 84 137 97 126 c 0,9,10
 133 95 133 95 176 80.5 c 128,-1,11
 219 66 219 66 269 66 c 0,12,13
 347 66 347 66 404 101 c 128,-1,14
 461 136 461 136 496.5 197.5 c 128,-1,15
 532 259 532 259 541 339 c 1,16,-1
 547 324 l 1,17,-1
 220 324 l 2,18,19
 200 324 200 324 190 331.5 c 128,-1,20
 180 339 180 339 181 354 c 0,21,22
 183 373 183 373 194 383 c 128,-1,23
 205 393 205 393 224 393 c 2,24,-1
 551 393 l 1,25,-1
 542 377 l 1,26,27
 546 457 546 457 525.5 515.5 c 128,-1,28
 505 574 505 574 457 606.5 c 128,-1,29
 409 639 409 639 326 639 c 0,30,31
 281 639 281 639 238.5 626.5 c 128,-1,32
 196 614 196 614 152 581 c 0,33,34
 137 571 137 571 124.5 572 c 128,-1,35
 112 573 112 573 104 580.5 c 128,-1,36
 96 588 96 588 94 599.5 c 128,-1,37
 92 611 92 611 96.5 622.5 c 128,-1,38
 101 634 101 634 114 643 c 0,39,40
 163 679 163 679 217.5 696.5 c 128,-1,41
 272 714 272 714 334 714 c 0,42,43
 423 714 423 714 489.5 680 c 128,-1,44
 556 646 556 646 593 576 c 128,-1,45
 630 506 630 506 630 398 c 0,46,47
 630 312 630 312 605 237.5 c 128,-1,48
 580 163 580 163 533 108 c 128,-1,49
 486 53 486 53 418.5 22 c 128,-1,50
 351 -9 351 -9 266 -9 c 0,0,1
EndSplineSet
EndChar

StartChar: uni040B
Encoding: 1035 1035 580
Width: 849
GlyphClass: 1
Flags: W
LayerCount: 2
Fore
SplineSet
262 -7 m 0,0,1
 243 -7 243 -7 233.5 5.5 c 128,-1,2
 224 18 224 18 228 41 c 2,3,-1
 322 634 l 1,4,-1
 103 634 l 2,5,6
 85 634 85 634 74.5 642 c 128,-1,7
 64 650 64 650 64 664 c 0,8,9
 64 684 64 684 76 694.5 c 128,-1,10
 88 705 88 705 107 705 c 2,11,-1
 635 705 l 2,12,13
 654 705 654 705 664 697.5 c 128,-1,14
 674 690 674 690 674 676 c 0,15,16
 674 656 674 656 662.5 645 c 128,-1,17
 651 634 651 634 631 634 c 2,18,-1
 404 634 l 1,19,-1
 368 399 l 1,20,21
 402 417 402 417 449.5 426 c 128,-1,22
 497 435 497 435 544 435 c 0,23,24
 631 435 631 435 688 401.5 c 128,-1,25
 745 368 745 368 767.5 303.5 c 128,-1,26
 790 239 790 239 775 144 c 2,27,-1
 757 34 l 2,28,29
 754 13 754 13 742 3 c 128,-1,30
 730 -7 730 -7 710 -7 c 256,31,32
 690 -7 690 -7 681.5 6 c 128,-1,33
 673 19 673 19 677 42 c 2,34,-1
 693 140 l 2,35,36
 712 256 712 256 671.5 309 c 128,-1,37
 631 362 631 362 532 362 c 0,38,39
 488 362 488 362 441.5 353 c 128,-1,40
 395 344 395 344 355 323 c 1,41,-1
 309 34 l 2,42,43
 306 14 306 14 294.5 3.5 c 128,-1,44
 283 -7 283 -7 262 -7 c 0,0,1
EndSplineSet
EndChar

StartChar: uni042E
Encoding: 1070 1070 581
Width: 1014
GlyphClass: 1
Flags: W
AnchorPoint: "Anchor-0" 542 674 basechar 0
LayerCount: 2
Fore
SplineSet
614 -9 m 0,0,1
 516 -9 516 -9 449.5 32 c 128,-1,2
 383 73 383 73 351 147.5 c 128,-1,3
 319 222 319 222 324 322 c 1,4,-1
 182 322 l 1,5,-1
 137 35 l 2,6,7
 134 15 134 15 122.5 4 c 128,-1,8
 111 -7 111 -7 90 -7 c 0,9,10
 70 -7 70 -7 61 6 c 128,-1,11
 52 19 52 19 56 43 c 2,12,-1
 155 670 l 2,13,14
 159 691 159 691 170 701.5 c 128,-1,15
 181 712 181 712 202 712 c 0,16,17
 222 712 222 712 231 699 c 128,-1,18
 240 686 240 686 236 662 c 2,19,-1
 193 393 l 1,20,-1
 331 393 l 1,21,22
 347 487 347 487 391.5 559.5 c 128,-1,23
 436 632 436 632 509 673 c 128,-1,24
 582 714 582 714 680 714 c 0,25,26
 769 714 769 714 834.5 679 c 128,-1,27
 900 644 900 644 936 576.5 c 128,-1,28
 972 509 972 509 972 412 c 0,29,30
 972 322 972 322 948 245.5 c 128,-1,31
 924 169 924 169 878.5 112 c 128,-1,32
 833 55 833 55 766.5 23 c 128,-1,33
 700 -9 700 -9 614 -9 c 0,0,1
616 64 m 0,34,35
 704 64 704 64 763.5 109.5 c 128,-1,36
 823 155 823 155 854 233.5 c 128,-1,37
 885 312 885 312 885 411 c 0,38,39
 885 527 885 527 830 584 c 128,-1,40
 775 641 775 641 677 641 c 0,41,42
 591 641 591 641 531 595.5 c 128,-1,43
 471 550 471 550 440 472 c 128,-1,44
 409 394 409 394 409 295 c 0,45,46
 409 178 409 178 464.5 121 c 128,-1,47
 520 64 520 64 616 64 c 0,34,35
EndSplineSet
EndChar

StartChar: uni042F
Encoding: 1071 1071 582
Width: 670
GlyphClass: 1
Flags: W
AnchorPoint: "Anchor-0" 415 690 basechar 0
LayerCount: 2
Fore
SplineSet
501 -7 m 0,0,1
 482 -7 482 -7 473 6 c 128,-1,2
 464 19 464 19 468 42 c 2,3,-1
 509 298 l 1,4,-1
 391 298 l 2,5,6
 359 298 359 298 334.5 292 c 128,-1,7
 310 286 310 286 290 270.5 c 128,-1,8
 270 255 270 255 250 226 c 2,9,-1
 103 12 l 2,10,11
 94 -1 94 -1 82 -5 c 128,-1,12
 70 -9 70 -9 58.5 -5.5 c 128,-1,13
 47 -2 47 -2 39.5 7 c 128,-1,14
 32 16 32 16 31 28.5 c 128,-1,15
 30 41 30 41 39 55 c 2,16,-1
 161 230 l 2,17,18
 192 275 192 275 220 294.5 c 128,-1,19
 248 314 248 314 287 314 c 2,20,-1
 315 314 l 1,21,-1
 327 301 l 1,22,23
 218 303 218 303 162.5 354 c 128,-1,24
 107 405 107 405 107 491 c 0,25,26
 107 563 107 563 141 610.5 c 128,-1,27
 175 658 175 658 233 681.5 c 128,-1,28
 291 705 291 705 364 705 c 2,29,-1
 606 705 l 2,30,31
 630 705 630 705 641 692.5 c 128,-1,32
 652 680 652 680 648 656 c 2,33,-1
 549 33 l 2,34,35
 546 13 546 13 534 3 c 128,-1,36
 522 -7 522 -7 501 -7 c 0,0,1
345 363 m 2,37,-1
 519 363 l 1,38,-1
 563 637 l 1,39,-1
 359 637 l 2,40,41
 279 637 279 637 234 599 c 128,-1,42
 189 561 189 561 189 490 c 0,43,44
 189 427 189 427 226.5 395 c 128,-1,45
 264 363 264 363 345 363 c 2,37,-1
EndSplineSet
EndChar

StartChar: uni0402
Encoding: 1026 1026 583
Width: 842
GlyphClass: 1
Flags: W
LayerCount: 2
Fore
SplineSet
521 -189 m 0,0,1
 496 -189 496 -189 471.5 -185.5 c 128,-1,2
 447 -182 447 -182 429 -176 c 0,3,4
 416 -172 416 -172 410 -163.5 c 128,-1,5
 404 -155 404 -155 404 -144.5 c 128,-1,6
 404 -134 404 -134 408.5 -125.5 c 128,-1,7
 413 -117 413 -117 422.5 -112.5 c 128,-1,8
 432 -108 432 -108 445 -111 c 0,9,10
 460 -115 460 -115 476.5 -117.5 c 128,-1,11
 493 -120 493 -120 512 -120 c 0,12,13
 575 -120 575 -120 615.5 -78 c 128,-1,14
 656 -36 656 -36 670 48 c 2,15,-1
 685 137 l 2,16,17
 704 252 704 252 662 307 c 128,-1,18
 620 362 620 362 524 362 c 0,19,20
 479 362 479 362 436.5 353 c 128,-1,21
 394 344 394 344 355 323 c 1,22,-1
 309 34 l 2,23,24
 306 14 306 14 294.5 3.5 c 128,-1,25
 283 -7 283 -7 262 -7 c 0,26,27
 243 -7 243 -7 234 6 c 128,-1,28
 225 19 225 19 228 42 c 2,29,-1
 322 634 l 1,30,-1
 103 634 l 2,31,32
 85 634 85 634 74.5 642 c 128,-1,33
 64 650 64 650 64 664 c 0,34,35
 64 684 64 684 76 694.5 c 128,-1,36
 88 705 88 705 107 705 c 2,37,-1
 635 705 l 2,38,39
 654 705 654 705 664 697.5 c 128,-1,40
 674 690 674 690 674 676 c 0,41,42
 674 656 674 656 662.5 645 c 128,-1,43
 651 634 651 634 631 634 c 2,44,-1
 404 634 l 1,45,-1
 368 399 l 1,46,47
 401 417 401 417 444 426 c 128,-1,48
 487 435 487 435 535 435 c 0,49,50
 599 435 599 435 647.5 416.5 c 128,-1,51
 696 398 696 398 726.5 361 c 128,-1,52
 757 324 757 324 768 269.5 c 128,-1,53
 779 215 779 215 768 143 c 2,54,-1
 753 51 l 2,55,56
 741 -27 741 -27 710.5 -80.5 c 128,-1,57
 680 -134 680 -134 632.5 -161.5 c 128,-1,58
 585 -189 585 -189 521 -189 c 0,0,1
EndSplineSet
EndChar

StartChar: uni0462
Encoding: 1122 1122 584
Width: 724
GlyphClass: 1
Flags: W
LayerCount: 2
Fore
SplineSet
161 0 m 2,0,1
 138 0 138 0 127 12.5 c 128,-1,2
 116 25 116 25 120 48 c 2,3,-1
 197 536 l 1,4,-1
 60 536 l 2,5,6
 42 536 42 536 32.5 544.5 c 128,-1,7
 23 553 23 553 25 569 c 0,8,9
 30 601 30 601 64 601 c 2,10,-1
 227 601 l 1,11,-1
 203 568 l 1,12,-1
 219 672 l 2,13,14
 222 692 222 692 234.5 702 c 128,-1,15
 247 712 247 712 266 712 c 256,16,17
 285 712 285 712 294 699.5 c 128,-1,18
 303 687 303 687 300 665 c 2,19,-1
 285 568 l 1,20,-1
 273 601 l 1,21,-1
 496 601 l 2,22,23
 514 601 514 601 524 593 c 128,-1,24
 534 585 534 585 531 569 c 0,25,26
 525 536 525 536 492 536 c 2,27,-1
 280 536 l 1,28,-1
 257 394 l 1,29,-1
 450 394 l 2,30,31
 560 394 560 394 615 345 c 128,-1,32
 670 296 670 296 670 217 c 0,33,34
 670 110 670 110 605.5 55 c 128,-1,35
 541 0 541 0 416 0 c 2,36,-1
 161 0 l 2,0,1
205 69 m 1,37,-1
 419 69 l 2,38,39
 504 69 504 69 546.5 105 c 128,-1,40
 589 141 589 141 589 213 c 0,41,42
 589 269 589 269 552 297 c 128,-1,43
 515 325 515 325 441 325 c 2,44,-1
 246 325 l 1,45,-1
 205 69 l 1,37,-1
EndSplineSet
EndChar

StartChar: uni046A
Encoding: 1130 1130 585
Width: 955
GlyphClass: 1
Flags: W
LayerCount: 2
Fore
SplineSet
440 -7 m 0,0,1
 419 -7 419 -7 410 5 c 128,-1,2
 401 17 401 17 404 39 c 2,3,-1
 448 320 l 1,4,-1
 371 320 l 2,5,6
 315 320 315 320 273.5 293.5 c 128,-1,7
 232 267 232 267 194 207 c 2,8,-1
 73 16 l 2,9,10
 64 2 64 2 51.5 -3 c 128,-1,11
 39 -8 39 -8 27 -6 c 128,-1,12
 15 -4 15 -4 6.5 4.5 c 128,-1,13
 -2 13 -2 13 -2.5 26.5 c 128,-1,14
 -3 40 -3 40 8 56 c 2,15,-1
 129 247 l 2,16,17
 160 296 160 296 196.5 327.5 c 128,-1,18
 233 359 233 359 275.5 374.5 c 128,-1,19
 318 390 318 390 367 390 c 2,20,-1
 441 390 l 1,21,-1
 432 370 l 1,22,-1
 235 650 l 2,23,24
 224 666 224 666 224 678 c 128,-1,25
 224 690 224 690 234.5 697.5 c 128,-1,26
 245 705 245 705 264 705 c 2,27,-1
 826 705 l 2,28,29
 846 705 846 705 856 697 c 128,-1,30
 866 689 866 689 864.5 676.5 c 128,-1,31
 863 664 863 664 849 650 c 2,32,-1
 564 370 l 1,33,-1
 556 390 l 1,34,-1
 626 390 l 2,35,36
 675 390 675 390 714 371.5 c 128,-1,37
 753 353 753 353 780.5 320.5 c 128,-1,38
 808 288 808 288 823 245 c 2,39,-1
 890 48 l 2,40,41
 896 32 896 32 891.5 19.5 c 128,-1,42
 887 7 887 7 876.5 0.5 c 128,-1,43
 866 -6 866 -6 853.5 -6 c 128,-1,44
 841 -6 841 -6 830 1.5 c 128,-1,45
 819 9 819 9 814 25 c 2,46,-1
 754 207 l 2,47,48
 734 268 734 268 699.5 294 c 128,-1,49
 665 320 665 320 610 320 c 2,50,-1
 531 320 l 1,51,-1
 485 32 l 2,52,53
 483 12 483 12 471.5 2.5 c 128,-1,54
 460 -7 460 -7 440 -7 c 0,0,1
497 392 m 1,55,-1
 665 558 l 1,56,-1
 778 658 l 1,57,-1
 493 643 l 1,58,-1
 298 657 l 1,59,-1
 416 508 l 1,60,-1
 497 392 l 1,55,-1
EndSplineSet
EndChar

StartChar: uni0474
Encoding: 1140 1140 587
Width: 743
GlyphClass: 1
Flags: W
LayerCount: 2
Fore
SplineSet
306 -7 m 0,0,1
 287 -7 287 -7 275.5 3 c 128,-1,2
 264 13 264 13 258 33 c 2,3,-1
 86 656 l 2,4,5
 82 672 82 672 85.5 683.5 c 128,-1,6
 89 695 89 695 98.5 701 c 128,-1,7
 108 707 108 707 122 707 c 0,8,9
 138 707 138 707 148.5 699 c 128,-1,10
 159 691 159 691 164 670 c 2,11,-1
 328 66 l 1,12,-1
 295 66 l 1,13,-1
 556 524 l 2,14,15
 594 589 594 589 627.5 629.5 c 128,-1,16
 661 670 661 670 701.5 690 c 128,-1,17
 742 710 742 710 798 713 c 0,18,19
 814 714 814 714 823.5 707.5 c 128,-1,20
 833 701 833 701 836.5 691 c 128,-1,21
 840 681 840 681 838 671 c 128,-1,22
 836 661 836 661 828 653 c 128,-1,23
 820 645 820 645 807 644 c 0,24,25
 770 641 770 641 741.5 626 c 128,-1,26
 713 611 713 611 687 580.5 c 128,-1,27
 661 550 661 550 632 500 c 2,28,-1
 356 25 l 2,29,30
 347 9 347 9 335.5 1 c 128,-1,31
 324 -7 324 -7 306 -7 c 0,0,1
EndSplineSet
EndChar

StartChar: uni0496
Encoding: 1174 1174 588
Width: 1007
GlyphClass: 1
Flags: W
LayerCount: 2
Fore
SplineSet
911 -163 m 0,0,1
 895 -163 895 -163 886 -152 c 128,-1,2
 877 -141 877 -141 880 -120 c 2,3,-1
 903 28 l 1,4,-1
 922 0 l 1,5,-1
 867 0 l 2,6,7
 855 0 855 0 843 5.5 c 128,-1,8
 831 11 831 11 826 27 c 2,9,-1
 767 207 l 2,10,11
 747 268 747 268 712.5 294 c 128,-1,12
 678 320 678 320 623 320 c 2,13,-1
 537 320 l 1,14,-1
 490 31 l 2,15,16
 488 13 488 13 477 3 c 128,-1,17
 466 -7 466 -7 446 -7 c 256,18,19
 426 -7 426 -7 417.5 5 c 128,-1,20
 409 17 409 17 412 38 c 2,21,-1
 457 320 l 1,22,-1
 371 320 l 2,23,24
 315 320 315 320 273.5 294 c 128,-1,25
 232 268 232 268 194 207 c 2,26,-1
 73 16 l 2,27,28
 64 2 64 2 51.5 -3 c 128,-1,29
 39 -8 39 -8 27 -6 c 128,-1,30
 15 -4 15 -4 6.5 4.5 c 128,-1,31
 -2 13 -2 13 -2.5 26.5 c 128,-1,32
 -3 40 -3 40 8 56 c 2,33,-1
 128 245 l 2,34,35
 170 311 170 311 218.5 346 c 128,-1,36
 267 381 267 381 329 388 c 1,37,-1
 301 361 l 1,38,-1
 150 656 l 2,39,40
 142 671 142 671 145 683 c 128,-1,41
 148 695 148 695 157 702.5 c 128,-1,42
 166 710 166 710 178.5 711 c 128,-1,43
 191 712 191 712 202.5 706.5 c 128,-1,44
 214 701 214 701 221 686 c 2,45,-1
 377 375 l 1,46,-1
 356 391 l 1,47,-1
 467 391 l 1,48,-1
 513 674 l 2,49,50
 516 693 516 693 527 702.5 c 128,-1,51
 538 712 538 712 557 712 c 0,52,53
 577 712 577 712 586 700 c 128,-1,54
 595 688 595 688 591 667 c 2,55,-1
 547 391 l 1,56,-1
 648 391 l 1,57,-1
 629 375 l 1,58,-1
 889 692 l 2,59,60
 899 706 899 706 911.5 709 c 128,-1,61
 924 712 924 712 935.5 709 c 128,-1,62
 947 706 947 706 954 697 c 128,-1,63
 961 688 961 688 960 675.5 c 128,-1,64
 959 663 959 663 947 648 c 2,65,-1
 709 361 l 1,66,-1
 674 388 l 1,67,68
 713 383 713 383 744.5 365.5 c 128,-1,69
 776 348 776 348 798.5 318 c 128,-1,70
 821 288 821 288 836 245 c 2,71,-1
 905 42 l 1,72,-1
 871 69 l 1,73,-1
 938 69 l 2,74,75
 960 69 960 69 970.5 57.5 c 128,-1,76
 981 46 981 46 978 24 c 2,77,-1
 954 -127 l 2,78,79
 951 -145 951 -145 940.5 -154 c 128,-1,80
 930 -163 930 -163 911 -163 c 0,0,1
EndSplineSet
EndChar

StartChar: uni0498
Encoding: 1176 1176 589
Width: 640
GlyphClass: 2
Flags: W
AnchorPoint: "Anchor-2" 289 0 basechar 0
AnchorPoint: "Anchor-0" 387 705 basechar 0
LayerCount: 2
Fore
SplineSet
263 -164 m 256,0,1
 246 -164 246 -164 237.5 -152.5 c 128,-1,2
 229 -141 229 -141 232 -121 c 2,3,-1
 256 36 l 1,4,-1
 331 36 l 1,5,-1
 305 -128 l 2,6,7
 303 -146 303 -146 291.5 -155 c 128,-1,8
 280 -164 280 -164 263 -164 c 256,0,1
301 -9 m 0,9,10
 225 -9 225 -9 161 9 c 128,-1,11
 97 27 97 27 44 66 c 0,12,13
 33 74 33 74 29.5 85.5 c 128,-1,14
 26 97 26 97 28.5 108 c 128,-1,15
 31 119 31 119 38.5 126 c 128,-1,16
 46 133 46 133 57.5 134 c 128,-1,17
 69 135 69 135 83 126 c 0,18,19
 116 103 116 103 150.5 89.5 c 128,-1,20
 185 76 185 76 223 70 c 128,-1,21
 261 64 261 64 303 64 c 0,22,23
 352 64 352 64 394 77.5 c 128,-1,24
 436 91 436 91 462 123 c 128,-1,25
 488 155 488 155 488 209 c 0,26,27
 488 266 488 266 451.5 294.5 c 128,-1,28
 415 323 415 323 346 323 c 2,29,-1
 211 323 l 2,30,31
 193 323 193 323 183 331 c 128,-1,32
 173 339 173 339 174 354 c 0,33,34
 175 371 175 371 186 381 c 128,-1,35
 197 391 197 391 216 391 c 2,36,-1
 355 391 l 2,37,38
 432 391 432 391 477.5 426.5 c 128,-1,39
 523 462 523 462 523 531 c 0,40,41
 523 571 523 571 503 595 c 128,-1,42
 483 619 483 619 448.5 630 c 128,-1,43
 414 641 414 641 369 641 c 0,44,45
 316 641 316 641 264 627 c 128,-1,46
 212 613 212 613 167 583 c 0,47,48
 151 574 151 574 139 575 c 128,-1,49
 127 576 127 576 119 583.5 c 128,-1,50
 111 591 111 591 109 602 c 128,-1,51
 107 613 107 613 112.5 624.5 c 128,-1,52
 118 636 118 636 132 644 c 0,53,54
 184 678 184 678 248.5 696 c 128,-1,55
 313 714 313 714 377 714 c 0,56,57
 443 714 443 714 494.5 694 c 128,-1,58
 546 674 546 674 576 636 c 128,-1,59
 606 598 606 598 606 543 c 0,60,61
 606 462 606 462 557 412 c 128,-1,62
 508 362 508 362 427 350 c 1,63,-1
 427 365 l 1,64,65
 494 354 494 354 532 311.5 c 128,-1,66
 570 269 570 269 570 205 c 0,67,68
 570 131 570 131 535 83.5 c 128,-1,69
 500 36 500 36 439 13.5 c 128,-1,70
 378 -9 378 -9 301 -9 c 0,9,10
EndSplineSet
Substitution2: "'locl' Localized Forms in Cyrillic lookup 17 subtable" uni0498.loclCHU
Substitution2: "'locl' Localized Forms in Cyrillic lookup 16 subtable" uni0498.loclBSH
AlternateSubs2: "'aalt' Access All Alternates lookup 1 subtable" uni0498.loclBSH uni0498.loclCHU
EndChar

StartChar: uni049A
Encoding: 1178 1178 590
Width: 680
GlyphClass: 1
Flags: W
LayerCount: 2
Fore
SplineSet
584 -163 m 0,0,1
 568 -163 568 -163 559 -152 c 128,-1,2
 550 -141 550 -141 553 -120 c 2,3,-1
 576 28 l 1,4,-1
 587 0 l 1,5,-1
 540 0 l 2,6,7
 527 0 527 0 515 6 c 128,-1,8
 503 12 503 12 498 28 c 2,9,-1
 439 207 l 2,10,11
 420 268 420 268 385.5 294 c 128,-1,12
 351 320 351 320 296 320 c 2,13,-1
 182 320 l 1,14,-1
 137 35 l 2,15,16
 133 14 133 14 122 3.5 c 128,-1,17
 111 -7 111 -7 90 -7 c 0,18,19
 70 -7 70 -7 60.5 5 c 128,-1,20
 51 17 51 17 55 40 c 2,21,-1
 156 675 l 2,22,23
 159 695 159 695 170.5 703.5 c 128,-1,24
 182 712 182 712 201 712 c 0,25,26
 222 712 222 712 231 700 c 128,-1,27
 240 688 240 688 237 665 c 2,28,-1
 193 391 l 1,29,-1
 321 391 l 1,30,-1
 301 375 l 1,31,-1
 561 692 l 2,32,33
 572 706 572 706 584.5 709.5 c 128,-1,34
 597 713 597 713 608.5 709.5 c 128,-1,35
 620 706 620 706 627 697 c 128,-1,36
 634 688 634 688 633 675.5 c 128,-1,37
 632 663 632 663 620 648 c 2,38,-1
 384 361 l 1,39,-1
 347 388 l 1,40,41
 406 381 406 381 446.5 345 c 128,-1,42
 487 309 487 309 508 245 c 2,43,-1
 577 42 l 1,44,-1
 545 69 l 1,45,-1
 611 69 l 2,46,47
 633 69 633 69 643.5 57.5 c 128,-1,48
 654 46 654 46 651 24 c 2,49,-1
 626 -127 l 2,50,51
 624 -145 624 -145 613.5 -154 c 128,-1,52
 603 -163 603 -163 584 -163 c 0,0,1
EndSplineSet
EndChar

StartChar: uni049C
Encoding: 1180 1180 591
Width: 671
GlyphClass: 1
Flags: W
LayerCount: 2
Fore
SplineSet
90 -7 m 0,0,1
 70 -7 70 -7 60.5 5 c 128,-1,2
 51 17 51 17 55 40 c 2,3,-1
 156 673 l 2,4,5
 159 693 159 693 170.5 702.5 c 128,-1,6
 182 712 182 712 201 712 c 0,7,8
 222 712 222 712 231 700 c 128,-1,9
 240 688 240 688 237 665 c 2,10,-1
 193 391 l 1,11,-1
 263 391 l 1,12,-1
 285 534 l 2,13,14
 290 565 290 565 320 565 c 0,15,16
 335 565 335 565 342.5 555.5 c 128,-1,17
 350 546 350 546 347 530 c 2,18,-1
 325 391 l 1,19,-1
 347 391 l 1,20,-1
 334 379 l 1,21,-1
 591 693 l 2,22,23
 602 706 602 706 614 709.5 c 128,-1,24
 626 713 626 713 637.5 710 c 128,-1,25
 649 707 649 707 656 698 c 128,-1,26
 663 689 663 689 662 676.5 c 128,-1,27
 661 664 661 664 650 649 c 2,28,-1
 413 361 l 1,29,-1
 376 388 l 1,30,31
 416 383 416 383 447 365.5 c 128,-1,32
 478 348 478 348 501 318 c 128,-1,33
 524 288 524 288 539 245 c 2,34,-1
 606 48 l 2,35,36
 611 32 611 32 607 19.5 c 128,-1,37
 603 7 603 7 592.5 0 c 128,-1,38
 582 -7 582 -7 569.5 -7 c 128,-1,39
 557 -7 557 -7 546 0.5 c 128,-1,40
 535 8 535 8 530 25 c 2,41,-1
 470 207 l 2,42,43
 450 269 450 269 415.5 295 c 128,-1,44
 381 321 381 321 326 321 c 2,45,-1
 299 321 l 1,46,-1
 315 331 l 1,47,-1
 292 179 l 2,48,49
 287 149 287 149 256 149 c 0,50,51
 224 149 224 149 230 183 c 2,52,-1
 252 321 l 1,53,-1
 182 321 l 1,54,-1
 136 32 l 2,55,56
 133 13 133 13 122 3 c 128,-1,57
 111 -7 111 -7 90 -7 c 0,0,1
EndSplineSet
EndChar

StartChar: uni049E
Encoding: 1182 1182 592
Width: 678
GlyphClass: 1
Flags: W
LayerCount: 2
Fore
SplineSet
131 -7 m 256,0,1
 111 -7 111 -7 101.5 5 c 128,-1,2
 92 17 92 17 96 40 c 2,3,-1
 175 539 l 1,4,-1
 65 539 l 2,5,6
 48 539 48 539 39 547 c 128,-1,7
 30 555 30 555 32 569 c 0,8,9
 35 585 35 585 44 592.5 c 128,-1,10
 53 600 53 600 69 600 c 2,11,-1
 199 600 l 1,12,-1
 179 567 l 1,13,-1
 196 673 l 2,14,15
 200 693 200 693 211 702.5 c 128,-1,16
 222 712 222 712 241 712 c 0,17,18
 262 712 262 712 271.5 700 c 128,-1,19
 281 688 281 688 277 665 c 2,20,-1
 261 566 l 1,21,-1
 253 600 l 1,22,-1
 366 600 l 2,23,24
 384 600 384 600 393 592 c 128,-1,25
 402 584 402 584 399 569 c 0,26,27
 397 555 397 555 387.5 547 c 128,-1,28
 378 539 378 539 362 539 c 2,29,-1
 257 539 l 1,30,-1
 234 391 l 1,31,-1
 354 391 l 1,32,-1
 334 375 l 1,33,-1
 594 692 l 2,34,35
 605 706 605 706 617 709.5 c 128,-1,36
 629 713 629 713 640.5 709.5 c 128,-1,37
 652 706 652 706 659 697.5 c 128,-1,38
 666 689 666 689 665.5 676 c 128,-1,39
 665 663 665 663 653 649 c 2,40,-1
 417 361 l 1,41,-1
 379 388 l 1,42,43
 419 383 419 383 450 365.5 c 128,-1,44
 481 348 481 348 504 318 c 128,-1,45
 527 288 527 288 542 245 c 2,46,-1
 609 48 l 2,47,48
 614 32 614 32 610 19.5 c 128,-1,49
 606 7 606 7 595.5 0.5 c 128,-1,50
 585 -6 585 -6 572.5 -6 c 128,-1,51
 560 -6 560 -6 549 1.5 c 128,-1,52
 538 9 538 9 532 26 c 2,53,-1
 473 207 l 2,54,55
 453 268 453 268 418.5 294 c 128,-1,56
 384 320 384 320 329 320 c 2,57,-1
 223 320 l 1,58,-1
 177 32 l 2,59,60
 174 13 174 13 162.5 3 c 128,-1,61
 151 -7 151 -7 131 -7 c 256,0,1
EndSplineSet
EndChar

StartChar: uni04A0
Encoding: 1184 1184 593
Width: 771
GlyphClass: 1
Flags: W
LayerCount: 2
Fore
SplineSet
221 -7 m 256,0,1
 201 -7 201 -7 191.5 5 c 128,-1,2
 182 17 182 17 185 40 c 2,3,-1
 280 635 l 1,4,-1
 103 635 l 2,5,6
 84 635 84 635 74 643 c 128,-1,7
 64 651 64 651 64 664 c 0,8,9
 64 684 64 684 76 694.5 c 128,-1,10
 88 705 88 705 107 705 c 2,11,-1
 331 705 l 2,12,13
 351 705 351 705 360 693 c 128,-1,14
 369 681 369 681 366 658 c 2,15,-1
 323 391 l 1,16,-1
 451 391 l 1,17,-1
 432 375 l 1,18,-1
 691 692 l 2,19,20
 702 706 702 706 714.5 709.5 c 128,-1,21
 727 713 727 713 738.5 709.5 c 128,-1,22
 750 706 750 706 757 697 c 128,-1,23
 764 688 764 688 763 675.5 c 128,-1,24
 762 663 762 663 750 648 c 2,25,-1
 514 361 l 1,26,-1
 477 388 l 1,27,28
 536 381 536 381 576.5 345 c 128,-1,29
 617 309 617 309 639 245 c 2,30,-1
 706 48 l 2,31,32
 711 32 711 32 707 19.5 c 128,-1,33
 703 7 703 7 692.5 0.5 c 128,-1,34
 682 -6 682 -6 669.5 -6 c 128,-1,35
 657 -6 657 -6 646 1.5 c 128,-1,36
 635 9 635 9 629 25 c 2,37,-1
 570 207 l 2,38,39
 550 268 550 268 515.5 294 c 128,-1,40
 481 320 481 320 426 320 c 2,41,-1
 312 320 l 1,42,-1
 267 35 l 2,43,44
 264 14 264 14 252.5 3.5 c 128,-1,45
 241 -7 241 -7 221 -7 c 256,0,1
EndSplineSet
EndChar

StartChar: uni04A2
Encoding: 1186 1186 594
Width: 804
GlyphClass: 1
Flags: W
LayerCount: 2
Fore
SplineSet
675 -163 m 0,0,1
 659 -163 659 -163 650 -152 c 128,-1,2
 641 -141 641 -141 644 -120 c 2,3,-1
 663 0 l 1,4,-1
 596 0 l 2,5,6
 575 0 575 0 566.5 13 c 128,-1,7
 558 26 558 26 562 49 c 2,8,-1
 605 322 l 1,9,-1
 182 322 l 1,10,-1
 136 35 l 2,11,12
 133 15 133 15 122 4 c 128,-1,13
 111 -7 111 -7 90 -7 c 256,14,15
 69 -7 69 -7 60 6 c 128,-1,16
 51 19 51 19 55 43 c 2,17,-1
 155 670 l 2,18,19
 158 691 158 691 169.5 701.5 c 128,-1,20
 181 712 181 712 201 712 c 0,21,22
 222 712 222 712 231 699 c 128,-1,23
 240 686 240 686 236 662 c 2,24,-1
 193 393 l 1,25,-1
 616 393 l 1,26,-1
 660 670 l 2,27,28
 663 691 663 691 674 701.5 c 128,-1,29
 685 712 685 712 706 712 c 0,30,31
 726 712 726 712 735 699.5 c 128,-1,32
 744 687 744 687 741 662 c 2,33,-1
 643 41 l 1,34,-1
 618 69 l 1,35,-1
 701 69 l 2,36,37
 723 69 723 69 733.5 58 c 128,-1,38
 744 47 744 47 741 25 c 2,39,-1
 717 -127 l 2,40,41
 714 -145 714 -145 703.5 -154 c 128,-1,42
 693 -163 693 -163 675 -163 c 0,0,1
EndSplineSet
EndChar

StartChar: uni04A4
Encoding: 1188 1188 595
Width: 935
GlyphClass: 1
Flags: W
LayerCount: 2
Fore
SplineSet
90 -7 m 0,0,1
 70 -7 70 -7 61 6 c 128,-1,2
 52 19 52 19 56 43 c 2,3,-1
 155 670 l 2,4,5
 159 691 159 691 170 701.5 c 128,-1,6
 181 712 181 712 202 712 c 0,7,8
 222 712 222 712 231 699 c 128,-1,9
 240 686 240 686 236 662 c 2,10,-1
 193 393 l 1,11,-1
 615 393 l 1,12,-1
 658 664 l 2,13,14
 661 685 661 685 673.5 695 c 128,-1,15
 686 705 686 705 707 705 c 2,16,-1
 966 705 l 2,17,18
 985 705 985 705 995 697.5 c 128,-1,19
 1005 690 1005 690 1005 676 c 0,20,21
 1005 656 1005 656 993.5 645 c 128,-1,22
 982 634 982 634 962 634 c 2,23,-1
 736 634 l 1,24,-1
 641 35 l 2,25,26
 638 15 638 15 626.5 4 c 128,-1,27
 615 -7 615 -7 595 -7 c 0,28,29
 574 -7 574 -7 565 6 c 128,-1,30
 556 19 556 19 560 43 c 2,31,-1
 604 322 l 1,32,-1
 182 322 l 1,33,-1
 137 35 l 2,34,35
 134 15 134 15 122.5 4 c 128,-1,36
 111 -7 111 -7 90 -7 c 0,0,1
EndSplineSet
EndChar

StartChar: uni0524
Encoding: 1316 1316 596
Width: 798
GlyphClass: 1
Flags: W
LayerCount: 2
Fore
SplineSet
667 -163 m 0,0,1
 651 -163 651 -163 642.5 -152 c 128,-1,2
 634 -141 634 -141 637 -120 c 2,3,-1
 656 0 l 1,4,-1
 590 0 l 2,5,6
 569 0 569 0 560.5 13 c 128,-1,7
 552 26 552 26 556 49 c 2,8,-1
 648 634 l 1,9,-1
 232 634 l 1,10,-1
 136 33 l 2,11,12
 134 14 134 14 122.5 3.5 c 128,-1,13
 111 -7 111 -7 90 -7 c 0,14,15
 70 -7 70 -7 60.5 5 c 128,-1,16
 51 17 51 17 55 40 c 2,17,-1
 154 664 l 2,18,19
 157 685 157 685 169.5 695 c 128,-1,20
 182 705 182 705 202 705 c 2,21,-1
 693 705 l 2,22,23
 716 705 716 705 726.5 692.5 c 128,-1,24
 737 680 737 680 734 656 c 2,25,-1
 637 41 l 1,26,-1
 612 69 l 1,27,-1
 694 69 l 2,28,29
 716 69 716 69 726.5 58 c 128,-1,30
 737 47 737 47 734 25 c 2,31,-1
 710 -127 l 2,32,33
 707 -145 707 -145 696.5 -154 c 128,-1,34
 686 -163 686 -163 667 -163 c 0,0,1
EndSplineSet
EndChar

StartChar: uni04A8
Encoding: 1192 1192 597
Width: 805
GlyphClass: 1
Flags: W
LayerCount: 2
Fore
SplineSet
364 -9 m 0,0,1
 279 -9 279 -9 214 25.5 c 128,-1,2
 149 60 149 60 112 126.5 c 128,-1,3
 75 193 75 193 75 288 c 0,4,5
 75 384 75 384 101.5 462 c 128,-1,6
 128 540 128 540 176.5 596.5 c 128,-1,7
 225 653 225 653 293 683.5 c 128,-1,8
 361 714 361 714 445 714 c 0,9,10
 456 714 456 714 469.5 712.5 c 128,-1,11
 483 711 483 711 493 709 c 0,12,13
 514 706 514 706 521 694.5 c 128,-1,14
 528 683 528 683 526 667 c 0,15,16
 525 657 525 657 519 650 c 128,-1,17
 513 643 513 643 504.5 640 c 128,-1,18
 496 637 496 637 486 638 c 0,19,20
 474 640 474 640 459.5 641 c 128,-1,21
 445 642 445 642 433 642 c 0,22,23
 350 640 350 640 289 596.5 c 128,-1,24
 228 553 228 553 195 474.5 c 128,-1,25
 162 396 162 396 162 290 c 0,26,27
 162 212 162 212 188.5 161 c 128,-1,28
 215 110 215 110 263 85 c 128,-1,29
 311 60 311 60 375 60 c 0,30,31
 444 60 444 60 498 84 c 128,-1,32
 552 108 552 108 589 150.5 c 128,-1,33
 626 193 626 193 645.5 249.5 c 128,-1,34
 665 306 665 306 665 371 c 0,35,36
 665 426 665 426 641 456 c 128,-1,37
 617 486 617 486 573 486 c 0,38,39
 527 486 527 486 495.5 456 c 128,-1,40
 464 426 464 426 447.5 377 c 128,-1,41
 431 328 431 328 431 270 c 0,42,43
 431 203 431 203 456.5 156 c 128,-1,44
 482 109 482 109 530 84.5 c 128,-1,45
 578 60 578 60 645 60 c 0,46,47
 672 60 672 60 699 64.5 c 128,-1,48
 726 69 726 69 751 79 c 0,49,50
 765 84 765 84 775.5 81.5 c 128,-1,51
 786 79 786 79 791.5 70.5 c 128,-1,52
 797 62 797 62 797.5 51.5 c 128,-1,53
 798 41 798 41 792.5 31.5 c 128,-1,54
 787 22 787 22 774 16 c 0,55,56
 748 3 748 3 713 -3 c 128,-1,57
 678 -9 678 -9 640 -9 c 0,58,59
 577 -9 577 -9 524.5 12 c 128,-1,60
 472 33 472 33 433 71 c 128,-1,61
 394 109 394 109 372.5 159.5 c 128,-1,62
 351 210 351 210 351 270 c 0,63,64
 351 350 351 350 378.5 414.5 c 128,-1,65
 406 479 406 479 457 517.5 c 128,-1,66
 508 556 508 556 578 556 c 0,67,68
 630 556 630 556 667 534.5 c 128,-1,69
 704 513 704 513 724.5 473 c 128,-1,70
 745 433 745 433 745 378 c 0,71,72
 745 298 745 298 716.5 228.5 c 128,-1,73
 688 159 688 159 636 105.5 c 128,-1,74
 584 52 584 52 515 21.5 c 128,-1,75
 446 -9 446 -9 364 -9 c 0,0,1
EndSplineSet
EndChar

StartChar: uni04AA
Encoding: 1194 1194 598
Width: 673
GlyphClass: 2
Flags: W
AnchorPoint: "Anchor-2" 367 0 basechar 0
AnchorPoint: "Anchor-0" 437 705 basechar 0
LayerCount: 2
Fore
SplineSet
341 -164 m 0,0,1
 325 -164 325 -164 316.5 -152.5 c 128,-1,2
 308 -141 308 -141 311 -121 c 2,3,-1
 335 36 l 1,4,-1
 410 36 l 1,5,-1
 384 -128 l 2,6,7
 382 -146 382 -146 370.5 -155 c 128,-1,8
 359 -164 359 -164 341 -164 c 0,0,1
382 -9 m 0,9,10
 292 -9 292 -9 223.5 25.5 c 128,-1,11
 155 60 155 60 116 130 c 128,-1,12
 77 200 77 200 77 307 c 0,13,14
 77 394 77 394 102 468 c 128,-1,15
 127 542 127 542 174.5 597 c 128,-1,16
 222 652 222 652 289.5 683 c 128,-1,17
 357 714 357 714 441 714 c 0,18,19
 504 714 504 714 558.5 695.5 c 128,-1,20
 613 677 613 677 653 642 c 0,21,22
 665 632 665 632 668 620 c 128,-1,23
 671 608 671 608 667 597 c 128,-1,24
 663 586 663 586 654.5 578 c 128,-1,25
 646 570 646 570 635 569.5 c 128,-1,26
 624 569 624 569 612 578 c 0,27,28
 573 611 573 611 531 625 c 128,-1,29
 489 639 489 639 438 639 c 0,30,31
 353 639 353 639 292 596 c 128,-1,32
 231 553 231 553 198 478.5 c 128,-1,33
 165 404 165 404 165 309 c 0,34,35
 165 223 165 223 192 169 c 128,-1,36
 219 115 219 115 269 90.5 c 128,-1,37
 319 66 319 66 390 66 c 0,38,39
 436 66 436 66 476 79.5 c 128,-1,40
 516 93 516 93 556 124 c 0,41,42
 569 133 569 133 580.5 132 c 128,-1,43
 592 131 592 131 600 123.5 c 128,-1,44
 608 116 608 116 611 105.5 c 128,-1,45
 614 95 614 95 610 83 c 128,-1,46
 606 71 606 71 594 62 c 0,47,48
 548 26 548 26 494 8.5 c 128,-1,49
 440 -9 440 -9 382 -9 c 0,9,10
EndSplineSet
Substitution2: "'locl' Localized Forms in Cyrillic lookup 17 subtable" uni04AA.loclCHU
Substitution2: "'locl' Localized Forms in Cyrillic lookup 16 subtable" uni04AA.loclBSH
AlternateSubs2: "'aalt' Access All Alternates lookup 1 subtable" uni04AA.loclBSH uni04AA.loclCHU
EndChar

StartChar: uni04AC
Encoding: 1196 1196 599
Width: 582
GlyphClass: 1
Flags: W
LayerCount: 2
Fore
SplineSet
330 -164 m 0,0,1
 312 -164 312 -164 304 -152 c 128,-1,2
 296 -140 296 -140 299 -120 c 2,3,-1
 318 0 l 1,4,-1
 260 0 l 2,5,6
 238 0 238 0 226.5 13 c 128,-1,7
 215 26 215 26 219 49 c 2,8,-1
 311 634 l 1,9,-1
 100 634 l 2,10,11
 82 634 82 634 71.5 642 c 128,-1,12
 61 650 61 650 61 664 c 0,13,14
 61 684 61 684 73 694.5 c 128,-1,15
 85 705 85 705 104 705 c 2,16,-1
 617 705 l 2,17,18
 636 705 636 705 645.5 697.5 c 128,-1,19
 655 690 655 690 655 676 c 0,20,21
 655 656 655 656 644 645 c 128,-1,22
 633 634 633 634 613 634 c 2,23,-1
 394 634 l 1,24,-1
 300 47 l 1,25,-1
 268 69 l 1,26,-1
 358 69 l 2,27,28
 380 69 380 69 390 57 c 128,-1,29
 400 45 400 45 397 23 c 2,30,-1
 373 -127 l 2,31,32
 367 -164 367 -164 330 -164 c 0,0,1
EndSplineSet
EndChar

StartChar: uni04B2
Encoding: 1202 1202 602
Width: 689
GlyphClass: 1
Flags: W
LayerCount: 2
Fore
SplineSet
572 -163 m 0,0,1
 556 -163 556 -163 547 -152 c 128,-1,2
 538 -141 538 -141 541 -120 c 2,3,-1
 564 28 l 1,4,-1
 588 0 l 1,5,-1
 540 0 l 2,6,7
 524 0 524 0 514 6 c 128,-1,8
 504 12 504 12 495 28 c 2,9,-1
 326 319 l 1,10,-1
 353 319 l 1,11,-1
 89 18 l 2,12,13
 77 5 77 5 67 -1 c 128,-1,14
 57 -7 57 -7 43 -7 c 0,15,16
 27 -7 27 -7 17.5 2 c 128,-1,17
 8 11 8 11 8 25.5 c 128,-1,18
 8 40 8 40 20 54 c 2,19,-1
 307 376 l 1,20,-1
 307 345 l 1,21,-1
 128 652 l 2,22,23
 119 668 119 668 120.5 681.5 c 128,-1,24
 122 695 122 695 132.5 703.5 c 128,-1,25
 143 712 143 712 159 712 c 0,26,27
 174 712 174 712 182.5 705 c 128,-1,28
 191 698 191 698 201 681 c 2,29,-1
 359 404 l 1,30,-1
 340 404 l 1,31,-1
 585 687 l 2,32,33
 597 700 597 700 607 706 c 128,-1,34
 617 712 617 712 632 712 c 256,35,36
 647 712 647 712 657 703 c 128,-1,37
 667 694 667 694 667.5 680 c 128,-1,38
 668 666 668 666 656 652 c 2,39,-1
 380 341 l 1,40,-1
 380 379 l 1,41,-1
 576 45 l 1,42,-1
 533 69 l 1,43,-1
 599 69 l 2,44,45
 620 69 620 69 631 57.5 c 128,-1,46
 642 46 642 46 639 24 c 2,47,-1
 614 -127 l 2,48,49
 612 -145 612 -145 601.5 -154 c 128,-1,50
 591 -163 591 -163 572 -163 c 0,0,1
EndSplineSet
EndChar

StartChar: uni04B4
Encoding: 1204 1204 603
Width: 922
GlyphClass: 1
Flags: W
LayerCount: 2
Fore
SplineSet
798 -164 m 0,0,1
 780 -164 780 -164 772 -152 c 128,-1,2
 764 -140 764 -140 767 -120 c 2,3,-1
 786 0 l 1,4,-1
 227 0 l 2,5,6
 205 0 205 0 193.5 13 c 128,-1,7
 182 26 182 26 186 49 c 2,8,-1
 279 634 l 1,9,-1
 103 634 l 2,10,11
 85 634 85 634 75 642 c 128,-1,12
 65 650 65 650 65 664 c 0,13,14
 65 684 65 684 76.5 694.5 c 128,-1,15
 88 705 88 705 107 705 c 2,16,-1
 539 705 l 2,17,18
 558 705 558 705 568 697.5 c 128,-1,19
 578 690 578 690 578 676 c 0,20,21
 578 656 578 656 566.5 645 c 128,-1,22
 555 634 555 634 535 634 c 2,23,-1
 362 634 l 1,24,-1
 272 71 l 1,25,-1
 689 71 l 1,26,-1
 785 672 l 2,27,28
 788 692 788 692 799 702 c 128,-1,29
 810 712 810 712 830 712 c 256,30,31
 850 712 850 712 859.5 700 c 128,-1,32
 869 688 869 688 866 665 c 2,33,-1
 768 46 l 1,34,-1
 738 71 l 1,35,-1
 825 71 l 2,36,37
 847 71 847 71 857.5 59 c 128,-1,38
 868 47 868 47 864 25 c 2,39,-1
 840 -127 l 2,40,41
 835 -164 835 -164 798 -164 c 0,0,1
EndSplineSet
EndChar

StartChar: uni04B6
Encoding: 1206 1206 604
Width: 718
GlyphClass: 1
Flags: W
LayerCount: 2
Fore
SplineSet
514 298 m 1,0,1
 480 281 480 281 433 271.5 c 128,-1,2
 386 262 386 262 339 262 c 0,3,4
 252 262 252 262 195 295.5 c 128,-1,5
 138 329 138 329 115.5 394 c 128,-1,6
 93 459 93 459 108 553 c 2,7,-1
 126 671 l 2,8,9
 130 692 130 692 142 702 c 128,-1,10
 154 712 154 712 173 712 c 0,11,12
 193 712 193 712 202 699 c 128,-1,13
 211 686 211 686 207 663 c 2,14,-1
 190 557 l 2,15,16
 172 443 172 443 211.5 389 c 128,-1,17
 251 335 251 335 350 335 c 0,18,19
 394 335 394 335 440.5 344.5 c 128,-1,20
 487 354 487 354 527 375 c 1,21,-1
 574 671 l 2,22,23
 577 692 577 692 589.5 702 c 128,-1,24
 602 712 602 712 621 712 c 0,25,26
 641 712 641 712 649.5 699 c 128,-1,27
 658 686 658 686 655 663 c 2,28,-1
 556 41 l 1,29,-1
 531 69 l 1,30,-1
 615 69 l 2,31,32
 637 69 637 69 647.5 58 c 128,-1,33
 658 47 658 47 654 25 c 2,34,-1
 630 -127 l 2,35,36
 628 -145 628 -145 617.5 -154 c 128,-1,37
 607 -163 607 -163 588 -163 c 0,38,39
 572 -163 572 -163 563 -152 c 128,-1,40
 554 -141 554 -141 558 -120 c 2,41,-1
 577 0 l 1,42,-1
 509 0 l 2,43,44
 489 0 489 0 480.5 13 c 128,-1,45
 472 26 472 26 475 49 c 2,46,-1
 514 298 l 1,0,1
EndSplineSet
EndChar

StartChar: uni04B8
Encoding: 1208 1208 605
Width: 675
GlyphClass: 1
Flags: W
LayerCount: 2
Fore
SplineSet
508 -7 m 256,0,1
 488 -7 488 -7 479 5.5 c 128,-1,2
 470 18 470 18 474 41 c 2,3,-1
 514 298 l 1,4,5
 483 282 483 282 441 273 c 128,-1,6
 399 264 399 264 355 262 c 1,7,-1
 366 272 l 1,8,-1
 344 134 l 2,9,10
 339 104 339 104 308 104 c 0,11,12
 294 104 294 104 287 113 c 128,-1,13
 280 122 280 122 282 138 c 2,14,-1
 303 271 l 1,15,-1
 311 263 l 1,16,17
 234 268 234 268 183.5 303 c 128,-1,18
 133 338 133 338 113.5 401 c 128,-1,19
 94 464 94 464 108 553 c 2,20,-1
 126 671 l 2,21,22
 130 692 130 692 142 702 c 128,-1,23
 154 712 154 712 173 712 c 0,24,25
 193 712 193 712 202 699 c 128,-1,26
 211 686 211 686 207 663 c 2,27,-1
 190 557 l 2,28,29
 173 451 173 451 206 397.5 c 128,-1,30
 239 344 239 344 323 337 c 1,31,-1
 312 330 l 1,32,-1
 337 486 l 2,33,34
 342 516 342 516 372 516 c 0,35,36
 387 516 387 516 394.5 507 c 128,-1,37
 402 498 402 498 399 482 c 2,38,-1
 375 327 l 1,39,-1
 367 336 l 1,40,41
 409 337 409 337 450 346 c 128,-1,42
 491 355 491 355 527 375 c 1,43,-1
 574 671 l 2,44,45
 577 692 577 692 589 702 c 128,-1,46
 601 712 601 712 620 712 c 0,47,48
 641 712 641 712 649.5 699 c 128,-1,49
 658 686 658 686 655 663 c 2,50,-1
 555 34 l 2,51,52
 552 14 552 14 540 3.5 c 128,-1,53
 528 -7 528 -7 508 -7 c 256,0,1
EndSplineSet
EndChar

StartChar: uni04BA
Encoding: 1210 1210 606
Width: 675
GlyphClass: 2
Flags: W
LayerCount: 2
Fore
SplineSet
90 -7 m 0,0,1
 69 -7 69 -7 60 6 c 128,-1,2
 51 19 51 19 55 42 c 2,3,-1
 155 671 l 2,4,5
 159 692 159 692 171 702 c 128,-1,6
 183 712 183 712 202 712 c 0,7,8
 223 712 223 712 231.5 699.5 c 128,-1,9
 240 687 240 687 236 663 c 2,10,-1
 196 407 l 1,11,12
 230 425 230 425 278 434 c 128,-1,13
 326 443 326 443 373 443 c 0,14,15
 460 443 460 443 516.5 409.5 c 128,-1,16
 573 376 573 376 595.5 311.5 c 128,-1,17
 618 247 618 247 603 152 c 2,18,-1
 585 34 l 2,19,20
 582 14 582 14 570 3.5 c 128,-1,21
 558 -7 558 -7 538 -7 c 256,22,23
 518 -7 518 -7 509.5 6.5 c 128,-1,24
 501 20 501 20 504 42 c 2,25,-1
 521 148 l 2,26,27
 540 263 540 263 500 316.5 c 128,-1,28
 460 370 460 370 361 370 c 0,29,30
 317 370 317 370 270.5 361 c 128,-1,31
 224 352 224 352 184 331 c 1,32,-1
 136 34 l 2,33,34
 133 14 133 14 121.5 3.5 c 128,-1,35
 110 -7 110 -7 90 -7 c 0,0,1
EndSplineSet
EndChar

StartChar: uni0526
Encoding: 1318 1318 607
Width: 718
GlyphClass: 1
Flags: W
LayerCount: 2
Fore
SplineSet
521 148 m 2,0,1
 540 263 540 263 500 316.5 c 128,-1,2
 460 370 460 370 361 370 c 0,3,4
 317 370 317 370 270.5 361 c 128,-1,5
 224 352 224 352 184 331 c 1,6,-1
 136 34 l 2,7,8
 133 14 133 14 121.5 3.5 c 128,-1,9
 110 -7 110 -7 90 -7 c 0,10,11
 69 -7 69 -7 60 6 c 128,-1,12
 51 19 51 19 55 42 c 2,13,-1
 155 671 l 2,14,15
 159 692 159 692 171 702 c 128,-1,16
 183 712 183 712 202 712 c 0,17,18
 223 712 223 712 231.5 699.5 c 128,-1,19
 240 687 240 687 236 663 c 2,20,-1
 196 407 l 1,21,22
 230 425 230 425 278 434 c 128,-1,23
 326 443 326 443 373 443 c 0,24,25
 460 443 460 443 517 409.5 c 128,-1,26
 574 376 574 376 596.5 311.5 c 128,-1,27
 619 247 619 247 604 152 c 2,28,-1
 586 41 l 1,29,-1
 562 69 l 1,30,-1
 645 69 l 2,31,32
 667 69 667 69 677.5 58 c 128,-1,33
 688 47 688 47 684 25 c 2,34,-1
 660 -127 l 2,35,36
 658 -145 658 -145 647.5 -154 c 128,-1,37
 637 -163 637 -163 618 -163 c 0,38,39
 602 -163 602 -163 593.5 -152 c 128,-1,40
 585 -141 585 -141 588 -120 c 2,41,-1
 607 0 l 1,42,-1
 540 0 l 2,43,44
 519 0 519 0 510.5 13 c 128,-1,45
 502 26 502 26 505 49 c 2,46,-1
 521 148 l 2,0,1
EndSplineSet
EndChar

StartChar: uni04BC
Encoding: 1212 1212 608
Width: 923
GlyphClass: 2
Flags: W
AnchorPoint: "Anchor-3" 579 0 basechar 0
LayerCount: 2
Fore
SplineSet
544 -9 m 0,0,1
 443 -9 443 -9 370.5 35.5 c 128,-1,2
 298 80 298 80 262 158 c 128,-1,3
 226 236 226 236 234 335 c 1,4,-1
 247 315 l 1,5,-1
 221 315 l 2,6,7
 161 315 161 315 122.5 334.5 c 128,-1,8
 84 354 84 354 67.5 392 c 128,-1,9
 51 430 51 430 59 482 c 2,10,-1
 65 518 l 2,11,12
 72 551 72 551 110 551 c 0,13,14
 129 551 129 551 139 541.5 c 128,-1,15
 149 532 149 532 145 512 c 0,16,17
 144 505 144 505 143 496 c 128,-1,18
 142 487 142 487 141 479 c 0,19,20
 134 430 134 430 155 407 c 128,-1,21
 176 384 176 384 225 384 c 2,22,-1
 253 384 l 1,23,-1
 237 364 l 1,24,25
 245 441 245 441 272 505 c 128,-1,26
 299 569 299 569 344.5 615.5 c 128,-1,27
 390 662 390 662 452.5 688 c 128,-1,28
 515 714 515 714 594 714 c 0,29,30
 665 714 665 714 717.5 692.5 c 128,-1,31
 770 671 770 671 805 634 c 128,-1,32
 840 597 840 597 859 550.5 c 128,-1,33
 878 504 878 504 883 453 c 128,-1,34
 888 402 888 402 880 353 c 0,35,36
 878 338 878 338 871 329.5 c 128,-1,37
 864 321 864 321 854.5 318 c 128,-1,38
 845 315 845 315 834 315 c 2,39,-1
 304 315 l 1,40,-1
 321 335 l 1,41,42
 313 256 313 256 338.5 194.5 c 128,-1,43
 364 133 364 133 418.5 98.5 c 128,-1,44
 473 64 473 64 554 64 c 0,45,46
 619 64 619 64 671.5 79.5 c 128,-1,47
 724 95 724 95 769 125 c 0,48,49
 784 134 784 134 795.5 132.5 c 128,-1,50
 807 131 807 131 814.5 122.5 c 128,-1,51
 822 114 822 114 824 103 c 128,-1,52
 826 92 826 92 821.5 80.5 c 128,-1,53
 817 69 817 69 804 61 c 0,54,55
 751 26 751 26 683.5 8.5 c 128,-1,56
 616 -9 616 -9 544 -9 c 0,0,1
590 643 m 0,57,58
 511 643 511 643 455 607 c 128,-1,59
 399 571 399 571 366 507.5 c 128,-1,60
 333 444 333 444 324 363 c 1,61,-1
 311 384 l 1,62,-1
 823 384 l 1,63,-1
 798 352 l 1,64,65
 810 435 810 435 792.5 500.5 c 128,-1,66
 775 566 775 566 725 604.5 c 128,-1,67
 675 643 675 643 590 643 c 0,57,58
EndSplineSet
EndChar

StartChar: uni04C3
Encoding: 1219 1219 612
Width: 669
GlyphClass: 1
Flags: W
LayerCount: 2
Fore
SplineSet
351 -189 m 0,0,1
 326 -189 326 -189 301 -185.5 c 128,-1,2
 276 -182 276 -182 257 -176 c 0,3,4
 244 -173 244 -173 238 -164 c 128,-1,5
 232 -155 232 -155 232 -144.5 c 128,-1,6
 232 -134 232 -134 236.5 -125 c 128,-1,7
 241 -116 241 -116 250.5 -111.5 c 128,-1,8
 260 -107 260 -107 271 -111 c 0,9,10
 287 -116 287 -116 304 -118 c 128,-1,11
 321 -120 321 -120 340 -120 c 0,12,13
 403 -120 403 -120 444 -78.5 c 128,-1,14
 485 -37 485 -37 498 47 c 2,15,-1
 507 99 l 2,16,17
 521 179 521 179 503.5 228.5 c 128,-1,18
 486 278 486 278 441.5 300.5 c 128,-1,19
 397 323 397 323 327 323 c 2,20,-1
 182 323 l 1,21,-1
 136 32 l 2,22,23
 133 13 133 13 122 3 c 128,-1,24
 111 -7 111 -7 90 -7 c 0,25,26
 70 -7 70 -7 60.5 5 c 128,-1,27
 51 17 51 17 55 40 c 2,28,-1
 155 673 l 2,29,30
 159 693 159 693 170 702.5 c 128,-1,31
 181 712 181 712 201 712 c 256,32,33
 221 712 221 712 230.5 700 c 128,-1,34
 240 688 240 688 236 665 c 2,35,-1
 193 394 l 1,36,-1
 333 394 l 1,37,-1
 306 375 l 1,38,-1
 566 693 l 2,39,40
 576 706 576 706 589 709.5 c 128,-1,41
 602 713 602 713 612.5 709.5 c 128,-1,42
 623 706 623 706 630 697 c 128,-1,43
 637 688 637 688 636 675 c 128,-1,44
 635 662 635 662 623 648 c 2,45,-1
 387 361 l 1,46,-1
 365 391 l 1,47,48
 448 388 448 388 504 355.5 c 128,-1,49
 560 323 560 323 583 261 c 128,-1,50
 606 199 606 199 590 105 c 2,51,-1
 581 50 l 2,52,53
 568 -28 568 -28 537.5 -81 c 128,-1,54
 507 -134 507 -134 460 -161.5 c 128,-1,55
 413 -189 413 -189 351 -189 c 0,0,1
EndSplineSet
EndChar

StartChar: uni04C5
Encoding: 1221 1221 613
Width: 780
GlyphClass: 1
Flags: W
LayerCount: 2
Fore
SplineSet
635 -142 m 2,0,1
 629 -155 629 -155 619 -160 c 128,-1,2
 609 -165 609 -165 598.5 -164 c 128,-1,3
 588 -163 588 -163 580.5 -157 c 128,-1,4
 573 -151 573 -151 571 -140.5 c 128,-1,5
 569 -130 569 -130 576 -117 c 2,6,-1
 646 25 l 1,7,-1
 646 0 l 1,8,-1
 575 0 l 2,9,10
 554 0 554 0 545 11 c 128,-1,11
 536 22 536 22 540 46 c 2,12,-1
 633 634 l 1,13,-1
 325 634 l 1,14,-1
 296 455 l 2,15,16
 280 350 280 350 256.5 274 c 128,-1,17
 233 198 233 198 202.5 145 c 128,-1,18
 172 92 172 92 133 56.5 c 128,-1,19
 94 21 94 21 45 -3 c 0,20,21
 28 -11 28 -11 13.5 -7.5 c 128,-1,22
 -1 -4 -1 -4 -9 12 c 0,23,24
 -16 27 -16 27 -11.5 40.5 c 128,-1,25
 -7 54 -7 54 10 63 c 0,26,27
 46 81 46 81 77.5 109 c 128,-1,28
 109 137 109 137 135.5 182.5 c 128,-1,29
 162 228 162 228 184 299.5 c 128,-1,30
 206 371 206 371 223 475 c 2,31,-1
 253 662 l 2,32,33
 256 683 256 683 268.5 694 c 128,-1,34
 281 705 281 705 301 705 c 2,35,-1
 677 705 l 2,36,37
 701 705 701 705 711.5 692.5 c 128,-1,38
 722 680 722 680 719 656 c 2,39,-1
 622 42 l 1,40,-1
 610 69 l 1,41,-1
 681 69 l 2,42,43
 706 69 706 69 716 55 c 128,-1,44
 726 41 726 41 714 16 c 2,45,-1
 635 -142 l 2,0,1
EndSplineSet
EndChar

StartChar: uni04C7
Encoding: 1223 1223 614
Width: 761
GlyphClass: 1
Flags: W
LayerCount: 2
Fore
SplineSet
425 -192 m 0,0,1
 408 -192 408 -192 399.5 -183 c 128,-1,2
 391 -174 391 -174 390.5 -161 c 128,-1,3
 390 -148 390 -148 398 -138 c 128,-1,4
 406 -128 406 -128 422 -128 c 0,5,6
 478 -126 478 -126 509.5 -99.5 c 128,-1,7
 541 -73 541 -73 550 -15 c 2,8,-1
 604 322 l 1,9,-1
 182 322 l 1,10,-1
 137 35 l 2,11,12
 134 15 134 15 122.5 4 c 128,-1,13
 111 -7 111 -7 90 -7 c 0,14,15
 70 -7 70 -7 61 6 c 128,-1,16
 52 19 52 19 56 43 c 2,17,-1
 155 670 l 2,18,19
 159 691 159 691 170 701.5 c 128,-1,20
 181 712 181 712 202 712 c 0,21,22
 222 712 222 712 231 699 c 128,-1,23
 240 686 240 686 236 662 c 2,24,-1
 193 393 l 1,25,-1
 615 393 l 1,26,-1
 659 670 l 2,27,28
 662 691 662 691 673.5 701.5 c 128,-1,29
 685 712 685 712 705 712 c 256,30,31
 725 712 725 712 734 699.5 c 128,-1,32
 743 687 743 687 740 662 c 2,33,-1
 633 -10 l 2,34,35
 624 -72 624 -72 598.5 -111 c 128,-1,36
 573 -150 573 -150 531 -170 c 128,-1,37
 489 -190 489 -190 425 -192 c 0,0,1
EndSplineSet
EndChar

StartChar: uni04C9
Encoding: 1225 1225 615
Width: 800
GlyphClass: 1
Flags: W
LayerCount: 2
Fore
SplineSet
656 -142 m 2,0,1
 649 -155 649 -155 639 -160 c 128,-1,2
 629 -165 629 -165 619 -164 c 128,-1,3
 609 -163 609 -163 601.5 -157 c 128,-1,4
 594 -151 594 -151 592 -140.5 c 128,-1,5
 590 -130 590 -130 596 -117 c 2,6,-1
 666 25 l 1,7,-1
 666 0 l 1,8,-1
 596 0 l 2,9,10
 575 0 575 0 566 11 c 128,-1,11
 557 22 557 22 561 46 c 2,12,-1
 605 322 l 1,13,-1
 182 322 l 1,14,-1
 136 35 l 2,15,16
 133 15 133 15 122 4 c 128,-1,17
 111 -7 111 -7 90 -7 c 256,18,19
 69 -7 69 -7 60 6 c 128,-1,20
 51 19 51 19 55 43 c 2,21,-1
 155 670 l 2,22,23
 158 691 158 691 169.5 701.5 c 128,-1,24
 181 712 181 712 201 712 c 0,25,26
 222 712 222 712 231 699 c 128,-1,27
 240 686 240 686 236 662 c 2,28,-1
 193 393 l 1,29,-1
 616 393 l 1,30,-1
 660 670 l 2,31,32
 663 691 663 691 674 701.5 c 128,-1,33
 685 712 685 712 706 712 c 0,34,35
 726 712 726 712 735 699.5 c 128,-1,36
 744 687 744 687 741 662 c 2,37,-1
 642 42 l 1,38,-1
 631 69 l 1,39,-1
 702 69 l 2,40,41
 727 69 727 69 736.5 55 c 128,-1,42
 746 41 746 41 734 16 c 2,43,-1
 656 -142 l 2,0,1
EndSplineSet
EndChar

StartChar: uni04CB
Encoding: 1227 1227 616
Width: 714
GlyphClass: 1
Flags: W
LayerCount: 2
Fore
SplineSet
378 -164 m 0,0,1
 360 -164 360 -164 352.5 -154 c 128,-1,2
 345 -144 345 -144 348 -125 c 2,3,-1
 372 28 l 2,4,5
 375 48 375 48 387.5 58.5 c 128,-1,6
 400 69 400 69 419 69 c 2,7,-1
 515 69 l 1,8,-1
 472 32 l 1,9,-1
 514 298 l 1,10,11
 480 281 480 281 433 271.5 c 128,-1,12
 386 262 386 262 339 262 c 0,13,14
 252 262 252 262 195 295.5 c 128,-1,15
 138 329 138 329 115.5 394 c 128,-1,16
 93 459 93 459 108 553 c 2,17,-1
 126 671 l 2,18,19
 130 692 130 692 142 702 c 128,-1,20
 154 712 154 712 173 712 c 0,21,22
 193 712 193 712 202 699 c 128,-1,23
 211 686 211 686 207 663 c 2,24,-1
 190 557 l 2,25,26
 172 443 172 443 211.5 389 c 128,-1,27
 251 335 251 335 350 335 c 0,28,29
 394 335 394 335 440.5 344.5 c 128,-1,30
 487 354 487 354 527 375 c 1,31,-1
 574 671 l 2,32,33
 577 692 577 692 589.5 702 c 128,-1,34
 602 712 602 712 621 712 c 0,35,36
 641 712 641 712 649.5 699 c 128,-1,37
 658 686 658 686 655 663 c 2,38,-1
 556 43 l 2,39,40
 553 21 553 21 540.5 10.5 c 128,-1,41
 528 0 528 0 509 0 c 2,42,-1
 442 0 l 1,43,-1
 422 -125 l 2,44,45
 420 -144 420 -144 408.5 -154 c 128,-1,46
 397 -164 397 -164 378 -164 c 0,0,1
EndSplineSet
EndChar

StartChar: uni04CD
Encoding: 1229 1229 617
Width: 895
GlyphClass: 1
Flags: W
LayerCount: 2
Fore
SplineSet
748 -142 m 2,0,1
 741 -155 741 -155 731 -160 c 128,-1,2
 721 -165 721 -165 711 -164 c 128,-1,3
 701 -163 701 -163 693.5 -157 c 128,-1,4
 686 -151 686 -151 684 -140.5 c 128,-1,5
 682 -130 682 -130 688 -117 c 2,6,-1
 758 25 l 1,7,-1
 758 0 l 1,8,-1
 695 0 l 2,9,10
 674 0 674 0 665 11 c 128,-1,11
 656 22 656 22 660 46 c 2,12,-1
 747 596 l 1,13,-1
 771 596 l 1,14,-1
 444 122 l 2,15,16
 437 111 437 111 429 106.5 c 128,-1,17
 421 102 421 102 409 102 c 0,18,19
 395 102 395 102 387 108.5 c 128,-1,20
 379 115 379 115 373 129 c 2,21,-1
 199 595 l 1,22,-1
 220 595 l 1,23,-1
 131 34 l 2,24,25
 129 16 129 16 119 7 c 128,-1,26
 109 -2 109 -2 91 -2 c 0,27,28
 72 -2 72 -2 63.5 9 c 128,-1,29
 55 20 55 20 57 40 c 2,30,-1
 158 675 l 2,31,32
 162 694 162 694 172 703 c 128,-1,33
 182 712 182 712 199 712 c 0,34,35
 215 712 215 712 223.5 704.5 c 128,-1,36
 232 697 232 697 239 680 c 2,37,-1
 427 168 l 1,38,-1
 399 168 l 1,39,-1
 756 687 l 2,40,41
 766 700 766 700 776 706 c 128,-1,42
 786 712 786 712 801 712 c 0,43,44
 820 712 820 712 828.5 700.5 c 128,-1,45
 837 689 837 689 834 669 c 2,46,-1
 734 42 l 1,47,-1
 723 69 l 1,48,-1
 794 69 l 2,49,50
 819 69 819 69 828.5 55 c 128,-1,51
 838 41 838 41 826 16 c 2,52,-1
 748 -142 l 2,0,1
EndSplineSet
EndChar

StartChar: uni04E0
Encoding: 1248 1248 626
Width: 640
GlyphClass: 1
Flags: W
LayerCount: 2
Fore
SplineSet
302 -9 m 256,0,1
 225 -9 225 -9 161.5 9 c 128,-1,2
 98 27 98 27 45 66 c 0,3,4
 34 73 34 73 30 84.5 c 128,-1,5
 26 96 26 96 28.5 107.5 c 128,-1,6
 31 119 31 119 38.5 126.5 c 128,-1,7
 46 134 46 134 57.5 135 c 128,-1,8
 69 136 69 136 83 126 c 0,9,10
 132 90 132 90 186.5 77 c 128,-1,11
 241 64 241 64 303 64 c 0,12,13
 353 64 353 64 395 77.5 c 128,-1,14
 437 91 437 91 463 123.5 c 128,-1,15
 489 156 489 156 489 210 c 0,16,17
 489 249 489 249 471 274 c 128,-1,18
 453 299 453 299 419 311 c 128,-1,19
 385 323 385 323 335 323 c 2,20,-1
 239 323 l 2,21,22
 227 323 227 323 219 329 c 128,-1,23
 211 335 211 335 208 344 c 128,-1,24
 205 353 205 353 208 363 c 128,-1,25
 211 373 211 373 220 381 c 2,26,-1
 528 660 l 1,27,-1
 530 635 l 1,28,-1
 147 635 l 2,29,30
 128 635 128 635 118.5 643 c 128,-1,31
 109 651 109 651 109 665 c 0,32,33
 109 685 109 685 122 695 c 128,-1,34
 135 705 135 705 152 705 c 2,35,-1
 587 705 l 2,36,37
 602 705 602 705 610.5 698.5 c 128,-1,38
 619 692 619 692 621 682 c 128,-1,39
 623 672 623 672 618.5 659.5 c 128,-1,40
 614 647 614 647 601 636 c 2,41,-1
 304 367 l 1,42,-1
 291 390 l 1,43,-1
 355 390 l 2,44,45
 431 390 431 390 478.5 367 c 128,-1,46
 526 344 526 344 548.5 303.5 c 128,-1,47
 571 263 571 263 571 212 c 0,48,49
 571 138 571 138 536 89 c 128,-1,50
 501 40 501 40 440 15.5 c 128,-1,51
 379 -9 379 -9 302 -9 c 256,0,1
EndSplineSet
EndChar

StartChar: uni04E8
Encoding: 1256 1256 630
Width: 767
GlyphClass: 2
Flags: W
AnchorPoint: "Anchor-5" 401 353 basechar 0
AnchorPoint: "Anchor-3" 414 0 basechar 0
AnchorPoint: "Anchor-2" 356 0 basechar 0
AnchorPoint: "Anchor-1" 497 705 basechar 0
AnchorPoint: "Anchor-0" 446 705 basechar 0
LayerCount: 2
Fore
SplineSet
122 325 m 1,0,-1
 132 391 l 1,1,-1
 687 391 l 1,2,-1
 676 325 l 1,3,-1
 122 325 l 1,0,-1
368 -9 m 0,4,5
 280 -9 280 -9 214.5 26 c 128,-1,6
 149 61 149 61 112.5 129 c 128,-1,7
 76 197 76 197 76 294 c 0,8,9
 76 383 76 383 100 459.5 c 128,-1,10
 124 536 124 536 169.5 593 c 128,-1,11
 215 650 215 650 281.5 682 c 128,-1,12
 348 714 348 714 434 714 c 0,13,14
 523 714 523 714 588.5 679 c 128,-1,15
 654 644 654 644 690 576.5 c 128,-1,16
 726 509 726 509 726 412 c 0,17,18
 726 322 726 322 702 245.5 c 128,-1,19
 678 169 678 169 632.5 112 c 128,-1,20
 587 55 587 55 520.5 23 c 128,-1,21
 454 -9 454 -9 368 -9 c 0,4,5
370 64 m 0,22,23
 457 64 457 64 517 109.5 c 128,-1,24
 577 155 577 155 608 233.5 c 128,-1,25
 639 312 639 312 639 411 c 0,26,27
 639 527 639 527 583.5 584 c 128,-1,28
 528 641 528 641 431 641 c 0,29,30
 345 641 345 641 285 595.5 c 128,-1,31
 225 550 225 550 194 472 c 128,-1,32
 163 394 163 394 163 295 c 0,33,34
 163 178 163 178 218 121 c 128,-1,35
 273 64 273 64 370 64 c 0,22,23
EndSplineSet
EndChar

StartChar: uni04FA
Encoding: 1274 1274 638
Width: 578
GlyphClass: 1
Flags: W
LayerCount: 2
Fore
SplineSet
57 -180 m 2,0,1
 41 -181 41 -181 31.5 -174 c 128,-1,2
 22 -167 22 -167 20 -152 c 0,3,4
 19 -137 19 -137 28.5 -128.5 c 128,-1,5
 38 -120 38 -120 53 -119 c 2,6,-1
 73 -118 l 2,7,8
 124 -113 124 -113 153.5 -84.5 c 128,-1,9
 183 -56 183 -56 191 0 c 1,10,-1
 128 0 l 2,11,12
 108 0 108 0 98 11.5 c 128,-1,13
 88 23 88 23 91 43 c 2,14,-1
 135 321 l 1,15,-1
 73 321 l 2,16,17
 57 321 57 321 47.5 328 c 128,-1,18
 38 335 38 335 38 347 c 0,19,20
 38 365 38 365 48.5 374.5 c 128,-1,21
 59 384 59 384 77 384 c 2,22,-1
 146 384 l 1,23,-1
 190 664 l 2,24,25
 193 685 193 685 205.5 695 c 128,-1,26
 218 705 218 705 239 705 c 2,27,-1
 604 705 l 2,28,29
 623 705 623 705 632.5 697.5 c 128,-1,30
 642 690 642 690 642 676 c 0,31,32
 642 656 642 656 631 645 c 128,-1,33
 620 634 620 634 600 634 c 2,34,-1
 267 634 l 1,35,-1
 228 384 l 1,36,-1
 378 384 l 2,37,38
 395 384 395 384 404 377.5 c 128,-1,39
 413 371 413 371 413 358 c 0,40,41
 413 341 413 341 402.5 331 c 128,-1,42
 392 321 392 321 374 321 c 2,43,-1
 218 321 l 1,44,-1
 174 45 l 1,45,-1
 156 69 l 1,46,-1
 235 69 l 2,47,48
 255 69 255 69 265.5 57.5 c 128,-1,49
 276 46 276 46 272 26 c 2,50,-1
 270 10 l 2,51,52
 261 -51 261 -51 238 -91.5 c 128,-1,53
 215 -132 215 -132 177 -153 c 128,-1,54
 139 -174 139 -174 86 -178 c 2,55,-1
 57 -180 l 2,0,1
EndSplineSet
EndChar

StartChar: uni04FC
Encoding: 1276 1276 639
Width: 650
GlyphClass: 1
Flags: W
LayerCount: 2
Fore
SplineSet
388 -181 m 0,0,1
 372 -183 372 -183 360.5 -176.5 c 128,-1,2
 349 -170 349 -170 345 -154 c 0,3,4
 342 -137 342 -137 350 -126.5 c 128,-1,5
 358 -116 358 -116 374 -113 c 0,6,7
 431 -104 431 -104 456 -76 c 128,-1,8
 481 -48 481 -48 481 0 c 0,9,10
 481 23 481 23 472.5 53 c 128,-1,11
 464 83 464 83 442 121 c 2,12,-1
 326 319 l 1,13,-1
 353 319 l 1,14,-1
 89 18 l 2,15,16
 77 5 77 5 67.5 -1 c 128,-1,17
 58 -7 58 -7 43 -7 c 256,18,19
 28 -7 28 -7 18 2 c 128,-1,20
 8 11 8 11 7.5 25.5 c 128,-1,21
 7 40 7 40 19 54 c 2,22,-1
 307 376 l 1,23,-1
 307 345 l 1,24,-1
 128 652 l 2,25,26
 119 668 119 668 120.5 681.5 c 128,-1,27
 122 695 122 695 132.5 703.5 c 128,-1,28
 143 712 143 712 159 712 c 0,29,30
 174 712 174 712 183 705 c 128,-1,31
 192 698 192 698 201 681 c 2,32,-1
 359 404 l 1,33,-1
 340 404 l 1,34,-1
 585 687 l 2,35,36
 597 700 597 700 607 706 c 128,-1,37
 617 712 617 712 632 712 c 256,38,39
 647 712 647 712 657 703 c 128,-1,40
 667 694 667 694 668 680.5 c 128,-1,41
 669 667 669 667 656 653 c 2,42,-1
 380 341 l 1,43,-1
 380 379 l 1,44,-1
 515 149 l 2,45,46
 540 106 540 106 550.5 67 c 128,-1,47
 561 28 561 28 561 -2 c 0,48,49
 561 -81 561 -81 517.5 -124 c 128,-1,50
 474 -167 474 -167 388 -181 c 0,0,1
EndSplineSet
EndChar

StartChar: uni0510
Encoding: 1296 1296 641
Width: 640
GlyphClass: 1
Flags: W
LayerCount: 2
Fore
SplineSet
301 -9 m 0,0,1
 219 -9 219 -9 162 12 c 128,-1,2
 105 33 105 33 77 73.5 c 128,-1,3
 49 114 49 114 51 171 c 0,4,5
 53 224 53 224 76.5 265.5 c 128,-1,6
 100 307 100 307 142 334.5 c 128,-1,7
 184 362 184 362 240 369 c 1,8,-1
 238 354 l 1,9,10
 180 368 180 368 149 406.5 c 128,-1,11
 118 445 118 445 120 506 c 0,12,13
 122 569 122 569 157.5 616 c 128,-1,14
 193 663 193 663 255 688.5 c 128,-1,15
 317 714 317 714 398 714 c 0,16,17
 446 714 446 714 486.5 705.5 c 128,-1,18
 527 697 527 697 560.5 681 c 128,-1,19
 594 665 594 665 621 642 c 0,20,21
 632 633 632 633 636 621.5 c 128,-1,22
 640 610 640 610 636.5 598.5 c 128,-1,23
 633 587 633 587 625 579 c 128,-1,24
 617 571 617 571 605 570.5 c 128,-1,25
 593 570 593 570 578 581 c 0,26,27
 540 613 540 613 495.5 627 c 128,-1,28
 451 641 451 641 392 641 c 0,29,30
 305 641 305 641 254 603 c 128,-1,31
 203 565 203 565 202 500 c 0,32,33
 201 444 201 444 236 417.5 c 128,-1,34
 271 391 271 391 343 391 c 2,35,-1
 464 391 l 2,36,37
 483 391 483 391 493 383 c 128,-1,38
 503 375 503 375 502 360 c 0,39,40
 501 343 501 343 490 332.5 c 128,-1,41
 479 322 479 322 460 322 c 2,42,-1
 316 322 l 2,43,44
 230 322 230 322 182 285.5 c 128,-1,45
 134 249 134 249 133 181 c 0,46,47
 133 121 133 121 178 92.5 c 128,-1,48
 223 64 223 64 310 64 c 0,49,50
 385 64 385 64 437.5 80 c 128,-1,51
 490 96 490 96 529 123 c 0,52,53
 545 132 545 132 557 131 c 128,-1,54
 569 130 569 130 576.5 123 c 128,-1,55
 584 116 584 116 585.5 105 c 128,-1,56
 587 94 587 94 582.5 83 c 128,-1,57
 578 72 578 72 565 65 c 0,58,59
 517 31 517 31 451.5 11 c 128,-1,60
 386 -9 386 -9 301 -9 c 0,0,1
EndSplineSet
EndChar

